<svg width="1954" height="2501" viewBox="0 0 1954 2501" fill="none" xmlns="http://www.w3.org/2000/svg">
<g clip-path="url(#clip0_1_188)">
<path d="M562.034 1097.12V1096.22C562.119 1096.02 562.034 1095.94 562.034 1095.69V1097.12ZM1628.67 1050.1C1605.98 1033.31 1578.28 1012.89 1568.61 1001.79C1573.9 991.83 1586.26 973.244 1597 957.916C1651.04 878.987 1751.89 732.023 1751.89 521.459C1751.88 281.009 1576.01 0.180054 1080.55 0.180054C845.948 0.180054 580.369 77.6015 351.634 212.773C146.312 334.159 13.5837 475.594 13.5837 573.023C13.5837 596.244 22.5694 617.551 39.6122 634.551C103.819 698.551 282.869 697.051 490.141 697.051C798.262 697.051 925.255 713.923 925.255 762.93C925.255 822.302 562.034 968.609 562.034 1096.22C562.034 1243.92 866.941 1271.4 1004.96 1296.06C1135.04 1319.4 1148.33 1389.78 1148.33 1438.1C1148.33 1528.42 1115.08 1608.64 1054.61 1663.83C997.426 1716.09 926.634 1749.27 822.855 1744.47C855.798 1507.07 687.562 1346.94 442.841 1346.94C166.319 1346.94 0.897949 1576 0.897949 1797.34C0.897949 2146.49 323.369 2500.19 939.812 2500.19C1183.71 2500.19 1430.31 2419.75 1616.18 2279.51C1770.1 2163.45 1953.66 1952.32 1953.66 1605.65C1953.66 1289.7 1742.21 1133.87 1628.67 1050.1ZM633.027 1096.38H632.455C633.798 1057.5 739.934 989.63 810.362 944.744C913.934 878.58 995.669 826.366 995.669 762.93C995.669 737.316 985.827 713.809 967.084 695.144C896.769 625.08 699.141 625.773 489.919 626.709C413.755 626.909 332.912 629.309 255.934 622.723C334.377 596.694 429.655 545.659 534.984 489.466C689.105 407.037 861.155 315.059 1022.51 278.251C979.691 321.03 951.591 372.716 951.591 414.766C951.591 431.93 962.119 450.266 991.477 450.266C1017.43 450.266 1048.05 440.223 1083.47 428.544C1177.07 398.009 1301.92 357.301 1442.37 460.423C1394.31 460.223 1354.78 473.48 1332.38 490.93C1310.82 507.687 1306.23 525.737 1306.23 537.773C1306.23 557.209 1320.87 573.637 1341.03 596.451C1372.63 632.073 1415.86 680.83 1415.86 758.501C1415.86 822.873 1388.74 889.766 1349.74 937.344C1355.6 895.466 1348.36 833.53 1323.39 805.109C1311.68 791.809 1296.27 784.773 1278.83 784.773C1250.36 784.773 1222.75 807.83 1180.71 842.68C1151.14 867.116 1114.46 897.537 1067.94 927.63C929.848 1016.48 772.998 1107.29 657.919 1107.29C651.084 1107.28 633.027 1105.41 633.027 1096.38ZM804.677 1811.19C926.627 1817.77 1026.3 1784.96 1102.11 1715.71C1176.23 1648.04 1218.65 1546.82 1218.65 1438.09C1218.65 1376.48 1196.88 1332.37 1148.83 1294.02C1329.17 1331.06 1522.66 1423.33 1622.25 1567.73C1570.48 1549.72 1538.28 1544.88 1504.44 1544.88C1478.58 1544.88 1455.48 1573.34 1455.48 1607.53C1455.48 1624.98 1462.4 1646.33 1471.26 1673.37C1498.38 1756.94 1542.1 1891.42 1428.85 2060.99C1431.08 1990.97 1413.15 1934.77 1390.78 1906.96C1375.21 1887.64 1359.38 1883.54 1348.86 1883.54C1313.85 1883.54 1295.63 1916.68 1270.26 1962.55C1224.5 2045.39 1149.81 2180.12 914.434 2246.04C947.977 2194.64 959.491 2139.49 947.291 2109.68C941.234 2094.92 929.069 2086.02 914.634 2086.02H913.741C891.127 2086.99 863.027 2095 830.334 2104.11C724.241 2133.84 567.762 2177.5 406.077 2047.46C438.941 2044.82 467.319 2034.81 486.512 2018.22C500.377 2006.34 507.984 1991.59 507.984 1976.86C507.984 1954.69 489.641 1937.58 466.341 1915.94C420.184 1873.21 359.348 1816.57 408.105 1698.84C414.527 1724.54 426.369 1747.59 443.041 1765.97C462.641 1787.72 486.227 1800.17 507.898 1800.17C555.684 1800.17 555.684 1759.54 555.684 1732.72C555.684 1697.37 587.884 1666.42 624.527 1666.42C728.512 1666.42 767.705 1819.98 733.184 1903.3C767.705 1876.53 794.469 1837.14 804.677 1811.19ZM1573.89 2223.28C1399.85 2354.47 1168.78 2429.74 939.805 2429.74C369.762 2429.74 71.3265 2111.49 71.3265 1797.32C71.3265 1610.5 210.684 1415.92 443.205 1415.92C580.569 1415.92 794.469 1483.42 767.705 1750.75C763.726 1723.67 728.512 1628.52 624.527 1628.52C566.619 1628.52 517.662 1676.18 517.662 1732.71C517.662 1755.72 512.298 1762.14 507.898 1762.14C469.469 1762.14 421.491 1705.57 431.327 1610.87C281.884 1777.51 388.384 1895.59 440.477 1943.79C452.105 1954.69 469.841 1970.99 470.041 1976.85C470.041 1993.24 427.219 2020.08 319.741 2010.24C506.998 2233.24 725.084 2173.05 840.576 2140.53C869.448 2132.52 903.891 2117.67 912.877 2131.17C928.084 2151.79 887.298 2247.63 832.198 2297.77C1147.64 2256.57 1251.13 2075.46 1303.38 1980.92C1321.04 1949.12 1336.16 1921.46 1348.84 1921.46C1381.71 1921.46 1410.98 2055.82 1388.83 2158.9C1597.96 1964.16 1537.78 1755.1 1507.24 1661.61C1499.83 1638.8 1493.5 1619.03 1493.5 1607.53C1493.5 1590.24 1498.94 1585.45 1510.93 1582.39C1563.23 1582.39 1624.31 1601.1 1696.98 1635.79C1503.53 1182.94 834.512 1245.08 672.019 1144.88C794.948 1138.29 950.976 1048.02 1088.43 959.566C1136.98 928.173 1174.63 896.98 1204.97 871.809C1236.68 845.501 1264.09 822.694 1278.81 822.694C1319.48 822.694 1325.13 942.13 1304.19 1015.32C1405.89 949.723 1453.8 851.073 1453.8 758.48C1453.8 666.459 1402.96 609.073 1369.53 571.173C1359.08 559.337 1344.73 543.359 1344.24 537.744C1344.24 532.537 1348.15 526.401 1355.67 520.83C1390.77 495.13 1459.16 485.573 1530.45 501.716C1373.61 300.18 1178.66 357.516 1071.63 392.487C1039.26 403.101 991.362 418.101 991.362 404.766C991.362 366.659 1041.71 288.751 1131.16 234.58C948.541 222.18 697.677 359.294 517.169 455.959C369.484 534.916 230.491 609.051 150.498 609.051C101.169 609.051 83.8837 591.116 83.8837 573.023C83.8837 436.144 568.569 70.5229 1080.54 70.5229C1274.51 70.5229 1433.03 118.387 1538.96 208.951C1630.82 287.594 1681.58 398.53 1681.58 521.459C1681.58 710.18 1592.23 840.359 1538.84 918.059C1511.43 958.073 1496.43 980.073 1496.43 1003.46C1496.43 1039.97 1530.46 1065.1 1586.86 1106.7C1697.76 1188.56 1883.27 1325.23 1883.27 1605.62C1883.28 1923.3 1715.01 2116.74 1573.89 2223.28Z" fill="white"/>
</g>
<defs>
<clipPath id="clip0_1_188">
<rect width="1953" height="2500" fill="white" transform="translate(0.780029 0.180054)"/>
</clipPath>
</defs>
</svg>
