<svg width="621" height="109" viewBox="0 0 621 109" fill="none" xmlns="http://www.w3.org/2000/svg">
<g clip-path="url(#clip0_1_2)">
<path d="M60.38 86.165L58.662 86.686C57.782 88.718 57.195 89.96 56.946 90.389C56.2213 91.5436 55.2197 92.4989 54.032 93.168C54.191 93.348 54.146 93.483 53.897 93.574C53.626 93.574 53.152 93.303 52.428 92.782C51.728 92.241 51.254 91.992 50.983 91.992C50.802 92.083 50.757 92.174 50.847 92.241C49.176 92.874 46.647 93.889 43.303 95.29C41.271 88.244 39.329 80.7 37.477 72.659C32.982 74.33 26.862 77.041 19.092 80.745C18.1317 86.6772 17.3331 92.6344 16.697 98.61C16.5374 98.6972 16.3589 98.744 16.177 98.746C15.906 98.746 15.545 98.43 15.048 97.82C14.573 97.187 14.235 96.893 14.054 96.893C13.445 96.893 12.925 97.616 12.54 99.062C12.134 100.53 11.772 101.388 11.411 101.637C11.411 101.478 11.366 101.388 11.275 101.388C11.094 101.388 10.417 101.884 9.22 102.901C8.023 103.919 7.345 104.46 7.164 104.549C7.977 103.578 8.361 101.906 8.361 99.535L9.015 98.474L8.089 96.35L5.311 100.19L5.854 105.227C5.018 105.656 4.273 105.881 3.64 105.881C2.895 105.881 2.398 105.43 2.172 104.548C1.946 103.668 1.788 103.238 1.697 103.238C1.313 103.238 0.771001 104.119 0.026001 105.881C0.455001 99.355 0.680001 91.968 0.680001 83.68C0.680001 65.181 2.848 43.115 7.162 17.48C10.0381 16.5316 12.9065 15.5603 15.767 14.566C16.467 14.296 17.935 13.325 20.149 11.653C21.548 10.591 23.311 10.073 25.433 10.073C26.833 10.073 29.747 9.191 34.174 7.43C33.6434 9.52623 33.199 11.6433 32.842 13.776C33.722 13.505 35.055 13.076 36.817 12.444C37.246 11.834 38.06 11.089 39.188 10.208C39.459 10.118 39.821 9.981 40.25 9.802L39.076 13.122L42.509 19.061L43.299 14.566L42.237 11.111L42.508 9.936L41.858 9.26C43.621 8.38 46.353 7.25 50.057 5.827C50.239 19.515 51.548 34.647 54.032 51.225C56.0172 50.6242 57.9973 50.0065 59.972 49.372C59.882 50.253 59.77 51.631 59.588 53.482C59.498 54.092 59.023 54.748 58.188 55.47C57.352 56.169 56.946 57.006 56.946 57.977C56.946 58.316 57.195 58.88 57.737 59.624C58.256 60.371 58.527 61.07 58.527 61.681C58.527 62.11 58.46 62.81 58.324 63.736C58.188 64.663 58.121 65.34 58.121 65.792L56.404 66.312C57.557 73.201 58.866 79.819 60.38 86.165ZM41.452 25.025L40.798 22.902L40.933 22.111L39.871 21.049L38.811 24.1L40.933 27.803L41.452 25.025ZM33.773 56.645C31.9268 48.0969 30.3374 39.4954 29.007 30.852C25.754 44.697 23.495 55.245 22.253 62.472C26.5 60.101 30.34 58.159 33.773 56.645ZM8.228 83.251L7.844 82.326L6.511 84.043L6.782 87.228L7.708 85.375L7.844 83.771L8.228 83.251ZM12.339 88.424L11.797 86.82L9.832 89.598L10.352 94.228C11.504 92.467 12.024 90.749 11.933 89.079L12.339 88.424ZM124.049 84.585C122.197 86.165 120.729 87.317 119.668 88.018C118.713 86.2484 117.831 84.4402 117.025 82.598C116.504 83.478 115.625 84.833 114.382 86.686C114.743 87.838 115.217 89.509 115.849 91.722H112.123C112.123 91.813 111.919 93.394 111.468 96.488C97.985 84.043 87.731 73.336 80.775 64.325C80.683 65.657 80.638 69.092 80.638 74.646C80.638 79.322 80.548 82.416 80.367 83.907C80.029 86.481 79.848 87.746 79.848 87.746C79.848 89.96 80.074 93.754 80.503 99.13C79.012 99.853 77.815 100.281 76.935 100.463L76.008 99.536L76.798 96.893L76.392 93.574L76.798 92.647L75.602 90.525L73.615 94.228L74.947 98.338L73.231 96.351C71.8177 98.4389 70.4471 100.555 69.12 102.699L67.267 101.253L64.761 103.106C60.875 69.927 58.933 42.101 58.933 19.606C59.294 19.424 60.514 19.335 62.637 19.335C64.061 19.335 65.415 18.77 66.748 17.618C68.509 16.104 69.661 15.224 70.181 14.976C70.362 16.737 70.88 19.245 71.762 22.519C72.395 21.706 73.004 20.418 73.615 18.612C74.248 16.804 74.811 15.495 75.353 14.705C76.753 14.254 78.651 13.598 81.044 12.718C81.044 13.327 81.271 13.868 81.768 14.299C82.242 14.75 82.491 15.27 82.491 15.903H82.897L83.146 15.361C83.417 16.693 83.869 17.258 84.478 17.077L84.342 18.546C90.598 34.853 96.696 47.524 102.614 56.512C100.739 49.646 99.294 36.276 98.232 16.422C99.113 15.903 100.446 15.068 102.208 13.916C102.208 12.335 102.343 10.73 102.592 9.149C104.285 8.629 106.701 8.043 109.887 7.433L108.554 9.939L110.678 16.558L111.874 12.718L111.468 9.261L111.874 8.2L111.084 7.024C112.755 6.754 114.743 6.302 117.024 5.692C117.024 8.967 117.069 11.384 117.159 12.988C117.95 12.626 119.012 12.152 120.344 11.519C119.983 19.108 119.802 26.088 119.802 32.434C119.808 49.9038 121.228 67.3445 124.049 84.585ZM107.629 23.557L107.381 21.186L107.629 20.531L106.702 19.062L105.392 21.592L106.838 26.222L107.629 23.557ZM73.231 82.054L72.96 79.819L73.231 79.007L72.44 77.56L70.972 80.202L72.44 84.697L73.231 82.054ZM70.182 94.5L69.911 92.241L70.182 91.451L69.255 90.005L67.811 92.648L69.255 97.143L70.182 94.5ZM198.853 44.879L198.063 50.954L190.249 54.139C190.249 65.432 190.52 73.812 191.039 79.277C191.039 80.068 191.31 81.875 191.83 84.698C192.191 86.912 192.371 88.719 192.371 90.118C192.371 90.661 192.236 91.452 191.965 92.514C192.326 94.455 192.937 97.324 193.818 101.118C193.027 101.457 191.921 101.953 190.521 102.563C189.639 101.953 188.262 101.164 186.41 100.192C184.828 102.224 183.632 103.851 182.841 105.093L180.854 104.303L178.46 105.883C177.578 103.421 176.652 100.326 175.681 96.623C164.299 100.847 155.129 102.969 148.171 102.969C140.131 102.969 133.514 99.402 128.318 92.241C123.733 85.803 121.429 78.441 121.429 70.151C121.429 60.891 123.688 51.857 128.183 43.026C132.316 34.737 138.053 27.329 145.393 20.801C153.773 13.393 164.094 8.311 176.358 5.578L176.223 10.614L173.58 15.9L174.619 18.677L173.829 18.926L171.976 20.664L171.049 20.777L170.395 22.516L173.58 22.109L175.161 20.122L175.951 22.381L173.308 26.221L175.679 31.778C163.415 37.062 154.517 44.833 148.96 55.064C145.505 61.32 143.788 66.672 143.788 71.076C143.788 74.691 145.098 77.604 147.695 79.818C150.293 82.008 153.455 83.115 157.159 83.115C160.772 83.115 165.357 81.873 170.914 79.412C170.214 77.74 169.243 73.29 168.022 66.04C163.415 68.864 158.265 72.274 152.529 76.227C152.89 74.737 153.5 72.478 154.382 69.498L155.713 69.227L157.431 68.03L158.085 67.894L158.875 66.584H156.232L154.788 68.165L152.801 65.793C153.23 64.981 154.02 63.805 155.172 62.201L153.319 60.621C153.771 59.22 154.155 58.159 154.516 57.459C156.887 55.855 160.546 53.664 165.493 50.842L165.222 48.989C167.006 48.177 169.739 47.046 173.442 45.534L173.579 44.472C180.807 41.311 189.186 38.352 198.717 35.618C198.446 37.019 198.221 39.142 198.063 41.966L196.594 43.162H193.681L189.322 48.178L193.026 47.386L195.534 45.399L196.595 45.264L196.866 45.015L198.853 44.879ZM171.458 16.691L167.889 17.866L165.359 20.124L164.298 20.26L163.371 22.519L167.481 21.977L171.458 16.691ZM184.421 45.804H181.779L179 49.101L181.372 48.582L182.976 47.249H183.766L184.421 45.804ZM164.568 26.878L162.58 27.532L161.27 28.73L160.728 28.865L160.208 30.062L162.332 29.791L164.568 26.878ZM130.305 83.907L128.567 78.621L127.528 81.671L127.912 84.449L127.528 85.375L128.567 86.956L130.305 83.907ZM262.614 86.436C262.275 88.538 262.093 90.525 262.093 92.375L260.106 91.45V93.573L258.91 92.128L251.772 91.202L254.933 93.979L258.254 95.017L259.181 95.831H260.106L260.242 99.128C259.881 99.038 259.588 98.993 259.316 98.993C259.044 98.993 258.571 99.128 257.847 99.399C257.418 99.579 256.83 99.534 256.13 99.262L259.834 104.547C252.939 101.804 246.058 99.0266 239.191 96.214C230.993 92.961 224.239 89.912 218.954 87.089C218.954 89.821 219.158 93.165 219.609 97.14C218.819 97.591 217.621 98.202 216.04 98.993L215.905 98.856L216.832 96.485L214.053 90.274L213.263 94.091L213.918 96.62L212.337 95.016C212.246 95.108 210.823 97.412 208.09 101.905L206.374 100.595C205.402 101.386 204.521 102.086 203.731 102.697C200.365 74.465 198.513 52.555 198.174 36.926L196.051 38.26L196.705 37.468L192.347 36.926L188.779 40.111C188.079 38.599 187.583 37.423 187.311 36.543C187.401 36.543 188.824 35.731 191.557 34.149L189.298 32.568L191.015 31.642H192.076L193.68 29.654L189.433 29.135L187.852 30.445L187.311 28.592C188.283 27.011 188.959 25.678 189.298 24.617L184.803 25.408V23.306C185.256 23.035 186.227 22.38 187.717 21.319C202.623 10.456 217.53 5.036 232.437 5.036C240.026 5.036 246.214 6.707 250.98 10.072C256.446 13.957 259.18 19.513 259.18 26.739C259.18 42.008 249.828 55.808 231.127 68.163C242.423 75.754 252.924 81.829 262.614 86.436ZM194.336 39.458C192.394 40.857 190.927 42.01 189.978 42.892C189.707 42.282 189.481 41.74 189.3 41.311L191.017 41.174L194.066 39.458H194.336ZM237.068 37.063C237.068 31.079 233.004 28.075 224.895 28.075C224.014 28.075 223.088 28.12 222.117 28.21C220.717 39.322 220.016 48.132 220.016 54.657C231.378 48.132 237.068 42.281 237.068 37.063ZM201.225 23.308L198.04 22.902L194.201 26.088L197.115 25.951L199.237 24.754H200.164L201.225 23.308ZM250.847 88.017L248.995 85.758L244.364 85.103L246.351 86.956L248.587 87.611L249.129 88.289L250.847 88.017ZM211.005 87.475L208.881 82.981L208.362 85.758L208.881 88.017L208.769 88.807L209.808 90.276L211.005 87.475ZM323.211 8.741C322.331 10.254 320.975 12.49 319.102 15.494C319.734 15.765 320.999 16.103 322.942 16.556C320.05 20.869 312.054 33.45 299.001 54.273C296.877 57.526 293.828 62.427 289.876 68.955C288.183 72.478 285.358 77.425 281.406 83.771C279.464 86.256 277.43 89.462 275.308 93.438C273.635 96.781 271.964 100.191 270.271 103.625C269.232 103.625 267.854 103.534 266.183 103.354C266.183 100.892 266.137 98.95 266.046 97.549L266.701 97.143L268.282 94.094L269.231 93.439L269.48 91.067L265.639 92.92L264.329 96.895C262.192 98.5343 259.984 100.079 257.712 101.525L257.169 98.748L253.601 99.675C257.486 90.234 263.607 76.23 272.008 57.71C263.696 47.207 255.724 36.05 248.044 24.237C248.565 23.604 249.468 23.108 250.687 22.701C251.929 22.317 252.789 21.799 253.262 21.188C253.759 20.578 254.21 18.929 254.663 16.287C255.114 14.345 256.198 13.192 257.96 12.853L258.231 15.903L264.195 20.668L262.997 16.422L260.626 13.509L260.355 12.313H260.219C261.191 11.612 261.844 10.189 262.207 8.021C262.567 5.875 262.996 4.43 263.539 3.73C269.732 14.5781 276.08 25.3375 282.579 36.005C287.749 25.3335 293.178 14.7901 298.863 4.384C300.625 4.475 303.267 4.655 306.812 4.904L304.961 5.831L302.837 12.313L305.999 10.077L307.603 7.026L308.529 6.485L308.664 5.041L311.962 5.311C311.352 7.592 310.9 9.58 310.629 11.251C312.052 10.461 314.131 9.377 316.863 7.953C318.987 8.311 321.089 8.56 323.211 8.741ZM307.469 16.013L304.42 17.481L302.839 22.518L305.347 20.665L306.544 18.406L307.334 17.865L307.469 16.013ZM270.947 34.015L270.406 32.027L269.231 30.717L269.094 30.174L268.033 29.654L268.169 31.778L270.947 34.015ZM263.787 30.062L262.862 27.012L261.145 24.89L261.009 23.963L259.156 23.173L259.427 26.606L263.787 30.062ZM270.541 82.597L267.628 84.042L266.046 89.078L268.418 87.226L269.615 84.967L270.406 84.447L270.541 82.597ZM413.622 26.471C413.622 37.244 408.857 46.685 399.326 54.793C405.695 56.915 408.857 61.049 408.857 67.238C408.857 69.699 408.382 72.386 407.411 75.3C404.407 83.68 398.535 90.093 389.817 94.498C382.137 98.292 373.442 100.144 363.73 100.055L362.668 101.906L360.816 100.596C360.207 101.025 359.37 101.726 358.308 102.698L357.902 99.647C355.44 99.49 352.753 99.039 349.839 98.337L350.494 96.079C351.736 95.988 353.679 95.153 356.321 93.572L354.74 92.374L357.654 91.313L355.531 90.792L353.814 91.063L353.272 90.928L352.888 91.063L352.232 90.657L351.42 89.46L355.938 87.359L353.815 82.841L356.05 83.112C354.379 66.715 353.318 52.237 352.889 39.702C349.867 41.7756 346.907 43.9372 344.012 46.184C343.764 44.964 343.357 43.157 342.838 40.763L345.615 40.9L350.63 36.133L346.655 36.653L343.763 38.527L342.702 38.641L342.431 39.182L341.776 36.539C342.115 36.449 342.295 36.314 342.295 36.133C342.295 36.043 342.07 35.817 341.641 35.478C341.19 35.117 340.941 34.801 340.851 34.552L341.37 34.146C341.28 34.056 341.235 33.965 341.235 33.875C341.235 33.628 341.934 33.085 343.357 32.294C344.758 31.504 345.481 30.983 345.481 30.714C345.481 30.532 345.391 30.284 345.21 29.99C345.029 29.675 344.487 29.471 343.562 29.38C342.635 29.29 342.027 29.041 341.778 28.59L342.297 28.184C341.056 28.545 340.085 28.727 339.384 28.727C338.684 28.727 338.594 28.545 339.113 28.184C338.955 28.274 338.774 28.411 338.593 28.59V28.455C338.593 28.273 338.819 27.822 339.248 27.077C339.699 26.308 339.925 25.812 339.925 25.541C339.925 25.112 339.745 25.066 339.383 25.406V23.304C339.564 23.214 340.49 22.536 342.161 21.317C348.599 16.552 355.668 12.713 363.347 9.798C371.637 6.613 379.473 5.033 386.905 5.033C394.403 5.033 400.569 6.658 405.425 9.932C410.89 13.822 413.622 19.334 413.622 26.471ZM391.918 34.15C391.918 29.475 389.14 27.148 383.584 27.148C381.642 27.148 379.315 27.509 376.583 28.21C375.25 41.084 374.594 49.419 374.594 53.213C386.137 46.075 391.918 39.706 391.918 34.15ZM354.876 22.767L350.901 23.308L347.989 25.161H346.791L345.481 27.262L349.705 27.533L354.876 22.767ZM356.052 31.236L353.951 31.507L352.482 32.433L351.827 32.569L351.173 33.631L353.409 33.766L356.052 31.236ZM389.546 73.585C389.546 71.643 387.693 70.672 383.99 70.672C381.347 70.672 378.027 71.214 374.052 72.276C374.142 74.829 373.962 78.622 373.531 83.66C376.627 83.117 379.788 82.011 383.062 80.34C387.379 78.215 389.546 75.978 389.546 73.585ZM440.727 14.567C438.152 36.634 436.886 57.616 436.886 77.56C436.886 80.994 436.796 83.342 436.615 84.584C436.615 84.923 436.479 85.601 436.231 86.616C435.96 87.633 435.825 88.445 435.825 89.078C435.825 90.569 435.96 92.467 436.231 94.77C436.479 97.841 436.661 99.739 436.751 100.461C435.96 100.8 434.764 101.342 433.183 102.042C432.393 101.161 431.241 99.738 429.727 97.818L429.342 95.288L429.863 94.092L428.417 91.584L426.159 96.079L427.627 100.596C426.904 101.387 426.159 102.628 425.368 104.301L423.516 102.697C422.635 103.216 421.799 103.893 421.009 104.684C417.214 70.195 415.227 40.947 415.046 16.938C417.598 15.966 421.393 14.43 426.43 12.308C426.7 13.12 427.13 14.204 427.761 15.627L426.813 17.344L428.936 24.233L430.134 20.257L429.727 16.689L430.134 15.627L429.613 14.565L431.578 12.059C433.611 11.426 435.509 10.726 437.269 9.935C437.179 10.726 437.518 11.313 438.263 11.652C439.032 12.014 439.393 12.533 439.393 13.233C439.754 13.076 439.956 13.255 439.981 13.842C440.026 14.407 440.138 14.701 440.32 14.701L440.727 14.567ZM423.922 26.088L423.516 23.692L423.922 23.038L422.996 21.458L421.527 24.235L422.996 28.865L423.922 26.088ZM427.491 35.731L427.354 34.285L427.491 33.879L426.948 32.954L426.158 34.557L426.948 37.335L427.491 35.731ZM432.121 87.746L431.714 85.375L432.121 84.585L431.195 83.116L429.862 85.759L431.195 90.389L432.121 87.746ZM510.765 86.436C510.426 88.538 510.245 90.525 510.245 92.375L508.258 91.45V93.573L507.062 92.128L499.924 91.202L503.085 93.979L506.406 95.017L507.332 95.831H508.258L508.394 99.128C508.092 99.0453 507.781 98.9999 507.468 98.993C507.197 98.993 506.723 99.128 505.999 99.399C505.57 99.579 504.982 99.534 504.282 99.263L507.986 104.547C501.091 101.804 494.21 99.0266 487.343 96.214C479.144 92.961 472.391 89.912 467.106 87.089C467.106 89.821 467.309 93.165 467.761 97.14C466.97 97.591 465.773 98.202 464.192 98.993L464.057 98.857L464.983 96.485L462.205 90.274L461.415 94.091L462.07 96.62L460.488 95.016C460.398 95.108 458.974 97.412 456.242 101.905L454.526 100.595C453.554 101.386 452.673 102.086 451.883 102.697C448.517 74.465 446.665 52.555 446.326 36.926L444.204 38.26L444.857 37.468L440.499 36.926L436.931 40.111C436.231 38.599 435.734 37.423 435.463 36.543C435.553 36.543 436.976 35.731 439.709 34.149L437.45 32.568L439.166 31.642H440.228L441.832 29.654L437.586 29.135L436.005 30.445L435.464 28.592C436.435 27.011 437.112 25.678 437.451 24.617L432.956 25.408V23.306C433.408 23.035 434.38 22.38 435.87 21.319C450.776 10.456 465.683 5.036 480.59 5.036C488.179 5.036 494.367 6.707 499.133 10.072C504.599 13.957 507.332 19.513 507.332 26.739C507.332 42.008 497.981 55.808 479.279 68.163C490.573 75.754 501.075 81.829 510.765 86.436ZM442.487 39.458C440.545 40.857 439.077 42.01 438.129 42.892C437.858 42.282 437.633 41.74 437.451 41.311L439.167 41.174L442.216 39.458H442.487ZM485.22 37.063C485.22 31.079 481.156 28.075 473.046 28.075C472.166 28.075 471.24 28.12 470.269 28.21C468.868 39.322 468.168 48.132 468.168 54.657C479.528 48.132 485.22 42.281 485.22 37.063ZM449.376 23.308L446.191 22.902L442.352 26.088L445.265 25.951L447.388 24.754H448.314L449.376 23.308ZM498.997 88.017L497.144 85.758L492.514 85.103L494.501 86.956L496.737 87.611L497.28 88.289L498.997 88.017ZM459.156 87.475L457.032 82.981L456.513 85.758L457.032 88.017L456.92 88.807L457.959 90.276L459.156 87.475ZM572.447 36.137C572.447 43.907 570.278 52.106 565.965 60.756C560.228 72.23 552.006 81.942 541.278 89.869C530.549 97.819 518.896 102.676 506.269 104.436L507.061 99.671L507.196 99.534L511.171 99.671L516.456 94.092L512.098 94.904L511.171 95.559C510.72 94.226 509.974 91.246 508.912 86.547L513.407 85.621C511.554 70.984 510.335 55.988 509.702 40.63C506.499 42.3813 503.407 44.3273 500.442 46.457C500.624 40.901 501.504 36.09 503.085 32.024L500.173 28.727H501.911L506.541 23.96L502.838 24.615L499.789 26.602L500.442 20.911L497.799 18.787C511.215 10.86 524.789 6.885 538.567 6.885C548.619 6.885 556.658 9.189 562.644 13.774C569.171 18.883 572.447 26.335 572.447 36.137ZM514.22 24.484L511.443 25.025L509.319 26.471L508.529 26.606L507.603 28.075L510.765 28.187L514.22 24.484ZM549.296 47.001C549.296 37.809 543.876 33.313 533.013 33.495C531.51 48.0901 530.756 62.7527 530.754 77.425C535.88 73.722 540.104 69.317 543.47 64.189C547.353 58.362 549.296 52.647 549.296 47.001ZM528.246 89.734L526.508 90.005C525.716 90.615 525.153 90.932 524.79 90.932L524.271 91.858H526.124L528.246 89.734ZM521.764 88.944L519.37 89.35L517.789 90.525H517.111L516.321 91.857H518.849L521.764 88.944ZM620.487 22.248C603.027 32.75 594.287 41.468 594.287 48.447C594.287 50.819 596.411 53.032 600.634 55.065C607.161 58.159 611.137 60.213 612.56 61.276C616.783 64.641 618.907 69.136 618.907 74.782C618.907 80.518 616.173 86.82 610.708 93.709C606.644 98.904 601.561 103.851 595.464 108.525C595.123 108.344 594.943 108.006 594.943 107.463C594.943 107.124 595.102 106.515 595.394 105.679C595.71 104.843 595.87 104.257 595.87 103.895C595.87 103.375 594.423 103.105 591.511 103.105H589.116L594.288 97.685C591.263 98.136 588.8 99.491 586.902 101.705L585.728 101.998L584.96 103.105L581.978 101.772C592.933 94.071 598.398 88.107 598.398 83.861C598.398 81.129 595.304 78.328 589.138 75.505C579.335 70.898 573.644 68.074 572.04 67.013C565.965 62.948 562.916 58.024 562.916 52.286C562.916 42.461 568.652 32.072 580.126 21.095C589.296 12.241 599.437 5.218 610.55 0C610.821 0.882 611.475 1.942 612.537 3.186C613.778 4.767 614.525 5.783 614.795 6.235L612.943 6.618L609.893 9.148L608.831 9.26L607.115 12.174L610.819 12.58L615.178 7.432C615.178 7.951 614.748 9.668 613.868 12.58L618.092 15.901H617.979L615.719 17.753L614.93 17.866L613.597 19.853L616.374 20.124L619.017 17.211L619.695 18.001L620.487 22.248ZM609.894 15.765L607.523 16.148L605.671 17.866H604.994L603.932 19.853L606.327 19.989L609.894 15.765ZM603.276 93.844L600.363 94.771L598.24 96.487L597.45 96.758L596.275 98.475L599.166 98.204L603.276 93.844Z" fill="white"/>
</g>
<defs>
<clipPath id="clip0_1_2">
<rect width="620.52" height="108.53" fill="white"/>
</clipPath>
</defs>
</svg>
