<svg width="658" height="208" viewBox="0 0 658 208" fill="none" xmlns="http://www.w3.org/2000/svg">
<g clip-path="url(#clip0_1_4)">
<mask id="mask0_1_4" style="mask-type:luminance" maskUnits="userSpaceOnUse" x="-60" y="-74" width="778" height="350">
<path d="M-59.502 -73.8911H717.532V275.003H-59.502V-73.8911Z" fill="white"/>
</mask>
<g mask="url(#mask0_1_4)">
<path d="M48.767 116.671C46.7269 119.472 43.9921 121.287 40.2315 121.287L34.7307 121.265L36.0253 121.287H29.7158V86.4161H35.7787L40.2472 86.3934C44.181 86.3934 47.0119 88.4033 49.0634 91.4578C53.611 98.2294 53.5256 110.136 48.767 116.671ZM29.7158 24.1713H35.2023L39.2463 24.1502C42.8063 24.1502 45.3682 26.0197 47.2248 28.8615C51.3406 35.161 51.2631 46.2375 46.9565 52.3175C45.1109 54.9234 42.6355 56.6115 39.2326 56.6115L34.2541 56.5915L35.4252 56.6115H29.7158V24.1713ZM78.0826 103.452C78.114 94.1422 75.7064 85.596 71.3022 79.388C69.6051 76.9946 67.6497 74.9982 65.4594 73.4159C63.7719 72.0913 61.8953 70.9711 59.8651 70.0156C60.9498 69.4116 61.9974 68.7698 62.9646 68.0449C65.0655 66.5959 66.9409 64.7675 68.5685 62.5759C72.7951 56.8895 75.106 49.0609 75.0756 40.5327C75.0736 39.9577 75.0589 39.3971 75.0445 38.8355C75.0589 38.274 75.0736 37.713 75.0756 37.1381C75.106 28.6096 72.7951 20.7806 68.5685 15.0939C66.9402 12.9016 65.0635 11.0728 62.9623 9.62356C57.1197 5.24673 49.1485 3.17974 38.9803 3.17974L4.75395 3.20446L0.765686 3.20246C0.765686 3.20246 3.5795 10.5316 3.5795 19.4152H3.57983V74.5949V128.298H3.5795C3.5795 137.181 0.765686 144.537 0.765686 144.537L40.4691 144.51C51.0662 144.51 59.3742 141.972 65.4624 137.192C67.6514 135.611 69.6055 133.614 71.3022 131.222C75.7064 125.015 78.114 116.468 78.0826 107.158C78.081 106.531 78.0646 105.919 78.0499 105.305C78.0646 104.693 78.081 104.08 78.0826 103.452Z" fill="white"/>
<path d="M635.192 64.2812C625.371 54.9446 617.16 49.4068 617.16 35.5025C617.16 31.7341 617.517 22.6045 624.682 22.6045C626.594 22.6045 628.528 23.4979 629.495 24.8282C631.099 27.0208 631.433 29.048 631.433 31.6074C631.433 38.8541 629.772 46.963 629.772 46.963H630.346L655.635 46.8931L655.475 30.2611C655.475 2.75627 630.918 0.00409343 623.271 0.00409343C607.954 0.00409343 597.893 7.27444 593.654 21.5502C589.909 34.1582 591.151 49.1455 596.673 61.1736C603.056 75.0738 615.289 82.9101 625.398 93.5587C626.526 94.7474 627.603 95.9871 628.522 97.3435C630.395 100.11 632.052 102.597 632.077 111.205C632.08 112.387 632.945 123.228 624.207 123.228C616.552 123.228 616.247 116.406 616.231 110.922V109.997C616.231 100.86 617.768 95.0611 617.768 95.0611L591.573 95.1255L591.384 111.859C591.384 145.156 616.899 147.352 625.484 147.336C632.953 147.314 638.9 145.55 644.08 142.495C649.461 139.293 653.126 135.306 654.969 130.644C656.85 125.938 657.755 118.456 657.755 108.404C657.755 82.0034 644.45 73.082 635.192 64.2812Z" fill="white"/>
<path d="M135.842 46.4102C135.872 58.2402 132.732 63.9687 126.257 63.9861C126.061 63.9861 125.167 64.0018 123.996 64.0111L117.064 63.9861V41.0579V27.3464L123.996 27.329C124.739 27.329 125.436 27.321 126.082 27.321C136.249 27.321 135.842 46.4102 135.842 46.4102ZM168.362 138.45C166.32 134.565 164.307 129.349 163.958 128.418L148.251 81.4791C156.323 73.3982 161.734 61.6442 161.684 45.277C161.648 30.8299 156.263 16.2909 147.52 9.51132C142.005 5.16054 134.963 3.23354 123.996 3.02908H117.064L89.9653 3.10191L86.6365 3.10893C86.6365 3.10893 87.5306 4.67278 88.4541 9.22668C89.3182 13.3443 89.733 18.859 89.7971 18.6355L89.8115 126.507C89.7754 128.302 89.3689 134.1 88.5335 138.369C87.6248 142.938 86.738 144.502 86.738 144.502L116.779 144.422L117.047 89.4323H121.819L138.906 144.371L168.514 144.276L172.017 144.255C172.017 144.255 170.637 142.757 168.362 138.45Z" fill="white"/>
<path d="M555.876 46.4102C555.905 58.2402 552.766 63.9687 546.291 63.9861C546.095 63.9861 545.2 64.0018 544.03 64.0111L537.098 63.9861V41.0579V27.3464L544.03 27.329C544.772 27.329 545.469 27.321 546.116 27.321C556.283 27.321 555.876 46.4102 555.876 46.4102ZM588.395 138.45C586.354 134.565 584.34 129.349 583.992 128.418L568.284 81.4791C576.357 73.3982 581.768 61.6442 581.718 45.277C581.681 30.8299 576.297 16.2909 567.554 9.51132C562.038 5.16054 554.996 3.23354 544.03 3.02908H537.098L509.999 3.10191L506.67 3.10893C506.67 3.10893 507.564 4.67278 508.488 9.22668C509.352 13.3443 509.767 18.859 509.831 18.6355L509.845 126.507C509.809 128.302 509.403 134.1 508.568 138.369C507.658 142.938 506.772 144.502 506.772 144.502L536.813 144.422L537.081 89.4323H541.853L558.939 144.371L588.548 144.276L592.05 144.255C592.05 144.255 590.671 142.757 588.395 138.45Z" fill="white"/>
<path d="M222.697 112.737C222.697 119.25 218.06 123.533 212.34 123.533C206.621 123.533 201.984 119.393 201.984 112.737V95.8525V81.1792V77.7341V69.6055V66.1604V51.4871V34.6025C201.984 27.9469 206.621 23.8066 212.34 23.8066C218.06 23.8066 222.697 28.0889 222.697 34.6025V51.4871V66.1604V69.6055V77.7341V81.1792V95.8525V112.737ZM250.364 83.6063C250.365 83.3958 250.365 83.1867 250.366 82.9756C250.366 82.5336 250.366 82.0879 250.367 81.6422C250.367 81.3168 250.367 80.9928 250.368 80.6657C250.368 80.2598 250.368 79.8519 250.369 79.4436C250.37 79.0808 250.37 78.7187 250.37 78.3542C250.371 77.0706 250.371 75.7797 250.371 74.4868V73.6696V72.8528C250.371 71.5599 250.371 70.269 250.37 68.9851C250.37 68.621 250.37 68.2588 250.369 67.8957C250.368 67.4877 250.368 67.0795 250.368 66.6736C250.367 66.3465 250.367 66.0228 250.367 65.6971C250.366 65.2517 250.366 64.8061 250.366 64.3641C250.365 64.1526 250.365 63.9438 250.364 63.7333C250.36 60.9183 250.355 58.1855 250.347 55.6067C250.347 55.442 250.347 55.2816 250.346 55.1183C250.318 45.779 250.267 38.5403 250.193 36.8926C250.071 34.1812 249.915 31.9088 249.725 30.0753C249.172 24.6324 244.32 0.0518467 212.34 0.0518467C180.361 0.0518467 175.508 24.6324 174.956 30.0753C174.766 31.9088 174.609 34.1812 174.487 36.8926C174.414 38.5403 174.363 45.779 174.335 55.1183C174.335 55.2816 174.334 55.442 174.333 55.6067C174.326 58.1855 174.316 64.1526 174.316 64.3641C174.315 64.8061 174.314 65.2517 174.314 65.6971C174.314 66.0228 174.313 66.3465 174.313 66.6736C174.313 67.0795 174.312 67.4877 174.312 67.8957C174.312 68.2588 174.311 68.621 174.311 68.9851C174.31 70.269 174.31 71.5599 174.31 72.8528C174.31 73.1251 174.309 73.3974 174.309 73.6696C174.309 73.9423 174.31 74.2142 174.31 74.4868C174.31 75.7797 174.31 77.0706 174.311 78.3542C174.311 78.7187 174.312 79.0808 174.312 79.4436C174.312 79.8519 174.313 80.2598 174.313 80.6657C174.313 80.9928 174.314 81.3168 174.314 81.6422C174.314 82.0879 174.315 82.5336 174.316 82.9756C174.316 83.1867 174.316 83.3958 174.317 83.6063C174.32 86.421 174.326 89.1541 174.333 91.7329C174.334 91.8973 174.335 92.058 174.335 92.2213C174.363 101.561 174.414 108.799 174.487 110.447C174.609 113.158 174.766 115.431 174.956 117.264C175.508 122.707 180.361 147.288 212.34 147.288C244.32 147.288 249.172 122.707 249.725 117.264C249.915 115.431 250.071 113.158 250.193 110.447C250.267 108.799 250.318 101.561 250.346 92.2213C250.347 92.058 250.347 91.8973 250.347 91.7329C250.355 89.1541 250.36 86.421 250.364 83.6063Z" fill="white"/>
<path d="M422.25 144.256C422.25 144.256 419.465 136.992 419.439 128.164L419.346 19.1478H419.354C419.354 10.2645 422.168 2.935 422.168 2.935L419.332 2.93633V2.935L389.566 2.95538L389.609 54.9045H368.018V2.96941L339.481 2.98845V2.93701L335.493 2.935C335.493 2.935 337.901 9.22413 338.259 17.2087L338.306 128.127C338.302 137 335.493 144.318 335.493 144.318L338.313 144.316V144.318L368.018 144.298V82.3913H389.601L389.643 144.284L419.453 144.264V144.254L422.25 144.256Z" fill="white"/>
<path d="M325.068 2.9967L257.586 3.04014V27.893H257.587L257.586 30.7113C257.586 30.7113 263.733 27.8947 272.607 27.8947L274.957 27.893H276.832V128.121H276.832C276.832 137.005 274.018 144.334 274.018 144.334L276.832 144.333V144.334H305.822V144.333L308.636 144.334C308.636 144.334 305.823 137.005 305.823 128.121H305.822V27.893H307.698L311.222 27.8947C320.096 27.8947 325.068 30.7113 325.068 30.7113L325.067 27.893H325.068V2.9967Z" fill="white"/>
<path d="M463.667 82.2304L489.511 82.2161V54.9044H463.667V27.8997L495.259 27.893L495.248 2.8861L435.516 2.92619V2.93655L432.709 2.93522C432.709 2.93522 435.441 10.0676 435.516 18.7858V128.467C435.441 137.185 432.709 144.318 432.709 144.318L436.697 144.316V144.254L495.259 144.215V119.217L463.667 119.231V82.2304Z" fill="white"/>
<path d="M112.231 207.141L106.863 193.136L104.693 187.762V207.141H96.9263V169.069H104.693L109.718 183.246L111.774 188.676V169.069H119.484V207.141H112.231Z" fill="white"/>
<path d="M133.395 181.073L131.453 194.907H134.88L133.395 181.073ZM136.251 207.141L135.68 201.424H130.483L129.683 207.141H121.745L128.37 169.069H138.535L145.045 207.141H136.251Z" fill="white"/>
<path d="M158.905 176.614V207.141H150.11V176.614H143.942V169.069H165.129V176.614H158.905Z" fill="white"/>
<path d="M178.355 207.999C172.245 207.999 167.562 203.825 167.562 198.566V169.069H176.414V198.566C176.414 199.767 177.327 200.453 178.355 200.453C179.497 200.453 180.411 199.767 180.411 198.566V169.069H188.863V198.566C188.863 203.825 184.58 207.999 178.355 207.999Z" fill="white"/>
<path d="M204.591 177.815C204.591 176.5 204.077 175.986 203.106 175.986H200.936V185.818H203.106C204.077 185.818 204.591 185.304 204.591 183.989V177.815ZM206.875 207.141C205.504 207.141 204.819 203.825 204.819 201.253V194.279C204.819 193.307 204.191 192.106 202.935 192.106H200.936V207.141H192.141V169.069H204.476C208.759 169.069 212.928 171.927 212.928 177.072V183.703C212.928 185.59 211.672 187.647 209.388 188.734C211.672 189.82 213.1 191.821 213.1 193.821V200.796C213.1 203.197 213.614 205.14 214.185 206.97V207.141H206.875Z" fill="white"/>
<path d="M227.496 181.073L225.554 194.907H228.981L227.496 181.073ZM230.352 207.141L229.781 201.424H224.583L223.784 207.141H215.846L222.47 169.069H232.636L239.146 207.141H230.352Z" fill="white"/>
<path d="M241.453 207.141V169.069H250.247V199.538H259.556V207.141H241.453Z" fill="white"/>
<path d="M262.017 207.141V169.069H270.811V199.538H280.12V207.141H262.017Z" fill="white"/>
<path d="M293.917 191.363V207.141H285.18V191.363L277.527 169.069H286.493L290.148 182.503L293.346 169.069H302.027L293.917 191.363Z" fill="white"/>
<path d="M321.842 176.1V184.446H328.238V191.477H321.842V207.141H313.048V169.069H331.094V176.1H321.842Z" fill="white"/>
<path d="M346.027 177.815C346.027 176.5 345.513 175.986 344.542 175.986H342.372V185.818H344.542C345.513 185.818 346.027 185.304 346.027 183.989V177.815ZM348.312 207.141C346.941 207.141 346.256 203.825 346.256 201.253V194.279C346.256 193.307 345.627 192.106 344.371 192.106H342.372V207.141H333.578V169.069H345.913C350.196 169.069 354.365 171.927 354.365 177.072V183.703C354.365 185.59 353.109 187.647 350.824 188.734C353.109 189.82 354.536 191.821 354.536 193.821V200.796C354.536 203.197 355.05 205.14 355.621 206.97V207.141H348.312Z" fill="white"/>
<path d="M368.281 207.999C362.171 207.999 357.488 203.825 357.488 198.566V169.069H366.34V198.566C366.34 199.767 367.254 200.453 368.281 200.453C369.424 200.453 370.337 199.767 370.337 198.566V169.069H378.789V198.566C378.789 203.825 374.506 207.999 368.281 207.999Z" fill="white"/>
<path d="M382.067 169.069H390.862V207.141H382.067V169.069Z" fill="white"/>
<path d="M408.25 176.614V207.141H399.456V176.614H393.288V169.069H414.475V176.614H408.25Z" fill="white"/>
<path d="M432.51 191.363V207.141H423.772V191.363L416.12 169.069H425.085L428.741 182.503L431.939 169.069H440.619L432.51 191.363Z" fill="white"/>
<path d="M462.719 207.999C456.209 207.999 451.355 203.825 451.355 197.537V178.672C451.355 172.441 456.209 168.211 462.719 168.211C469.001 168.211 472.884 172.27 472.884 178.158V183.188H465.175V178.044C465.175 176.729 464.318 175.757 462.719 175.757C461.12 175.757 460.32 176.729 460.32 178.044V198.166C460.32 199.481 461.12 200.453 462.719 200.453C464.318 200.453 465.175 199.481 465.175 198.166V193.021H472.884V198.052C472.884 203.997 469.001 207.999 462.719 207.999Z" fill="white"/>
<path d="M475.7 169.069H484.494V207.141H475.7V169.069Z" fill="white"/>
<path d="M500.752 179.187C500.752 177.301 500.01 176.328 498.296 176.328H496.583V199.938H498.296C500.01 199.938 500.752 198.909 500.752 197.023V179.187ZM498.924 207.141H487.789V169.068H498.924C505.263 169.068 509.547 173.184 509.547 179.301V197.594C509.547 203.711 505.263 207.141 498.924 207.141Z" fill="white"/>
<path d="M512.596 207.141V169.069H531.213V176.443H521.39V184.332H527.786V190.906H521.39V199.367H531.213V207.141H512.596Z" fill="white"/>
<path d="M546.432 177.815C546.432 176.5 545.918 175.986 544.947 175.986H542.777V185.818H544.947C545.918 185.818 546.432 185.304 546.432 183.989V177.815ZM548.716 207.141C547.345 207.141 546.66 203.825 546.66 201.253V194.279C546.66 193.307 546.032 192.106 544.776 192.106H542.777V207.141H533.982V169.069H546.317C550.6 169.069 554.769 171.927 554.769 177.072V183.703C554.769 185.59 553.513 187.647 551.229 188.734C553.513 189.82 554.941 191.821 554.941 193.821V200.796C554.941 203.197 555.455 205.14 556.026 206.97V207.141H548.716Z" fill="white"/>
</g>
</g>
<defs>
<clipPath id="clip0_1_4">
<rect width="657" height="208" fill="white" transform="translate(0.76001)"/>
</clipPath>
</defs>
</svg>
