<svg width="580" height="482" viewBox="0 0 580 482" fill="none" xmlns="http://www.w3.org/2000/svg">
<g clip-path="url(#clip0_1_71)">
<mask id="mask0_1_71" style="mask-type:luminance" maskUnits="userSpaceOnUse" x="-185" y="-248" width="964" height="965">
<path d="M-184.84 -247.55H778.232V716.149H-184.84V-247.55Z" fill="white"/>
</mask>
<g mask="url(#mask0_1_71)">
<path d="M46.5819 419.378C47.03 419.887 47.3711 420.483 47.5985 421.165C47.8259 421.834 47.8861 422.571 47.7657 423.36C46.8628 424.096 46.0201 424.424 45.231 424.337C44.4351 424.257 43.6593 423.983 42.8968 423.528C42.1344 423.079 41.3787 422.497 40.6095 421.788C39.8471 421.092 39.0512 420.509 38.2019 420.054C37.3525 419.606 36.4295 419.338 35.4397 419.244C34.4566 419.164 33.3932 419.492 32.2629 420.228C30.7916 420.851 29.5944 421.707 28.6648 422.812C27.7351 423.909 26.859 425.094 26.0431 426.379C25.2205 427.643 24.3577 428.902 23.4615 430.14C22.5519 431.384 21.4284 432.435 20.0707 433.272C19.6761 434.409 19.2213 435.627 18.713 436.919C18.2047 438.224 17.8235 439.542 17.5694 440.867C17.3219 442.193 17.2617 443.511 17.4022 444.809C17.5426 446.101 18.0375 447.352 18.8802 448.53C19.8968 449.387 20.9201 450.23 21.93 451.073C22.9465 451.923 24.0233 452.646 25.1469 453.235C26.2772 453.831 27.4609 454.205 28.7116 454.346C29.9556 454.486 31.3065 454.272 32.7779 453.71C34.5837 453.027 36.3092 452.178 37.941 451.167C39.5796 450.15 41.1379 448.905 42.6026 447.433C42.5424 446.817 42.5558 446.201 42.6427 445.566C42.723 444.957 42.7698 444.368 42.7698 443.832C42.7698 443.29 42.6427 442.788 42.3952 442.306C42.1344 441.824 41.6729 441.45 40.9974 441.162C39.5261 440.653 38.0748 440.553 36.6302 440.867C35.1923 441.182 33.8078 441.463 32.4836 441.717C31.1527 441.972 29.9689 441.938 28.9189 441.63C27.8756 441.316 27.0128 440.225 26.3374 438.365C26.8456 437.18 27.6348 436.404 28.7116 436.036C29.7817 435.668 30.9387 435.48 32.1827 435.48C33.4266 435.48 34.7107 435.534 36.035 435.654C37.3659 435.768 38.5363 435.734 39.5528 435.574C40.1213 435.226 40.7366 435.018 41.4188 434.931C42.0943 434.844 42.7698 434.831 43.4519 434.885C44.1274 434.945 44.8029 435.018 45.4851 435.105C46.1606 435.179 46.7558 435.226 47.2641 435.226C48.274 435.681 48.9963 436.323 49.4176 437.18C49.839 438.023 50.0864 438.96 50.1399 439.971C50.2001 440.988 50.1132 442.005 49.8858 443.029C49.6584 444.046 49.431 444.957 49.2103 445.74C48.9294 446.415 48.789 447.065 48.789 447.687C48.789 448.316 48.7957 448.938 48.8291 449.561C48.8558 450.177 48.8759 450.792 48.8759 451.415C48.8759 452.044 48.7555 452.686 48.5281 453.369C48.08 454.386 47.8393 455.484 47.8125 456.668C47.7791 457.866 47.7256 459.031 47.6453 460.195C47.5584 461.353 47.3444 462.45 47.0033 463.501C46.6622 464.545 45.9934 465.408 44.9701 466.084C44.3481 465.743 43.6593 465.448 42.8968 465.194C42.1344 464.94 41.6127 464.391 41.3319 463.541C41.7264 463.093 41.8669 462.678 41.7532 462.316C41.6395 461.942 41.4389 461.58 41.158 461.206C40.8771 460.844 40.5828 460.483 40.2751 460.101C39.9608 459.74 39.807 459.358 39.807 458.964C38.5095 459.305 37.1518 459.653 35.7407 460.021C34.3295 460.389 32.905 460.643 31.4604 460.784C30.0224 460.924 28.5711 460.898 27.0998 460.697C25.6284 460.503 24.2173 460.034 22.8663 459.305C21.3949 458.174 19.9704 457.09 18.5793 456.046C17.2015 454.995 15.9576 453.864 14.8541 452.646C13.7572 451.435 12.8543 450.096 12.1521 448.624C11.4432 447.158 11.062 445.432 11.0018 443.457C11.0018 440.285 11.5234 437.193 12.5735 434.175C13.6168 431.15 15.0413 428.339 16.8471 425.736C18.6528 423.133 20.7796 420.804 23.2007 418.736C25.6284 416.681 28.2501 415.028 31.0858 413.777C33.7945 413.268 36.57 413.496 39.4258 414.466C42.2749 415.423 44.6625 417.056 46.5819 419.378Z" fill="white"/>
<path d="M76.8284 450.572C77.1093 449.615 76.9688 448.765 76.4071 448.029C75.8386 447.293 75.337 446.557 74.8822 445.827C74.2602 445.319 73.5379 444.95 72.722 444.723C71.906 444.495 71.0567 444.382 70.1738 444.382C69.3044 444.382 68.4283 444.482 67.5521 444.683C66.676 444.877 65.9002 445.118 65.2247 445.406C64.6027 446.369 64.2817 447.46 64.2483 448.712C64.2215 449.95 64.2951 451.134 64.4623 452.265C64.9706 452.888 65.4789 453.55 65.9872 454.26C66.4954 454.962 67.0572 455.618 67.6792 456.214C68.3012 456.803 69.0101 457.244 69.7993 457.519C70.5885 457.806 71.5181 457.827 72.5949 457.606C73.8924 456.823 74.8554 455.779 75.4774 454.514C76.0927 453.236 76.5475 451.924 76.8284 450.572ZM82.3393 446.925C82.6202 448.116 82.7339 449.227 82.6737 450.278C82.6202 451.322 82.4597 452.352 82.2122 453.363C81.9581 454.387 81.6438 455.391 81.2759 456.374C80.9081 457.371 80.5536 458.342 80.2192 459.312C79.6039 460.437 78.808 461.313 77.845 461.929C76.8819 462.551 75.8386 463.033 74.715 463.368C73.0697 463.535 71.4914 463.462 69.9665 463.12C68.4483 462.772 67.0171 462.243 65.6929 461.501C64.362 460.771 63.1514 459.868 62.0479 458.797C60.9511 457.719 60.0281 456.535 59.2992 455.237C58.8979 454.835 58.6437 454.373 58.5367 453.831C58.423 453.303 58.3495 452.727 58.316 452.131C58.2893 451.549 58.2491 450.974 58.1956 450.405C58.1354 449.843 57.995 449.307 57.7743 448.785C57.9415 447.995 58.0886 447.206 58.2358 446.416C58.3762 445.626 58.5635 444.857 58.7842 444.087C59.0116 443.324 59.3058 442.608 59.6804 441.926C60.0415 441.25 60.5632 440.627 61.2454 440.058L66.3282 437.77C68.027 437.656 69.699 437.796 71.371 438.158C73.0296 438.526 74.5745 439.115 75.9857 439.931C77.3969 440.754 78.6542 441.758 79.7511 442.943C80.8546 444.127 81.7173 445.452 82.3393 446.925Z" fill="white"/>
<path d="M101.395 458.872C102.071 458.316 102.82 457.821 103.636 457.393C104.459 456.971 105.208 456.503 105.883 455.994C106.559 455.486 107.114 454.877 107.535 454.174C107.956 453.464 108.083 452.548 107.916 451.417C107.635 451.136 107.448 450.814 107.368 450.44C107.281 450.085 107.181 449.73 107.074 449.389C106.96 449.041 106.786 448.78 106.559 448.579C106.338 448.385 105.937 448.345 105.375 448.452C104.98 447.548 104.459 446.919 103.81 446.545C103.154 446.177 102.452 445.989 101.69 445.989C100.927 445.989 100.151 446.156 99.3623 446.464C98.5664 446.772 97.8641 447.214 97.2422 447.776C96.56 448.726 95.9447 449.837 95.3829 451.075C94.8144 452.32 94.587 453.625 94.7007 454.984C95.6638 455.994 96.6068 456.931 97.5431 457.781C98.4728 458.624 99.7569 458.999 101.395 458.872ZM113.086 448.452C113.474 449.255 113.708 450.085 113.762 450.948C113.815 451.825 113.762 452.735 113.594 453.665C113.42 454.595 113.166 455.499 112.825 456.376C112.491 457.252 112.15 458.089 111.815 458.872C111.133 460.123 110.29 461.094 109.274 461.796C108.251 462.513 107.154 463.014 105.97 463.322C104.78 463.644 103.569 463.804 102.325 463.838C101.088 463.871 99.9241 463.818 98.854 463.717C97.8909 463.376 96.8208 462.961 95.637 462.486C94.4466 462.004 93.3163 461.415 92.2395 460.739C91.1695 460.07 90.28 459.233 89.571 458.243C88.8621 457.252 88.4876 456.054 88.4274 454.642C88.0863 453.458 88.0194 452.38 88.2201 451.417C88.414 450.46 88.7417 449.556 89.1965 448.7C89.6446 447.863 90.1395 447.026 90.6812 446.203C91.2163 445.387 91.651 444.503 91.9921 443.54C92.6676 443.54 93.2896 443.392 93.858 443.111C94.4198 442.83 94.9682 442.496 95.51 442.094C96.045 441.706 96.5801 441.338 97.1151 440.99C97.6501 440.649 98.2253 440.428 98.854 440.321C100.151 440.368 101.522 440.568 102.96 440.91C104.405 441.244 105.769 441.719 107.074 442.342C108.371 442.971 109.555 443.787 110.625 444.805C111.702 445.829 112.524 447.04 113.086 448.452Z" fill="white"/>
<path d="M134.238 457.016C135.99 456.668 137.074 456.079 137.495 455.236C137.923 454.386 138.064 453.396 137.923 452.264C137.783 451.133 137.555 449.949 137.241 448.711C136.933 447.466 136.92 446.302 137.201 445.231C136.753 444.214 135.99 443.471 134.92 442.982C133.844 442.507 132.74 442.266 131.616 442.266C129.409 443.337 127.778 444.97 126.707 447.185C126.707 447.921 126.6 448.711 126.4 449.554C126.206 450.404 126.072 451.254 126.019 452.104C125.965 452.947 126.065 453.737 126.313 454.473C126.574 455.209 127.149 455.825 128.052 456.333C128.56 456.963 129.055 457.27 129.536 457.27C130.018 457.27 130.513 457.177 131.015 457.016C131.523 456.849 132.038 456.702 132.546 456.594C133.048 456.474 133.609 456.615 134.238 457.016ZM142.371 416.072C142.591 418.722 142.638 421.46 142.498 424.257C142.351 427.041 142.284 429.838 142.284 432.643C142.284 435.44 142.424 438.211 142.712 440.954C142.993 443.692 143.668 446.302 144.738 448.791C144.738 451.227 144.444 453.523 143.849 455.704C143.26 457.873 141.916 459.726 139.829 461.252C137.682 461.313 135.703 461.982 133.897 463.287C132.593 463.066 131.275 462.745 129.918 462.357C128.56 461.955 127.296 461.433 126.106 460.791C124.922 460.141 123.865 459.352 122.929 458.415C121.992 457.478 121.304 456.36 120.855 455.062C120.682 453.764 120.555 452.452 120.474 451.12C120.387 449.795 120.441 448.497 120.641 447.218C120.842 445.954 121.217 444.736 121.785 443.571C122.347 442.42 123.23 441.416 124.407 440.566C125.651 439.435 127.008 438.585 128.48 438.023C129.944 437.461 131.523 437.461 133.222 438.023C133.897 438.371 134.619 438.525 135.382 438.485C136.144 438.472 136.84 438.17 137.455 437.608C137.007 436.698 136.793 435.808 136.82 434.931C136.853 434.048 136.947 433.171 137.121 432.261C137.288 431.358 137.448 430.454 137.575 429.551C137.723 428.647 137.682 427.744 137.455 426.834L137.876 415.309C138.05 414.687 138.345 414.305 138.773 414.172C139.194 414.018 139.629 414.031 140.083 414.205C140.538 414.372 140.98 414.647 141.441 415.015C141.889 415.383 142.197 415.731 142.371 416.072Z" fill="white"/>
<path d="M181.668 440.736C180.932 442.771 180.524 445.019 180.438 447.482C180.357 449.938 180.31 452.127 180.31 454.041C180.09 454.944 180.183 455.68 180.611 456.249C181.033 456.818 181.595 457.307 182.303 457.688C183.012 458.09 183.768 458.464 184.591 458.839C185.407 459.207 186.102 459.609 186.664 460.064C187.233 460.519 187.567 461.101 187.681 461.797C187.794 462.513 187.513 463.403 186.838 464.474C185.647 464.474 184.464 464.3 183.273 463.965C182.096 463.624 180.959 463.162 179.889 462.567C178.812 461.978 177.816 461.248 176.88 460.405C175.95 459.562 175.167 458.652 174.552 457.688C174.947 456.109 175.127 454.436 175.101 452.642C175.074 450.868 175.06 449.088 175.06 447.301C175.06 445.528 175.234 443.821 175.569 442.175C175.91 440.542 176.639 439.07 177.776 437.778C179.688 437.939 180.993 438.929 181.668 440.736ZM180.732 425.993C180.799 426.555 180.591 426.983 180.143 427.258C179.688 427.546 179.321 427.88 179.046 428.275C177.97 428.275 176.953 428.235 175.99 428.155C175.034 428.061 174.218 427.572 173.536 426.662C172.86 425.873 172.713 425.11 173.114 424.38C173.509 423.644 174.044 423.028 174.719 422.513C175.234 422.741 175.809 422.894 176.458 422.975C177.107 423.062 177.742 423.202 178.364 423.356C178.986 423.53 179.508 423.825 179.929 424.206C180.357 424.608 180.625 425.203 180.732 425.993Z" fill="white"/>
<path d="M198.744 439.553C199.874 439.098 201.058 438.737 202.295 438.449C203.539 438.174 204.783 438.054 206.027 438.108C207.264 438.174 208.468 438.429 209.625 438.911C210.789 439.399 211.812 440.142 212.722 441.159C214.013 442.745 215.016 444.459 215.725 446.332C216.434 448.206 216.895 450.134 217.129 452.141C217.35 454.149 217.41 456.163 217.296 458.205C217.176 460.232 216.955 462.247 216.614 464.228C216.333 464.951 215.838 465.292 215.136 465.232C214.427 465.185 213.845 465.071 213.397 464.897C212.314 464.054 211.719 463.137 211.578 462.14C211.431 461.156 211.458 460.112 211.665 459.001C211.852 457.903 212.073 456.779 212.294 455.615C212.521 454.464 212.468 453.313 212.127 452.182C211.786 450.549 211.224 448.929 210.435 447.35C209.639 445.77 208.455 444.586 206.877 443.789C205.405 443.676 203.994 443.903 202.63 444.459C201.279 445.034 200.296 446.112 199.68 447.691C199.279 448.989 199.145 450.428 199.286 452.014C199.426 453.6 199.573 455.18 199.714 456.759C199.854 458.345 199.814 459.838 199.587 461.25C199.366 462.668 198.684 463.886 197.547 464.897C196.931 464.609 196.269 464.462 195.56 464.435C194.858 464.408 194.303 464.02 193.909 463.291L193.661 441.755C193.093 441.414 192.571 441.079 192.096 440.744C191.615 440.403 191.12 440.001 190.605 439.553C190.665 438.984 190.805 438.543 191.033 438.195C191.26 437.853 191.521 437.572 191.835 437.345C192.15 437.124 192.477 436.91 192.859 436.709C193.22 436.515 193.574 436.247 193.909 435.906C194.537 435.845 195.072 435.939 195.527 436.16C195.968 436.381 196.383 436.682 196.751 437.05C197.119 437.425 197.46 437.826 197.767 438.282C198.082 438.737 198.403 439.158 198.744 439.553Z" fill="white"/>
<path d="M259.994 440.226C259.539 440.916 259.078 441.618 258.596 442.341C258.115 443.084 258.014 443.874 258.302 444.724C259.593 444.382 260.837 443.987 262.027 443.539C263.211 443.084 264.515 442.917 265.926 443.024C266.829 442.689 267.277 442.04 267.277 441.076C266.936 440.293 266.348 439.758 265.498 439.47C264.655 439.182 263.833 438.935 263.044 438.694C262.422 438.761 261.873 438.948 261.385 439.256C260.904 439.564 260.442 439.892 259.994 440.226ZM272.781 461.167C273.517 461.394 274.313 461.622 275.156 461.843C276.012 462.077 276.513 462.612 276.687 463.462C276.453 464.533 276.186 465.51 275.878 466.427C275.564 467.324 274.841 467.913 273.718 468.207C272.701 467.913 271.698 467.812 270.708 467.866C269.725 467.913 268.749 467.973 267.785 468.033C266.829 468.087 265.879 468.046 264.95 467.906C264.02 467.765 263.131 467.364 262.281 466.674C261.492 466.052 260.649 465.463 259.74 464.901C258.837 464.339 258.008 463.723 257.238 463.074C256.476 462.425 255.801 461.689 255.205 460.872C254.617 460.056 254.229 459.079 254.055 457.948C253.667 457.432 253.373 456.857 253.172 456.214C252.978 455.558 252.751 454.916 252.497 454.3C252.243 453.685 251.915 453.116 251.52 452.607C251.126 452.099 250.53 451.704 249.741 451.416C249.286 450.793 249.106 450.258 249.193 449.81C249.28 449.355 249.46 448.92 249.741 448.491C250.022 448.07 250.383 447.675 250.805 447.307C251.226 446.939 251.58 446.524 251.861 446.082C251.975 444.837 252.169 443.579 252.457 442.314C252.737 441.036 253.132 439.831 253.64 438.694C254.149 437.576 254.811 436.559 255.627 435.649C256.449 434.752 257.479 434.043 258.723 433.534C259.853 432.965 260.944 432.731 261.98 432.818C263.03 432.898 264.06 433.159 265.077 433.621C266.093 434.069 267.083 434.618 268.04 435.274C269.003 435.923 269.926 436.492 270.835 437.014C271.852 438.245 272.494 439.738 272.741 441.464C272.995 443.184 272.815 444.777 272.193 446.249C271.738 446.925 271.183 447.434 270.541 447.775C269.892 448.11 269.17 448.378 268.381 448.531C267.592 448.712 266.782 448.819 265.966 448.873C265.144 448.94 264.375 449.04 263.632 449.214C263.238 449.562 262.803 449.823 262.321 450.017C261.833 450.218 261.345 450.419 260.837 450.613C260.335 450.814 259.867 451.034 259.439 451.289C259.017 451.543 258.636 451.925 258.302 452.433C258.302 453.397 258.456 454.3 258.763 455.15C259.078 456 259.512 456.803 260.074 457.566C260.649 458.329 261.278 459.045 261.98 459.728C262.689 460.404 263.385 461.026 264.06 461.582C264.742 462.05 265.438 462.318 266.18 462.398C266.909 462.485 267.658 462.485 268.428 462.398C269.183 462.318 269.946 462.157 270.708 461.93C271.471 461.709 272.159 461.448 272.781 461.167Z" fill="white"/>
<path d="M304.985 438.789V441.419C303.794 443.172 302.791 445.026 301.975 446.974C301.159 448.921 300.377 450.882 299.648 452.869C298.912 454.837 298.13 456.791 297.274 458.712C296.431 460.633 295.361 462.466 294.057 464.22C293.662 464.561 293.267 464.748 292.866 464.768C292.472 464.802 292.064 464.762 291.682 464.641C291.281 464.534 290.893 464.354 290.492 464.133C290.091 463.912 289.696 463.745 289.301 463.631C288.673 461.984 288.051 460.352 287.436 458.712C286.814 457.066 286.165 455.426 285.489 453.793C285.315 452.936 285.041 452.133 284.64 451.377C284.239 450.621 283.831 449.865 283.403 449.128C282.981 448.399 282.6 447.643 282.259 446.887C281.918 446.124 281.717 445.287 281.664 444.384C280.988 443.701 280.52 442.871 280.273 441.887C280.012 440.89 280.112 439.953 280.56 439.043C280.955 438.421 281.51 438.106 282.212 438.106C282.921 438.106 283.503 438.253 283.951 438.541C284.693 439.164 285.255 439.86 285.65 440.649C286.051 441.446 286.392 442.275 286.673 443.159C286.954 444.029 287.255 444.892 287.563 445.735C287.87 446.585 288.338 447.348 288.967 448.031C289.241 449.162 289.582 450.226 289.984 451.25C290.372 452.267 290.893 453.258 291.508 454.221C292.411 453.318 293.147 452.287 293.716 451.123C294.277 449.965 294.799 448.747 295.287 447.482C295.769 446.204 296.244 444.932 296.725 443.667C297.207 442.389 297.842 441.185 298.631 440.054C298.518 439.491 298.665 439.003 299.039 438.581C299.447 438.153 299.868 437.805 300.323 437.517C301.286 437.41 302.129 437.477 302.871 437.731C303.6 437.986 304.309 438.34 304.985 438.789Z" fill="white"/>
<path d="M321.391 436.586C320.936 436.928 320.468 437.309 319.993 437.731C319.512 438.152 319.097 438.607 318.756 439.083C318.428 439.564 318.214 440.086 318.134 440.649C318.047 441.217 318.174 441.78 318.502 442.348C319.191 442.121 319.813 442.094 320.368 442.268C320.936 442.435 321.491 442.603 322.033 442.77C322.568 442.944 323.09 443.044 323.638 443.071C324.167 443.098 324.722 442.857 325.283 442.348C325.685 441.78 325.732 441.164 325.451 440.481C325.17 439.805 325.029 439.129 325.029 438.447C324.755 438.34 324.481 438.139 324.227 437.851C323.973 437.57 323.725 437.309 323.464 437.048C323.21 436.794 322.916 436.6 322.575 436.459C322.24 436.319 321.839 436.359 321.391 436.586ZM330.875 447.267C329.631 447.602 328.42 447.803 327.236 447.87C326.046 447.91 324.876 447.896 323.725 447.816C322.568 447.729 321.391 447.622 320.201 447.481C319.024 447.334 317.773 447.267 316.489 447.267C315.686 448.847 315.559 450.426 316.094 452.012C316.629 453.598 317.331 455.037 318.174 456.335C318.616 457.353 319.278 458.029 320.114 458.37C320.97 458.711 321.853 458.912 322.789 458.966C323.725 459.026 324.662 459.026 325.625 458.966C326.581 458.912 327.43 458.966 328.159 459.133C328.902 459.314 329.437 459.715 329.778 460.364C330.119 461.007 330.166 462.051 329.945 463.463C328.815 464.192 327.658 464.627 326.481 464.768C325.283 464.908 324.113 464.862 322.956 464.601C321.799 464.34 320.655 463.938 319.525 463.369C318.395 462.807 317.378 462.218 316.489 461.589C315.359 461.141 314.335 460.311 313.432 459.086C312.523 457.875 311.7 456.764 310.964 455.74C309.841 451.51 309.714 447.408 310.597 443.453C311.473 439.498 313.345 436.024 316.228 433.026C317.472 431.721 318.816 430.971 320.294 430.777C321.759 430.583 323.19 430.764 324.568 431.333C325.952 431.902 327.203 432.772 328.333 433.956C329.47 435.141 330.313 436.466 330.875 437.938C330.995 438.621 331.149 439.37 331.343 440.187C331.55 441.003 331.677 441.826 331.771 442.65C331.851 443.466 331.838 444.269 331.724 445.059C331.61 445.855 331.316 446.591 330.875 447.267Z" fill="white"/>
<path d="M344.453 435.056C344.566 435.793 344.633 436.562 344.66 437.352C344.693 438.142 344.988 438.844 345.55 439.467C346.232 438.336 347.034 437.272 347.964 436.295C348.9 435.297 349.99 434.581 351.234 434.126C352.525 433.959 353.809 433.992 355.087 434.213C356.351 434.441 357.541 434.836 358.638 435.404C359.741 435.967 360.745 436.696 361.641 437.6C362.55 438.51 363.286 439.493 363.848 440.564C363.734 440.798 363.681 441.073 363.681 441.414C363.681 441.755 363.647 442.083 363.594 442.391C363.54 442.706 363.42 442.973 363.253 443.201C363.085 443.429 362.805 443.562 362.41 443.616C361.393 443.676 360.511 443.395 359.788 442.766C359.053 442.157 358.337 441.528 357.668 440.912C356.986 440.283 356.29 439.815 355.595 439.507C354.886 439.192 354.03 439.353 353.007 439.969C351.595 441.387 350.706 442.973 350.338 444.714C349.97 446.467 349.803 448.301 349.837 450.195C349.863 452.082 349.923 454.002 350.044 455.957C350.158 457.897 349.99 459.751 349.536 461.505C349.201 461.839 348.733 462 348.138 461.973C347.536 461.946 347.048 461.873 346.653 461.759C345.864 461.137 345.148 460.534 344.54 459.939C343.911 459.343 343.376 458.647 342.921 457.864C342.64 456.619 342.46 455.401 342.379 454.217C342.286 453.032 342.206 451.841 342.119 450.656C342.038 449.465 341.898 448.287 341.697 447.096C341.503 445.905 341.202 444.747 340.808 443.616C340.694 442.766 340.5 441.883 340.213 440.952C339.925 440.015 339.704 439.099 339.544 438.195C339.37 437.292 339.303 436.388 339.37 435.478C339.423 434.581 339.758 433.731 340.386 432.942C340.781 432.995 341.202 433.042 341.657 433.076C342.105 433.096 342.533 433.149 342.921 433.243C343.322 433.316 343.657 433.511 343.944 433.792C344.225 434.073 344.393 434.494 344.453 435.056Z" fill="white"/>
<path d="M394.94 437.005C394.659 440.404 394.505 443.811 394.472 447.224C394.445 450.644 394.184 453.99 393.669 457.269C393.722 459.424 393.555 461.358 393.154 463.078C392.766 464.798 392.432 466.565 392.144 468.372C391.796 469.503 391.462 470.66 391.128 471.845C390.786 473.036 390.345 474.181 389.81 475.278C389.275 476.382 388.599 477.38 387.784 478.29C386.961 479.2 385.931 479.903 384.687 480.405C384.011 481.208 383.249 481.669 382.4 481.803C381.55 481.95 380.694 481.964 379.811 481.85C378.942 481.743 378.052 481.556 377.15 481.295C376.247 481.04 375.397 480.86 374.608 480.753C374.381 480.244 374.02 479.829 373.505 479.521C373.003 479.207 372.528 478.872 372.107 478.497C371.685 478.136 371.391 477.721 371.224 477.273C371.05 476.817 371.184 476.195 371.645 475.405C372.435 474.843 373.277 474.662 374.18 474.857C375.083 475.064 375.979 475.278 376.855 475.533C377.731 475.794 378.601 475.914 379.47 475.914C380.353 475.914 381.156 475.405 381.891 474.395C382.968 473.659 383.824 472.769 384.48 471.718C385.122 470.667 385.63 469.57 385.998 468.412C386.372 467.261 386.606 466.043 386.72 464.765C386.834 463.5 386.861 462.215 386.807 460.91C384.941 459.498 383.048 458.059 381.136 456.593C379.203 455.114 377.417 453.555 375.752 451.888C374.08 450.222 372.655 448.408 371.471 446.461C370.281 444.513 369.485 442.292 369.111 439.802C368.984 439.012 369.03 438.256 369.224 437.52C369.432 436.784 369.799 436.188 370.368 435.74C371.05 435.566 371.625 435.566 372.107 435.74C372.582 435.907 373.003 436.188 373.337 436.59C373.672 436.978 373.966 437.426 374.227 437.942C374.474 438.443 374.688 438.925 374.862 439.38C375.591 442.713 377.15 445.725 379.517 448.408C381.891 451.092 384.687 453.06 387.904 454.298C388.305 453.394 388.506 452.437 388.546 451.413C388.573 450.403 388.579 449.385 388.579 448.375C388.579 447.358 388.613 446.347 388.673 445.357C388.72 444.373 388.981 443.456 389.429 442.606C389.148 442.044 388.987 441.489 388.961 440.953C388.947 440.411 388.961 439.896 389.054 439.38C389.134 438.872 389.228 438.35 389.349 437.808C389.462 437.272 389.489 436.73 389.429 436.161C389.429 435.767 389.529 435.492 389.73 435.358C389.924 435.211 390.164 435.097 390.445 435.017C390.733 434.923 391.014 434.863 391.295 434.81C391.576 434.749 391.796 434.636 391.977 434.468C392.706 434.582 393.335 434.85 393.883 435.271C394.418 435.693 394.772 436.275 394.94 437.005Z" fill="white"/>
<path d="M445.211 435.821C445.773 436.444 446.1 437.234 446.181 438.191C446.267 439.161 446.14 440.031 445.806 440.827C445.518 441.215 445.137 441.376 444.656 441.289C444.174 441.209 443.766 441.108 443.425 440.988C442.629 440.767 442.034 440.359 441.606 439.763C441.185 439.174 440.777 438.585 440.375 438.023C439.987 437.461 439.539 436.952 439.064 436.504C438.583 436.042 437.894 435.821 436.991 435.821C436.028 435.534 435.152 435.668 434.369 436.203C433.574 436.745 432.952 437.434 432.504 438.284C432.504 438.619 432.463 438.96 432.37 439.301C432.283 439.636 432.229 439.991 432.209 440.359C432.183 440.72 432.209 441.075 432.283 441.416C432.37 441.758 432.611 442.045 433.012 442.266C433.861 443.002 434.811 443.544 435.881 443.919C436.958 444.287 438.008 444.669 439.018 445.064C440.041 445.452 440.971 445.987 441.813 446.63C442.663 447.279 443.285 448.249 443.679 449.561C444.415 451.983 444.388 454.386 443.599 456.762C442.81 459.131 441.399 461.165 439.359 462.865C438.737 463.488 437.968 463.809 437.031 463.836C436.102 463.862 435.266 463.876 434.537 463.876C433.861 463.314 433.105 462.905 432.283 462.651C431.467 462.397 430.651 462.116 429.835 461.801C429.012 461.493 428.27 461.112 427.588 460.657C426.906 460.208 426.371 459.499 425.976 458.542C425.234 457.692 424.592 456.775 424.03 455.778C423.468 454.794 423.401 453.737 423.849 452.606C424.083 452.104 424.384 451.789 424.745 451.669C425.113 451.562 425.501 451.535 425.889 451.589C426.29 451.642 426.692 451.749 427.12 451.883C427.541 452.03 427.922 452.124 428.27 452.178C428.611 452.693 428.972 453.302 429.367 454.005C429.761 454.707 430.203 455.363 430.678 455.959C431.153 456.554 431.701 457.043 432.33 457.438C432.952 457.826 433.681 458 434.537 457.946C435.326 458.114 435.975 457.873 436.483 457.224C436.991 456.581 437.466 456.032 437.921 455.571C437.921 454.781 438.041 453.991 438.262 453.208C438.489 452.412 438.376 451.622 437.921 450.832C436.911 450.036 435.734 449.313 434.403 448.664C433.085 448.015 431.841 447.299 430.678 446.502C429.521 445.719 428.564 444.796 427.795 443.752C427.033 442.701 426.678 441.389 426.738 439.81C426.966 439.127 427.133 438.425 427.247 437.682C427.36 436.952 427.508 436.23 427.668 435.52C427.835 434.824 428.076 434.142 428.39 433.486C428.698 432.843 429.22 432.288 429.962 431.84C430.638 431.043 431.347 430.581 432.076 430.434C432.811 430.3 433.56 430.3 434.323 430.434C435.085 430.581 435.874 430.749 436.697 430.943C437.513 431.15 438.315 431.157 439.111 430.983C440.409 431.271 441.552 431.893 442.542 432.863C443.525 433.814 444.415 434.811 445.211 435.821Z" fill="white"/>
<path d="M465.875 444.043C465.534 444.545 465.053 444.973 464.437 445.308C463.815 445.656 463.247 445.99 462.739 446.338C462.237 446.68 461.862 447.095 461.642 447.603C461.408 448.112 461.562 448.795 462.07 449.631C462.739 449.363 463.488 449.176 464.31 449.089C465.133 448.995 465.922 448.895 466.685 448.748C467.44 448.614 468.163 448.366 468.838 448.032C469.52 447.69 470.082 447.121 470.53 446.338C470.082 445.549 469.447 444.906 468.631 444.431C467.808 443.943 466.885 443.822 465.875 444.043ZM461.381 453.881C460.933 454.041 460.712 454.309 460.712 454.684V455.909C461.669 457.381 462.879 458.157 464.357 458.244C465.815 458.324 467.226 458.318 468.584 458.197C469.152 457.809 469.687 457.649 470.196 457.736C470.704 457.823 471.272 457.976 471.888 458.197C472.45 458.652 472.898 459.161 473.205 459.73C473.513 460.292 473.613 460.961 473.5 461.758C472.938 462.38 472.329 462.782 471.674 462.949C471.032 463.123 470.363 463.183 469.687 463.156C469.012 463.136 468.316 463.096 467.614 463.036C466.899 462.969 466.25 463.002 465.621 463.123C464.939 462.949 464.25 462.855 463.541 462.822C462.839 462.788 462.143 462.748 461.475 462.701C460.792 462.634 460.157 462.48 459.568 462.226C458.967 461.979 458.478 461.503 458.084 460.827C456.786 459.931 455.897 458.846 455.422 457.608C454.934 456.364 454.68 455.079 454.646 453.747C454.619 452.422 454.746 451.07 455.027 449.685C455.315 448.299 455.576 446.961 455.796 445.656C456.131 444.585 456.653 443.668 457.361 442.899C458.07 442.136 458.853 441.473 459.736 440.911C460.605 440.342 461.541 439.847 462.531 439.425C463.521 438.997 464.464 438.562 465.367 438.107C466.384 438.281 467.427 438.508 468.51 438.79C469.58 439.071 470.59 439.445 471.553 439.934C472.503 440.409 473.386 441.018 474.182 441.754C474.964 442.49 475.613 443.36 476.128 444.384C476.128 446.131 475.787 447.797 475.111 449.383C474.429 450.97 473.359 452.127 471.888 452.864C470.992 452.971 470.115 453.138 469.266 453.372C468.417 453.6 467.554 453.794 466.685 453.961C465.795 454.135 464.926 454.222 464.056 454.256C463.18 454.282 462.291 454.169 461.381 453.881Z" fill="white"/>
<path d="M489.721 439.553C490.844 439.098 492.041 438.737 493.279 438.449C494.516 438.174 495.76 438.054 497.004 438.108C498.241 438.174 499.445 438.429 500.602 438.911C501.766 439.399 502.789 440.142 503.699 441.159C504.989 442.745 505.999 444.459 506.701 446.332C507.41 448.206 507.872 450.134 508.099 452.141C508.32 454.149 508.387 456.163 508.266 458.205C508.159 460.232 507.939 462.247 507.591 464.228C507.31 464.951 506.815 465.292 506.113 465.232C505.404 465.185 504.829 465.071 504.374 464.897C503.304 464.054 502.689 463.137 502.555 462.14C502.414 461.156 502.435 460.112 502.635 459.001C502.836 457.903 503.05 456.779 503.271 455.615C503.498 454.464 503.444 453.313 503.097 452.182C502.762 450.549 502.2 448.929 501.411 447.35C500.615 445.77 499.432 444.586 497.853 443.789C496.382 443.676 494.971 443.903 493.613 444.459C492.262 445.034 491.272 446.112 490.65 447.691C490.262 448.989 490.129 450.428 490.269 452.014C490.416 453.6 490.55 455.18 490.697 456.759C490.831 458.345 490.791 459.838 490.563 461.25C490.343 462.668 489.66 463.886 488.53 464.897C487.915 464.609 487.246 464.462 486.537 464.435C485.835 464.408 485.286 464.02 484.885 463.291L484.638 441.755C484.069 441.414 483.548 441.079 483.073 440.744C482.591 440.403 482.09 440.001 481.588 439.553C481.642 438.984 481.782 438.543 482.016 438.195C482.237 437.853 482.504 437.572 482.819 437.345C483.126 437.124 483.474 436.91 483.828 436.709C484.196 436.515 484.557 436.247 484.885 435.906C485.514 435.845 486.042 435.939 486.504 436.16C486.952 436.381 487.353 436.682 487.728 437.05C488.095 437.425 488.437 437.826 488.744 438.282C489.052 438.737 489.38 439.158 489.721 439.553Z" fill="white"/>
<path d="M534.859 437.599L534.605 440.396C534.036 440.798 533.521 440.878 533.08 440.651C532.625 440.43 532.177 440.162 531.722 439.854C531.267 439.54 530.806 439.285 530.324 439.091C529.843 438.884 529.294 439.011 528.672 439.466C527.769 440.256 526.994 441.086 526.345 441.969C525.689 442.846 525.281 443.87 525.108 445.054C525.843 445.63 526.693 446.118 527.656 446.547C528.612 446.968 529.555 447.41 530.491 447.858C531.428 448.32 532.284 448.875 533.08 449.558C533.869 450.234 534.457 451.111 534.859 452.181C535.2 454.33 535.039 456.444 534.397 458.539C533.742 460.627 532.598 462.414 530.96 463.88C529.662 464.388 528.371 464.629 527.107 464.596C525.83 464.569 524.613 464.375 523.422 464.007C522.232 463.645 521.068 463.144 519.951 462.528C518.821 461.899 517.744 461.25 516.728 460.58C516.386 459.891 516.079 459.148 515.791 458.332C515.51 457.515 515.49 456.732 515.718 455.996C515.938 455.487 516.206 455.16 516.52 455.026C516.835 454.878 517.162 454.838 517.483 454.892C517.831 454.952 518.179 455.046 518.553 455.186C518.915 455.327 519.269 455.434 519.61 455.487C520.74 456.793 521.884 457.763 523.034 458.405C524.191 459.055 525.676 459.162 527.489 458.707C528.11 457.917 528.612 457.141 529.007 456.378C529.408 455.621 529.662 454.751 529.769 453.794C529.381 452.824 528.826 452.168 528.124 451.8C527.415 451.432 526.653 451.151 525.83 450.95C525.014 450.756 524.191 450.549 523.382 450.314C522.559 450.093 521.837 449.638 521.215 448.962C520.145 447.263 519.67 445.596 519.777 443.95C519.898 442.324 520.279 440.597 520.968 438.797C521.697 438.107 522.459 437.351 523.255 436.501C524.044 435.651 524.86 434.955 525.71 434.42C526.559 433.885 527.468 433.57 528.458 433.49C529.441 433.409 530.511 433.791 531.642 434.641C532.317 434.748 532.933 435.116 533.501 435.738C534.063 436.367 534.511 436.976 534.859 437.599Z" fill="white"/>
<path d="M553.61 440.226C553.162 440.916 552.687 441.618 552.212 442.341C551.731 443.084 551.63 443.874 551.911 444.724C553.215 444.382 554.453 443.987 555.643 443.539C556.82 443.084 558.124 442.917 559.542 443.024C560.438 442.689 560.9 442.04 560.9 441.076C560.559 440.293 559.963 439.758 559.114 439.47C558.265 439.182 557.449 438.935 556.66 438.694C556.038 438.761 555.476 438.948 555.001 439.256C554.526 439.564 554.051 439.892 553.61 440.226ZM566.391 461.167C567.133 461.394 567.929 461.622 568.772 461.843C569.621 462.077 570.129 462.612 570.296 463.462C570.069 464.533 569.808 465.51 569.494 466.427C569.18 467.324 568.457 467.913 567.334 468.207C566.31 467.913 565.307 467.812 564.317 467.866C563.334 467.913 562.364 467.973 561.401 468.033C560.438 468.087 559.495 468.046 558.566 467.906C557.629 467.765 556.74 467.364 555.897 466.674C555.108 466.052 554.265 465.463 553.356 464.901C552.446 464.339 551.617 463.723 550.854 463.074C550.092 462.425 549.416 461.689 548.821 460.872C548.226 460.056 547.851 459.079 547.671 457.948C547.29 457.432 546.989 456.857 546.788 456.214C546.587 455.558 546.367 454.916 546.113 454.3C545.858 453.685 545.531 453.116 545.136 452.607C544.742 452.099 544.146 451.704 543.357 451.416C542.902 450.793 542.722 450.258 542.802 449.81C542.896 449.355 543.07 448.92 543.357 448.491C543.645 448.07 543.999 447.675 544.421 447.307C544.835 446.939 545.196 446.524 545.477 446.082C545.591 444.837 545.785 443.579 546.066 442.314C546.353 441.036 546.748 439.831 547.263 438.694C547.765 437.576 548.427 436.559 549.249 435.649C550.065 434.752 551.095 434.043 552.339 433.534C553.463 432.965 554.56 432.731 555.596 432.818C556.646 432.898 557.669 433.159 558.693 433.621C559.709 434.069 560.692 434.618 561.656 435.274C562.619 435.923 563.542 436.492 564.451 437.014C565.468 438.245 566.096 439.738 566.357 441.464C566.605 443.184 566.431 444.777 565.802 446.249C565.354 446.925 564.806 447.434 564.157 447.775C563.501 448.11 562.786 448.378 561.997 448.531C561.201 448.712 560.398 448.819 559.576 448.873C558.76 448.94 557.984 449.04 557.248 449.214C556.854 449.562 556.412 449.823 555.944 450.017C555.449 450.218 554.954 450.419 554.453 450.613C553.951 450.814 553.483 451.034 553.061 451.289C552.633 451.543 552.259 451.925 551.911 452.433C551.911 453.397 552.065 454.3 552.379 455.15C552.687 456 553.128 456.803 553.697 457.566C554.265 458.329 554.894 459.045 555.596 459.728C556.298 460.404 557.001 461.026 557.669 461.582C558.352 462.05 559.061 462.318 559.79 462.398C560.525 462.485 561.268 462.485 562.043 462.398C562.799 462.318 563.562 462.157 564.317 461.93C565.086 461.709 565.775 461.448 566.391 461.167Z" fill="white"/>
<path d="M408.898 390.212C438.546 391.604 458.858 392.199 487.817 390.727C520.829 389.041 527.109 390.305 541.434 386.611C560.455 381.685 591.534 378.707 575.537 283.917C575.517 283.769 570.352 244.435 569.905 160.47C569.53 91.6801 571.764 75.3568 572.299 59.9645C573.162 35.0959 570.668 28.1891 562.508 18.4117C554.443 8.72127 544.892 0.529858 526.982 1.61388C475.438 4.71913 462.282 6.00403 434.774 7.75743C375.659 11.5051 353.602 1.75392 278.001 2.63731C184.042 3.72816 212.13 4.89924 190.128 6.36485C168.024 7.84386 140.482 3.3399 117.803 4.45079C110.654 4.7921 26.3926 -11.0415 12.2935 15.4127C-4.16563 46.3046 5.67846 82.0293 3.4781 123.013C1.51184 159.68 -0.554678 143.92 0.214432 179.563C1.15744 222.749 4.30143 261.082 3.07088 283.79C1.21831 317.987 -2.31321 327.13 3.36482 359.48C6.18715 375.555 12.1862 385.119 32.5777 386.31C32.5777 386.31 111.089 381.204 138.958 383.834C178.55 387.575 159.135 384.007 194.488 383.646C245.524 383.117 239.204 379.216 265.802 378.593C330.04 377.135 376.655 388.706 408.898 390.212ZM240.886 224.394C239.308 227.399 235.489 229.836 232.085 228.43C229.978 227.554 228.755 225.432 228.059 223.378C227.183 220.901 224.862 199.586 224.869 193.329C224.875 190.284 224.828 184.348 224.982 181.323C225.223 175.032 224.555 168.768 224.441 162.504C224.367 159.485 224.561 153.067 224.561 150.036C224.561 146.288 224.441 143.678 224.481 140.593C224.521 137.783 224.535 122.651 224.347 119.773C224.147 116.614 224.06 112.886 224.12 109.748C224.24 104.581 223.391 99.2408 227.952 95.4195C231.751 92.8296 236.205 95.0313 237.289 100.01C237.703 101.924 237.93 104.267 237.963 106.194C237.977 108.844 237.529 125.448 237.743 126.472C238.264 129.056 237.93 154.258 238.177 160.261C238.298 163.199 238.258 176.296 238.332 178.933C238.659 189.782 239.228 197.893 239.583 200.476C239.937 203.247 240.492 206.599 240.954 209.383C241.442 212.154 241.829 214.945 241.896 217.769C241.943 220.004 241.956 222.366 240.886 224.394ZM190.795 211.327C187.445 211.608 183.746 211.052 182.141 207.11C179.118 199.802 180.563 190.807 180.924 183.54C181.199 178.206 181.319 174.766 182.215 167.759C182.396 166.354 183.005 148.305 183.199 146.953C183.42 145.474 183.493 144.001 183.573 142.522C183.653 141.176 184.409 133.568 184.242 131.473C184.041 128.756 184.168 123.242 183.653 120.424C182.944 116.503 182.917 107.167 183.031 106.029C183.231 104.055 185.232 101.505 187.332 100.976C187.362 100.966 193.351 98.9908 196.073 105.119C197.524 108.424 197.457 110.7 197.597 112.018C197.764 113.604 197.605 119.374 197.765 120.652C197.939 121.81 197.764 129.304 197.731 130.235C197.37 139.711 196.922 148.82 196.975 150.112C197.009 151.505 196.922 156.978 196.742 158.337C196.387 161.415 196.601 164.493 196.735 167.551C196.849 170.71 196.36 173.709 196.153 176.861C195.752 182.844 195.912 186.358 196.334 191.163C196.768 196.309 196.922 202.024 195.164 206.983C194.488 208.89 193.21 211.126 190.795 211.327ZM352.337 138.281C349.876 143.347 345.864 142.416 342.654 141.272C338.601 139.853 339.618 134.666 340.501 131.474C341.898 126.475 344.546 121.938 346.639 117.2C347.676 114.884 348.586 112.468 349.121 109.965C349.555 107.871 349.416 105.77 350.961 104.11C352.178 102.805 354.016 102.049 355.789 102.142C357.915 102.276 359.581 103.808 360.625 105.548C361.688 107.235 361.828 109.209 361.554 111.17C361.461 112.173 361.246 113.191 361.045 114.188L360.411 117.153C360.05 118.511 359.293 120.158 359.24 120.814C359.058 122.884 352.337 138.281 352.337 138.281ZM103.197 223.572C101.498 224.837 99.1508 226.155 96.9908 225.84C94.7503 225.533 93.6066 224.367 91.5133 223.665C89.3196 222.942 86.1222 222.42 83.8082 222.855C79.5751 223.645 77.0674 223.056 74.9742 221.048C73.7838 219.884 73.128 218.158 72.7935 216.518C72.399 214.644 73.2282 213.011 74.5455 211.74C76.2041 210.094 78.5117 208.996 80.7789 208.414C82.5913 207.912 84.5446 207.998 86.4039 207.804C88.1093 207.617 90.0085 207.362 91.025 205.83C92.222 204.03 92.2222 201.694 92.0885 199.613C91.9681 197.518 91.9348 190.358 91.9615 188.879C91.9949 186.155 91.8611 181.818 88.7047 180.84C87.8352 180.579 86.9114 180.58 86.0152 180.46C85.0456 180.312 84.0559 180.111 83.1197 179.803C81.5347 179.301 80.0497 178.505 79.0064 177.207C76.7328 174.396 76.0976 169.056 79.481 166.901C80.8654 165.991 81.8624 165.475 84.0826 165.408C85.8816 165.348 87.8614 165.575 89.5133 164.873C90.1018 164.625 90.7238 164.324 91.1451 163.829C91.7335 163.18 91.4531 161.012 91.5533 160.169C91.9078 157.498 91.9075 144.06 90.7037 137.481C90.0951 134.148 86.3028 135.206 83.3668 135.079C79.7757 134.924 78.8061 128.266 79.3277 126.238C80.1971 122.705 88.3485 121.52 90.3424 121.58C90.2754 117.932 89.4939 113.255 92.1021 110.23C93.2658 108.878 94.7504 107.968 96.6832 108.269C98.5691 108.55 100.275 108.644 101.853 111.474C102.689 113.977 103.438 117.905 106.059 119.257C107.31 119.9 108.835 119.833 110.172 119.659C112.694 119.304 123.529 117.411 126.499 117.016C129.107 116.655 131.608 116.019 134.156 115.377C137.821 114.399 142.068 113.777 145.733 114.988C148.676 115.958 151.297 119.178 150.896 122.417C150.582 124.96 148.047 126.258 145.88 127.014C143.132 127.991 140.195 128.379 137.326 128.835C133.5 129.424 114.593 131.805 109.022 132.95C104.468 133.88 103.646 137.153 103.666 138.224C103.712 141.57 104.04 144.903 104.321 148.229C104.508 150.438 104.508 152.532 104.408 154.741C104.321 156.467 104.253 158.194 104.253 159.941C104.253 161.152 104.167 162.584 104.561 163.742C104.735 164.297 105.424 164.492 105.899 164.672C107.029 165.128 108.254 165.348 109.451 165.508C111.845 165.763 114.246 165.649 116.607 165.261C121.683 164.431 127.02 162.571 132.156 164.164C135.573 165.241 140.228 168.48 138.837 172.656C137.767 175.895 134.048 177.81 130.872 178.238C128.943 178.506 113.563 178.459 110.828 178.639C108.835 178.773 106.267 179.181 105.558 181.396C105.17 182.614 103.86 203.48 105.304 205.83C106.274 207.416 108.347 207.637 110.039 207.717C115.59 207.958 121.094 207.878 126.638 207.497C129.695 207.269 141.647 206.767 144.589 206.68C147.178 206.66 149.833 206.379 152.267 205.442C154.153 204.739 155.986 203.822 157.932 203.367C159.805 202.939 161.757 203.046 163.235 204.391C164.807 205.81 165.669 208.058 165.616 210.153C165.609 212.1 164.733 213.901 163.469 215.346C160.594 218.652 155.492 219.094 154.173 219.435C152.776 219.783 144.883 220.62 141.298 220.894C138.803 221.088 128.218 221.497 125.214 221.698C122.573 221.845 110.342 222.126 108.836 222.012C107.725 221.932 106.695 221.604 105.659 222.019C104.763 222.394 103.973 222.983 103.197 223.572ZM445.068 291.655C443.236 291.541 441.403 291.441 439.55 291.321V290.953C438.427 290.846 437.269 290.718 436.139 290.618V290.277H435.43V289.942C434.641 289.815 433.839 289.708 433.016 289.581V289.246C431.511 288.824 430.955 289.982 429.578 289.246C429.13 288.67 428.676 288.108 428.208 287.519C427.532 286.957 426.836 286.382 426.147 285.82L425.799 285.117C425.151 284.642 425.311 285.264 424.79 284.427H424.081C423.833 283.584 423.913 283.879 423.405 283.397V283.062H422.703L422.014 282.018H421.667V281.336C419.955 279.837 418.235 278.345 416.53 276.859L416.175 275.821L415.145 275.138V274.784H414.463L414.123 274.101C412.785 273.265 411.875 273.867 411.36 272.04C408.438 271.437 409.648 269.798 408.611 267.556H408.277V266.88C407.361 266.077 406.431 265.274 405.508 264.464V263.796H405.173L404.833 262.417H404.499V261.045H404.157V260.355H403.795L403.455 259.311C402.03 258.93 401.71 258.06 401.054 256.902H400.686V256.213H400.365V255.182H400.01V254.486H399.67V253.463H399.322V252.773H398.981V251.749H398.632V250.357L397.944 250.008C397.723 249.333 397.489 248.637 397.261 247.941L396.573 247.599V246.569H396.245V245.546H395.891L395.549 244.16H395.202V243.47L394.185 242.788V238.659H393.837V237.294H393.483V236.256H393.135C393.269 234.443 393.356 232.582 393.483 230.749H393.135V229.711H392.795V222.483H392.44V221.794H392.098C392.219 220.636 392.333 219.485 392.44 218.354C392.434 218.247 392.396 218.133 392.37 218.019C390.672 218.646 388.906 219.093 387.208 219.798C383.295 221.411 370.053 221.973 364.856 215.715C363.505 214.089 362.175 212.477 361.185 210.61C360.182 208.703 359.305 206.681 358.409 204.707C357.499 202.672 356.885 200.451 357.112 198.175C357.527 194.013 359.954 190.653 363.879 190.298C368.033 189.917 370.2 192.768 371.11 194.213C372.909 197.084 370.535 200.946 372.334 203.803C372.909 204.68 374.133 205.203 375.069 205.557C376.266 206.066 377.544 206.247 378.841 206.153C381.363 205.952 383.683 205.483 385.923 204.406C387.796 203.509 389.582 202.384 391.615 200.972C392.859 200.082 394.11 198.992 394.906 197.613C396.912 194.146 394.156 189.382 391.662 186.986C385.328 180.896 376.413 180.153 369.605 174.451C366.462 171.814 361.525 165.021 362.957 157.057C363.559 153.711 365.258 150.599 366.917 147.641C367.605 146.39 368.501 145.286 369.378 144.115C373.751 138.172 380.56 135.435 386.104 136.151C389.281 136.559 392.591 137.248 395.581 138.385C397.768 139.202 400.022 140.112 401.921 141.531C408.956 146.79 407.465 153.497 407.453 153.55C407.125 154.976 406.516 156.448 405.432 157.472C404.255 158.53 402.61 158.597 401.159 158.255C397.601 157.419 395.3 154.039 392.545 151.931C391.1 150.854 389.381 149.923 387.529 149.856C385.737 149.756 383.958 150.6 382.593 151.664C379.684 153.819 376.894 157.76 377.396 161.528C377.871 165.075 382.446 166.835 385.275 168.153C388.987 169.866 392.592 171.76 396.223 173.674C400.122 175.687 403.392 178.272 405.797 181.836C405.82 181.735 405.841 181.634 405.856 181.533H406.217L406.538 180.496C408.504 179.974 411.08 177.678 412.397 176.373L413.426 175.001L414.811 174.646C415.714 173.609 416.624 172.592 417.553 171.554H418.235L418.918 170.531H419.613V170.163H420.302V169.835H421.338L421.667 169.125H422.355L423.038 168.115H423.74V167.754L424.79 167.064L425.118 166.381C425.9 165.88 426.897 166.368 427.886 166.027V165.699H428.91V165.338C430.04 165.251 431.197 165.11 432.34 165.009V164.662H434.38V164.32H435.43V163.979H436.487V163.63H438.534V163.283H439.215L439.55 162.587H440.253V162.258C441.349 161.837 443.469 162.433 444.024 162.587H448.839V162.948H450.217V163.283H451.929V163.63H453.99V163.283C454.217 162.989 454.431 163.296 454.357 162.587H453.99V161.214H453.655C453.541 160.191 453.435 159.153 453.321 158.13L452.631 157.775V154.683H452.291C452.07 154.001 451.849 153.311 451.595 152.608H451.248V151.939H450.913V151.243H450.565V148.151C450.311 147.321 449.107 145.816 449.548 144.35H449.877V143.326H450.217V141.613H450.565V140.588L451.595 139.886V139.197L452.291 138.855L453.321 137.477H453.99V137.149C454.705 136.754 454.779 137.135 455.401 136.46C456.845 136.413 458.109 136.413 458.818 137.149C460.704 137.617 461.373 139.492 461.908 141.265V143.674H462.249V145.401H462.597V146.766H462.938V149.865H463.299V150.895H463.64C463.961 151.852 463.533 152.575 463.974 153.311L464.67 153.659V154.341L465.359 154.683V155.379H465.707V156.075H466.047V157.086H466.389C466.503 158.464 466.616 159.829 466.75 161.214C467.412 161.803 468.101 162.372 468.79 162.948C468.91 163.517 469.024 164.093 469.151 164.662C469.465 165.137 469.994 164.876 470.515 165.699H471.893L472.917 164.32C473.719 163.631 474.535 162.948 475.311 162.258V161.569L476.688 160.532V159.83H477.043C477.377 159.254 477.992 157.018 478.42 156.751H479.103C479.297 155.968 479.391 155.9 479.798 155.379H480.132L480.487 154.001C481.283 153.311 482.093 152.608 482.895 151.939H483.924V151.591H484.593V151.243L485.637 150.895C485.838 150.132 485.938 150.052 486.333 149.516H486.687V148.827C487.255 147.749 487.724 146.766 489.088 146.412C489.43 144.652 490.091 143.888 490.8 142.636C492.559 142.663 494.733 142.757 495.95 142.289C496.391 142.991 497.2 143.326 498.016 143.674C498.705 145.628 499.387 147.569 500.089 149.516H499.742C499.615 150.326 499.521 151.136 499.387 151.939L498.706 152.26V152.976L497.341 154.001V154.683L496.645 155.031V155.7L495.95 156.075V156.751H495.616V157.44H495.274V158.464H494.933L494.238 159.508L493.201 159.83V160.532L491.83 161.569V162.258H491.496L490.8 163.283H490.118L489.77 163.979H489.088L488.385 165.009V165.699C487.53 165.953 487.837 165.88 487.369 166.381H487.021V167.064L486.333 167.412L485.999 168.456H485.295C485.048 169.446 484.921 169.6 483.924 169.835C483.777 171.334 483.109 171.923 482.541 172.94V173.609L481.845 173.957V175.001H481.51V177.069H481.845C482.702 177.677 485.69 176.253 487.369 176.708V177.069H492.158V177.404H497.341V177.745H499.742C500.939 177.638 503.601 176.835 505.247 177.404V177.745H505.935V178.08H512.803V178.441H513.151V178.08H514.864V178.441C517.599 178.508 517.639 180.174 519.337 181.205V183.949H519.685C519.571 185.307 519.438 186.686 519.337 188.071C518.047 189.155 517.492 190.714 515.559 191.17C515.158 191.531 508.718 191.853 507.661 191.511V191.17H506.617L506.276 190.487H504.905C503.975 190.929 503.059 191.397 502.143 191.852V192.207H500.089C500.036 195.887 501.347 194.803 503.521 195.995V196.337H504.216V196.664L505.247 197.38C505.12 198.384 505.012 199.435 504.905 200.445H505.247C505.36 201.141 505.467 201.818 505.581 202.527H505.935V203.222H506.276C506.383 204.126 506.49 205.05 506.617 205.966H506.971C507.179 206.656 507.407 207.332 507.661 208.021H507.988C508.115 208.958 508.222 209.861 508.342 210.785L509.032 211.127C509.132 212.846 509.259 214.559 509.379 216.286H509.713V218.682H510.042V219.719H510.41V221.453H510.73V222.483H511.091C511.432 223.614 510.984 226.546 510.73 227.289H510.41V231.779H510.042V236.945H509.713C509.586 237.621 509.493 238.324 509.379 239H509.032L508.684 240.379H508.342C508.115 241.396 507.868 242.433 507.661 243.47C507.065 243.945 506.49 244.408 505.935 244.849C505.815 245.411 505.701 246 505.581 246.569H505.247V247.252L504.557 247.599C504.43 248.289 504.323 248.992 504.216 249.668H503.869V250.357H503.521L502.825 251.38H501.454C501.253 252.331 500.96 252.86 500.431 253.463L499.742 253.796C499.28 255.061 498.813 256.333 498.351 257.591C496.111 258.227 496.96 259.967 495.616 261.366L494.238 262.417L493.883 263.092H493.201L492.526 264.13C491.61 264.926 490.68 265.729 489.77 266.532L489.429 267.556L488.385 267.904L487.697 268.948H487.369V269.965L486.333 270.648L485.999 272.04L484.968 272.729V273.071H484.266V273.405H483.577C482.767 274.335 481.965 275.259 481.163 276.156H480.487V276.51L479.103 276.859V277.207C478.08 277.548 477.043 277.902 476.006 278.237V278.579L474.635 278.926L474.3 279.602L472.917 279.977L472.555 280.633H471.893L471.539 281.336H470.856V281.677C469.933 281.898 469.024 282.139 468.101 282.353C467.64 282.949 467.198 283.504 466.75 284.08H466.047V284.427H464.998V284.776L463.64 285.117V285.478C462.737 285.585 461.794 285.693 460.891 285.82V286.147H460.196V286.489C459.507 286.736 458.818 286.957 458.123 287.171V287.519C456.651 287.653 455.153 287.761 453.655 287.868V288.209C452.979 288.443 452.291 288.671 451.595 288.905V289.246H450.913L450.565 289.942H449.877V290.277H447.823V290.618H447.128V290.953C446.445 291.08 445.757 291.2 445.068 291.321V291.655ZM322.753 217.846C318.552 219.058 315.221 215.893 313.904 212.185C313.228 210.238 313.101 208.116 312.305 206.209C311.904 205.131 310.828 204.081 310.079 205.104C307.979 207.935 303.504 212.727 294.201 212.42C291.338 212.339 288.389 211.864 285.587 211.348C279.253 210.17 271.475 207.788 265.603 201.832C263.871 200.052 262.353 198.004 261.083 195.882C258.434 191.352 257.036 186.158 257.103 180.898C257.203 175.424 258.948 170.431 261.436 165.613C262.613 163.311 263.784 160.995 265.209 158.827C266.693 156.511 268.505 154.484 270.311 152.422C272.137 150.375 273.984 148.327 276.003 146.466C277.488 145.128 279.24 143.789 280.959 142.705C285.092 140.075 292.723 135.892 304.019 139.366C305.15 139.727 309.035 142.411 309.898 143.107C310.62 143.723 311.59 144.813 312.593 144.867C314.205 144.96 315.469 142.765 316.599 141.902C318.799 140.182 323.756 141.574 325.046 143.976C328.19 149.819 327.132 167.433 326.999 170.445C326.858 173.57 327.079 176.655 327.139 179.767C327.28 186.098 326.397 192.563 326.625 198.887C326.732 202.782 327.407 206.711 327.052 210.626C326.792 213.443 325.842 216.983 322.753 217.846ZM287.293 197.984C293.626 199.396 300.895 196.498 302.982 192.53C304.199 190.221 305.277 187.865 306.193 185.469C308.092 180.497 308.741 174.106 308.668 168.732C308.654 166.323 307.871 164.094 306.821 161.885C304.105 156.097 295.712 154.436 289.874 155.588C281.935 157.154 274.866 168.571 273.421 172.734C272.104 176.488 272.07 181.273 272.966 185.315C273.689 188.534 275.983 190.984 278.458 193.166C280.899 195.334 284.016 197.248 287.293 197.984ZM435.095 277.903C435.724 278.418 439.356 278.578 440.593 278.237V277.903H443.001V277.547H444.72V277.207H446.097V276.859H447.128V276.51H447.823V276.156H448.839V275.821C450.458 275.473 452.07 275.138 453.655 274.784V274.456H454.357L454.678 273.767L456.083 273.405L456.404 272.729C457.675 272.502 458.932 272.267 460.196 272.04L460.53 271.351H461.219V271.023C462.142 270.896 463.058 270.768 463.974 270.648C464.783 270.093 465.573 269.51 466.389 268.948V268.246C467.292 268.052 468.315 267.616 469.151 267.221V266.88C469.706 266.773 470.294 266.652 470.856 266.532L471.539 265.515H472.227V265.161C472.856 264.659 473.331 264.337 474.3 264.13C474.541 263.179 474.368 263.347 475.311 263.092C475.666 261.714 476.776 260.456 477.725 259.639V259.311H478.42L478.768 258.609H479.444L480.132 257.591H480.835L481.51 256.213C481.978 255.691 483.196 255.296 483.577 254.84L483.924 253.796H484.593L484.968 253.114H485.637V252.773L486.687 252.084C486.901 250.939 487.141 249.788 487.369 248.637C488.071 248.062 488.734 247.506 489.429 246.911C489.77 245.546 490.118 244.16 490.453 242.788L491.148 242.433V241.77L492.158 241.068V240.379L492.846 240.05V239L493.548 238.659L493.883 237.294L494.586 236.945V236.256L495.616 235.553V234.878L496.291 234.53V233.499H496.645V232.816H497C497.695 230.902 496.352 229.049 497.696 227.643V224.892C496.88 224.216 496.063 223.528 495.274 222.832V218.354H494.933C494.808 217.703 495.259 217.672 495.274 217.671C495.147 216.627 495.047 215.59 494.933 214.559H494.586V213.897L493.883 213.543V212.846L492.846 212.171V211.474H492.526V209.4H492.158V208.717H491.83V207.332H491.496V205.297H491.148V204.582H490.8L490.453 203.222C489.657 202.526 488.841 201.817 488.072 201.141V200.445H487.697L487.021 199.435H486.333L485.999 198.746H485.295L484.593 197.709L483.577 197.38L483.243 196.664H482.541L482.212 195.995L480.835 195.62V195.286C479.845 194.496 479.31 193.8 478.768 192.562H478.08V191.852C476.006 191.511 473.946 191.17 471.893 190.829V191.17L470.515 191.511L470.161 192.207H469.465V192.562H468.101V192.883H466.389V192.562C465.814 192.435 465.232 192.334 464.67 192.207L463.974 191.17H463.299L462.938 190.487L461.567 190.139V189.791C460.918 189.583 460.53 190.139 460.53 190.139C460.235 190.159 459.674 189.57 458.818 189.791V190.139H456.083V189.791L454.678 189.45L454.357 188.767C453.789 188.312 453.227 187.843 452.631 187.388C452.137 186.733 452.772 186.893 451.929 186.344C451.929 183.487 451.408 181.392 452.291 179.117L451.248 178.769L450.913 178.08H450.217V177.745H446.445V177.404H444.72V177.069H443.349V176.708H439.215C439.215 176.706 438.933 176.192 438.192 176.373V176.708H436.487V177.069H435.43V177.404H434.052V177.745C433.491 177.852 432.922 177.986 432.34 178.08L431.303 179.464L429.926 179.806V180.154H426.837C426.375 180.716 425.927 181.298 425.452 181.874C424.435 182.663 423.405 183.487 422.355 184.277L422.014 185.662L421.338 186.004V186.686H420.991V187.388H420.643L420.302 188.071H419.613L419.258 188.767H418.596C417.887 189.329 417.205 189.905 416.53 190.487V191.511C416.175 192.562 415.841 193.585 415.487 194.616L414.123 195.62V196.337H413.768V197.005L413.086 197.38L412.738 198.746L412.036 199.074L411.708 200.124H411.36L411.005 201.503L410.35 201.817V203.222H409.982L409.641 204.582H409.294V205.297H408.96V206.308H408.611C408.504 208.148 408.371 209.989 408.277 211.816H407.916L407.582 213.187H407.253V217.671H407.582C408.143 219.766 406.899 221.312 406.538 222.483V224.551H406.899V229.37H407.253V230.407H407.582L407.916 231.779H408.277C408.371 233.72 408.504 235.688 408.611 237.622L409.294 237.969L409.641 239.341L410.35 239.682C410.43 241.068 410.558 242.433 410.671 243.812H411.005V244.507H411.36V245.204L412.036 245.546V246.911H412.397L412.738 248.289C413.627 248.536 413.868 248.824 414.463 249.333V249.668H415.145L415.487 250.718L416.175 251.059V252.424H416.53V254.84L417.206 255.182L417.553 256.561C418.918 257.819 420.302 259.084 421.667 260.355C422.248 261.165 422.362 262.049 423.038 262.738C423.74 263.22 424.436 263.661 425.118 264.13V264.812H425.452V265.843H425.799V266.88H426.147V267.556L427.532 268.6V269.29C428.328 269.865 429.131 270.434 429.926 271.023L430.281 272.395L430.969 272.729L431.303 274.101L432.005 274.456V275.138L432.709 275.473C433.484 276.624 433.524 277.448 435.095 277.903ZM433.38 202.857C431.642 202.944 429.996 203.64 428.906 202.529C428.324 202.047 427.762 201.606 427.18 201.144C426.612 200.314 425.522 194.498 426.144 192.557H426.511V191.513L427.18 191.172C427.394 190.483 427.642 189.794 427.882 189.111L428.565 188.763C428.672 187.847 428.806 186.93 428.906 186L429.582 185.665V184.975H429.929C430.598 183.838 430.913 182.934 432.337 182.573C433.013 181.944 435.227 182.178 436.484 182.205V182.573H437.494V182.907C440.182 183.061 439.734 184.936 441.272 186V189.111H440.938V190.142H440.59V191.513H440.255V192.557H439.894V193.227H439.546V194.271H439.212V194.954H438.872V195.623H438.537L438.189 197.008L437.494 197.382C437.266 198.165 437.032 198.976 436.818 199.772L436.135 200.12C435.553 200.796 434.985 201.499 434.383 202.181C433.762 202.656 433.895 202.021 433.38 202.857ZM407.872 185.68C407.633 185.106 407.369 184.539 407.08 183.982C407.029 183.883 406.975 183.787 406.921 183.691C406.974 183.787 407.027 183.884 407.078 183.981C407.368 184.538 407.633 185.106 407.872 185.68ZM452.976 214.225C452.307 214.834 450.074 214.619 448.843 214.559C448.268 213.897 448.02 214.279 447.485 213.897V213.543L446.776 213.187C446.335 212.592 446.93 212.699 446.101 212.171V208.717H446.442V208.021H446.776C446.669 206.997 446.569 205.967 446.442 204.943H446.776C446.876 204.254 447.011 203.558 447.125 202.855H447.485V201.503H447.827L448.161 200.124C448.742 199.655 449.304 199.207 449.873 198.746V198.036H450.22C450.822 196.497 449.793 195.426 450.91 194.275C451.726 192.883 453.512 191.832 455.732 191.852V192.207H457.444C458.353 192.775 459.277 193.352 460.193 193.934C460.534 195.065 460.894 196.216 461.215 197.38C460.995 199.074 460.775 200.8 460.534 202.527H460.193V204.582H459.851V206.997C459.162 207.559 458.481 208.149 457.805 208.717V209.741L457.089 210.109V210.785L456.087 211.474V212.171H455.732C454.956 213.067 454.32 213.897 452.976 214.225ZM481.168 222.833C480.566 223.201 477.268 222.699 477.041 222.485H475.657C475.115 222.211 473.998 219.66 473.951 218.683C473.757 218.416 473.51 218.71 473.603 218.007H473.951V216.99H474.298C474.532 215.591 474.754 214.226 474.974 212.847H475.315C475.743 211.589 475.202 210.606 476.004 209.743V209.066C476.168 208.777 479.942 206.424 480.485 206.309V205.962H482.211V206.309H483.575V206.657C485.641 206.864 488.196 210.091 487.367 213.189H487.026C486.585 214.802 487.293 216.04 486.331 216.99V218.355H485.996C485.193 219.392 484.384 220.423 483.575 221.454H482.545V221.796C482.024 222.17 481.963 222.291 481.168 222.485V222.833ZM421.338 224.22C418.423 224.06 418.275 222.836 416.53 221.792C416.396 221.216 416.289 220.64 416.175 220.065H415.841V215.594H415.487V213.185H415.841L416.175 211.813C416.971 211.592 417.005 211.512 417.553 211.13V210.789H418.596V210.441C419.258 210.22 419.954 209.992 420.643 209.745V209.404H422.355V209.069H422.703V209.404L424.081 209.745L424.435 210.441C425.351 210.555 426.268 210.662 427.184 210.789L427.532 211.813L428.208 212.174C428.843 213.145 428.642 213.935 429.578 214.557C429.176 216.819 428.167 218.405 426.837 219.723L425.452 220.767V221.457L424.79 222.139H424.081L423.038 223.525C422.476 223.625 421.92 223.725 421.338 223.852V224.22ZM394.575 217.041C394.725 216.96 394.874 216.876 395.021 216.788C397.188 215.489 399.228 214.004 401.081 212.338C401.795 211.7 402.473 211.04 403.112 210.356C402.472 211.04 401.793 211.7 401.079 212.337C399.233 214.003 397.186 215.488 395.019 216.787C394.872 216.875 394.724 216.959 394.575 217.041ZM394.275 217.196C394.358 217.154 394.441 217.112 394.523 217.068C394.441 217.112 394.358 217.154 394.275 217.196ZM444.021 235.218C442.964 235.473 438.992 236.985 437.835 235.908C436.979 235.687 437.266 235.714 436.818 235.218H436.484V234.53H436.135L435.775 233.499C435.16 232.789 435.46 230.648 435.426 229.37C435.319 228.118 435.219 226.833 435.092 225.582H435.426V224.892L436.484 224.216C436.578 223.621 436.698 223.052 436.818 222.483H437.159V221.794L437.835 221.111C439.547 220.75 443.593 219.766 444.723 221.111C445.874 221.385 446.235 221.981 446.442 223.172H447.125C447.298 223.989 447.666 225.442 448.161 225.923C447.759 229.677 445.472 232.428 444.021 235.218ZM467.074 247.25C466.037 246.085 464.452 245.985 463.977 244.158L462.934 243.81C462.606 242.01 462.453 239.238 463.295 237.626L463.977 237.298V236.595L465.362 235.551V234.534H465.703V233.844H466.044V233.156C466.612 232.701 467.194 232.232 467.762 231.777V231.088L468.452 230.747V230.064C469.361 229.261 470.297 228.444 471.207 227.641H472.23V227.293H472.92V226.945C473.602 226.731 474.304 226.496 474.972 226.262V225.921C475.547 225.681 475.602 226.256 475.662 226.262H476.691V226.61L478.083 226.945C478.878 227.875 479.661 228.785 480.483 229.709V232.112H480.135V232.821H479.801V235.551H479.44V236.255L478.423 236.943C478.189 237.626 477.962 238.322 477.721 239.005L476.357 240.048L476.003 240.731L474.972 241.066C474.056 242.103 473.153 243.121 472.23 244.158C471.668 244.272 471.08 244.405 470.511 244.505L469.842 245.543C469.06 246.259 468.104 246.788 467.074 247.25ZM116.104 290.117C115.663 290.117 115.174 290.09 114.652 290.056C113.823 289.976 113.141 289.896 112.573 289.809C112.038 289.736 111.556 289.662 111.134 289.575L110.954 289.535L110.827 289.495C110.546 289.381 109.958 289.133 109.469 288.698C109.081 288.377 108.747 287.961 108.42 287.413C108.032 286.683 107.215 285.633 106.319 284.689C105.664 283.933 105.001 283.21 104.426 282.575L103.797 281.905C103.229 281.209 102.514 280.48 101.885 279.871L101.752 279.704C101.538 279.443 101.33 279.222 101.136 278.981C100.969 278.814 100.821 278.626 100.661 278.439L99.939 277.548L99.8316 278.686C99.6912 280.399 99.6314 281.751 99.6314 282.862C99.6314 283.759 99.6847 284.556 99.7515 285.125C99.8317 285.553 99.8853 285.987 99.8853 286.456C99.8853 286.844 99.8588 287.36 99.6314 287.949C99.4174 288.524 98.9685 289.073 98.4937 289.401C98.1595 289.608 97.805 289.775 97.4039 289.882C96.9558 290.01 96.5075 290.056 95.939 290.056H95.6451C94.9295 290.009 94.3812 289.963 93.7994 289.836C93.2778 289.722 92.6559 289.535 92.0474 289.08C91.6663 288.779 91.3251 288.363 91.1178 287.935C90.8837 287.413 90.7633 286.851 90.7633 286.188C90.7633 285.767 90.8099 285.332 90.8834 284.904C90.9636 284.328 91.0576 283.251 91.1178 281.939C91.1646 280.614 91.2241 279.054 91.2642 277.381C91.291 275.728 91.3244 273.988 91.3512 272.275C91.3779 270.481 91.4048 268.714 91.4449 267.115C91.4516 266.7 91.4586 266.238 91.4586 265.723C91.4586 259.62 90.7963 247.287 90.522 243.391C90.4886 242.796 90.4418 242.36 90.4351 242.219L90.4146 241.879C90.4213 240.841 90.9171 239.864 91.7799 239.134C92.6025 238.452 93.7194 238.05 94.9967 237.943C95.1369 237.943 95.2705 237.936 95.4107 237.936C96.7483 237.936 98.013 238.445 98.8824 239.336C99.7851 240.232 100.287 241.537 100.287 242.929C100.287 243.291 100.253 243.625 100.2 243.96C99.9992 245.117 99.7847 247.339 99.6041 249.909C99.4168 252.325 99.257 254.942 99.1969 257.13C99.1835 257.713 99.1695 258.302 99.1695 258.904C99.1695 260.784 99.2436 262.645 99.3238 264.05L99.397 265.282C99.4505 266.212 99.4843 266.981 99.4976 267.563L99.5045 268.48L100.233 267.931L100.393 267.811C100.48 267.751 100.595 267.664 101.183 266.955L101.303 266.84C101.404 266.72 101.571 266.566 101.752 266.366C101.979 266.118 102.266 265.797 102.587 265.482C103.55 264.465 104.487 263.542 105.337 262.779C106.166 261.942 106.814 261.225 107.182 260.69C107.55 260.155 107.918 259.619 108.5 259.097C109.135 258.522 110.025 258.067 110.934 257.88C111.576 257.726 112.245 257.666 113.067 257.666C113.883 257.666 114.652 257.739 115.368 257.893C116.063 258.054 116.586 258.234 117.074 258.522L117.274 258.642L117.535 258.837C117.689 258.977 117.876 259.125 118.084 259.493C118.224 259.714 118.371 260.122 118.364 260.55C118.364 260.938 118.263 261.273 118.183 261.414C118.083 261.661 117.956 261.828 117.876 261.928C117.702 262.169 117.555 262.29 117.415 262.404C116.518 263.2 115.281 264.184 114.01 265.214L113.763 265.402C112.533 266.379 111.322 267.35 110.627 267.965C110.286 268.273 109.898 268.601 109.483 268.956C108.801 269.538 108.058 270.187 107.369 270.823C106.907 271.224 106.513 271.639 106.178 272.001L105.804 272.476L106.045 272.796C106.198 272.977 106.399 273.185 106.667 273.439C107.536 274.155 108.586 274.979 109.583 275.755C110.666 276.599 111.489 277.535 112.278 278.452L112.533 278.733C113.275 279.623 114.138 280.573 114.86 281.135C115.148 281.35 115.562 281.625 116.03 281.939L116.418 282.207C117.013 282.622 117.668 283.083 118.317 283.612L119.2 284.267C119.487 284.515 119.796 284.749 120.117 285.09C120.311 285.331 120.544 285.606 120.718 286.054C120.792 286.262 120.892 286.576 120.892 286.971L120.873 287.299C120.799 287.775 120.598 288.236 120.31 288.611C120.036 288.966 119.655 289.267 119.207 289.514C118.384 289.922 117.461 290.117 116.104 290.117ZM261.869 290.297C261.675 290.297 261.481 290.278 261.287 290.271C260.337 290.191 259.695 290.09 259.127 289.916C258.378 289.681 257.755 289.307 257.307 288.838C256.973 288.497 256.712 288.055 256.532 287.6C256.318 286.978 256.29 286.409 256.284 285.988C256.29 285.459 256.338 284.964 256.405 284.468C256.612 282.688 256.993 278.064 257.18 274.979C257.234 273.969 257.274 273.112 257.274 272.704V272.108C257.281 271.01 257.254 269.879 257.087 268.895C256.899 267.911 256.592 267.175 256.137 266.66C255.763 266.205 255.442 265.931 255.081 265.73C254.733 265.549 254.365 265.442 253.87 265.388H253.02C252.652 265.388 251.763 265.509 250.961 265.75C250.151 265.97 249.262 266.379 248.92 266.673C248.111 267.276 247.543 267.765 247.108 268.374C246.7 268.956 246.285 269.766 246.218 271.304H246.206C246.132 272.77 246.105 275.875 246.105 279.034C246.105 280.533 246.111 281.966 246.131 283.124C246.131 284.268 246.179 285.212 246.206 285.486C246.246 285.847 246.279 286.169 246.279 286.584C246.279 286.958 246.245 287.413 246.085 287.942C245.904 288.497 245.537 289.066 245.095 289.421C244.761 289.682 244.386 289.916 243.978 290.056C243.49 290.217 242.968 290.297 242.346 290.297C242.139 290.297 241.918 290.278 241.698 290.271C241.056 290.204 240.514 290.15 239.979 290.009C239.498 289.896 238.875 289.682 238.32 289.173C237.999 288.866 237.705 288.424 237.551 287.996C237.344 287.427 237.337 286.958 237.337 286.549C237.337 286.088 237.371 285.68 237.411 285.212L237.43 284.977C237.551 283.719 237.665 280.861 237.752 277.288C237.825 274.182 237.866 271.097 237.866 269.712C237.866 266.947 237.711 256.668 237.43 252.325C237.136 247.875 237.136 244.187 237.136 242.421C237.136 241.986 237.149 241.443 237.343 240.835C237.537 240.192 237.919 239.61 238.414 239.202C238.748 238.907 239.176 238.679 239.611 238.532C240.126 238.371 240.668 238.297 241.31 238.297C241.45 238.297 241.604 238.298 241.757 238.318C242.219 238.325 242.561 238.345 242.808 238.365C242.955 238.372 243.069 238.385 243.142 238.385H243.41L243.55 238.412C243.791 238.472 244.032 238.518 244.299 238.619C244.56 238.706 244.854 238.847 245.088 239.001L245.236 239.115C245.731 239.496 246.152 240.126 246.352 240.841C246.566 241.517 246.653 242.26 246.66 243.297C246.66 243.478 246.654 243.666 246.647 243.886C246.507 248.189 246.206 252.472 245.985 255.048C245.818 256.487 245.73 257.485 245.73 258.234C245.73 258.736 245.778 259.151 245.851 259.519L246.018 260.235L246.6 259.794C247.677 258.991 248.833 258.395 250.01 258.053C251.027 257.759 252.07 257.612 253.234 257.612C253.782 257.612 254.264 257.638 254.712 257.685C255.669 257.739 256.732 257.98 257.882 258.375C259.187 258.836 260.284 259.365 261.22 260.007C262.029 260.57 262.618 261.159 263.066 261.841C263.808 262.939 264.39 264.311 264.844 266.031C265.259 267.624 265.48 269.263 265.487 270.769C265.487 271.01 265.48 271.257 265.466 271.478C265.406 272.576 265.367 274.637 265.367 276.718C265.367 278.184 265.393 279.717 265.426 281.022C265.46 282.26 265.527 283.391 265.594 283.853C265.661 284.348 265.761 285.011 265.761 285.794C265.762 285.798 265.781 286.155 265.781 286.235C265.781 286.79 265.707 287.239 265.64 287.567L265.574 287.828C265.48 288.149 265.139 288.979 264.33 289.568C263.5 290.17 262.551 290.297 261.902 290.297H261.869ZM425.455 255.182C424.084 255.062 422.706 254.961 421.341 254.84L420.639 253.796C419.837 253.241 419.027 252.659 418.238 252.084C417.984 250.999 416.172 246.998 417.549 245.546C418.131 243.397 418.96 244.373 420.297 243.47C420.879 242.788 421.435 242.105 422.01 241.396C422.592 241.015 422.799 241.389 423.401 240.733H426.143L426.838 241.77H427.528C428.096 242.433 428.671 243.116 429.24 243.812H429.581V244.507C430.838 245.899 429.16 249.494 428.906 250.718C427.354 251.066 426.705 252.137 426.143 253.463V254.486L425.455 255.182ZM140.783 255.644C139.218 255.637 137.693 254.988 136.496 253.831C135.673 252.994 134.683 251.629 134.656 249.762L134.683 249.374C134.75 248.055 135.332 246.811 136.288 245.981C137.257 245.138 138.535 244.675 139.926 244.675C140.201 244.675 140.488 244.696 140.769 244.736L140.836 244.743C141.885 244.863 142.876 245.312 143.798 246.061C144.621 246.73 145.244 247.534 145.678 248.437C146.019 249.153 146.179 249.796 146.186 250.485C146.186 250.652 146.173 250.82 146.153 250.994C146.019 251.937 145.705 252.773 145.237 253.469C144.695 254.279 143.846 254.941 142.903 255.276C142.274 255.51 141.558 255.644 140.783 255.644ZM169.668 290.492C169.447 290.492 169.213 290.478 168.979 290.431C168.745 290.384 168.524 290.338 168.25 290.217C168.156 290.171 168.036 290.096 167.902 290.009L167.709 289.849C167.421 289.582 167.281 289.427 167.187 289.294C167 289.013 166.872 288.725 166.792 288.404C166.604 287.775 166.572 287.158 166.565 286.369C166.572 284.903 166.671 282.789 166.792 280.527V280.253C166.899 277.823 167 275.507 167 274.002C167 272.436 166.966 271.003 166.932 269.812L166.906 268.956C166.892 268.233 166.859 267.664 166.852 267.189V266.868L166.223 266.653C166.063 266.64 165.929 266.64 165.809 266.64C165.649 266.64 165.508 266.653 165.354 266.673L165.167 266.7L165.04 266.687C164.458 266.687 163.996 266.613 163.635 266.533C163.348 266.486 163.121 266.446 162.853 266.352C162.612 266.272 162.151 266.064 161.79 265.656C161.569 265.402 161.388 265.114 161.274 264.82C161.134 264.419 161.114 264.05 161.107 263.823C161.107 263.662 161.128 263.508 161.134 263.375C161.241 262.592 161.375 262.036 161.536 261.527C161.75 260.871 162.003 260.389 162.378 259.948C162.678 259.64 163.034 259.345 163.421 259.165C163.896 258.944 164.404 258.837 164.946 258.837C165.407 258.837 165.782 258.87 166.07 258.89C166.291 258.904 166.478 258.923 166.612 258.923H167.08L167.146 258.468C167.113 257.297 166.979 256.24 166.819 255.102L166.746 254.366C166.712 253.945 166.692 253.583 166.678 253.175C166.692 253.021 166.692 252.827 166.732 252.606L166.746 252.505L166.792 252.338C166.872 251.944 166.992 251.636 167.146 251.355C167.373 251.02 167.634 250.678 167.949 250.411C168.671 249.788 169.634 249.441 170.611 249.441H170.905C171.079 249.481 171.079 249.481 171.574 249.521C171.841 249.561 172.123 249.595 172.477 249.669C172.718 249.735 172.985 249.816 173.339 250.023L173.607 250.183L173.714 250.317C173.928 250.491 174.383 251.06 174.55 251.616C174.751 252.211 174.825 252.827 174.825 253.717C174.724 255.966 174.698 257.452 174.684 258.456V258.883L175.319 258.944C175.667 258.977 175.821 258.977 175.915 258.977H176.088L176.195 259.005C176.489 259.045 176.871 259.057 177.286 259.057H177.593L177.72 259.078C177.78 259.098 177.894 259.105 178.068 259.125C178.289 259.125 178.61 259.165 179.024 259.252C179.459 259.339 179.921 259.486 180.369 259.827C180.817 260.155 181.205 260.684 181.359 261.199C181.466 261.527 181.519 261.862 181.519 262.216C181.519 262.859 181.466 263.341 181.359 263.816C181.225 264.445 180.997 264.96 180.643 265.388C180.356 265.723 179.981 266.005 179.593 266.192C179.145 266.399 178.663 266.493 178.101 266.493C177.921 266.493 177.78 266.486 177.613 266.472C177.071 266.432 176.67 266.365 176.363 266.305L176.175 266.272C175.774 266.205 175.507 266.178 175.299 266.178H174.905L174.831 266.553C174.73 268.354 174.624 271.091 174.624 273.567C174.624 274.591 174.637 275.555 174.684 276.384L174.751 277.756C174.804 279.028 174.884 280.48 174.964 281.885C175.065 283.645 175.166 285.091 175.259 285.995H175.239L175.326 286.53C175.366 286.784 175.393 287.038 175.4 287.333C175.393 287.828 175.319 288.23 175.145 288.618C174.964 289.073 174.59 289.514 174.175 289.789C173.928 289.976 173.667 290.097 173.373 290.197C173.078 290.304 172.764 290.372 172.377 290.412C171.935 290.479 171.487 290.492 170.999 290.492H169.668ZM455.397 264.814C454.574 265.289 452.153 264.794 451.598 264.466L451.244 263.791H448.161V263.442L447.125 263.094C447.011 262.505 446.876 261.937 446.776 261.368H446.442C446.128 260.25 447.693 255.626 448.161 255.177C448.408 254.227 448.568 254.307 449.204 253.792V253.464H449.873V253.116H450.91V252.775H451.933V252.421C452.803 252.012 454.542 251.255 456.087 251.751V252.079H457.089L457.444 252.775C458.126 252.989 458.815 253.237 459.51 253.464C460.012 255.539 461.744 259.534 459.51 261.368V262.05L458.48 262.419L457.805 263.442H457.089V263.791H456.407V264.125L455.397 264.466V264.814ZM210.725 291.301C210.458 291.301 210.19 291.294 209.91 291.281C207.917 291.234 206.044 290.86 204.332 290.177C202.292 289.388 200.432 288.136 198.767 286.497C197.115 284.857 195.858 282.929 195.029 280.761C194.394 279.035 194.005 277.161 193.912 275.2C193.905 275.006 193.898 274.791 193.898 274.59C193.905 273.185 194.092 271.579 194.473 269.939C194.908 268.065 195.49 266.446 196.226 265.088C196.828 263.99 197.47 263.16 198.246 262.484L198.607 262.17V262.156C200.138 260.824 201.677 259.781 203.235 259.005C205.388 257.92 207.549 257.384 209.656 257.384L210.097 257.391L210.572 257.398C213.247 257.498 215.026 257.585 216.625 258.074C217.106 258.234 217.581 258.455 218.003 258.736L218.403 259.017L218.444 258.977C218.558 259.024 218.684 259.098 218.825 259.165L219.146 259.345C219.467 259.519 219.714 259.687 219.868 259.794L220.229 260.021L220.342 260.142C220.53 260.33 220.878 260.738 221.119 261.32C221.326 261.788 221.44 262.35 221.44 262.939C221.44 263.26 221.386 263.568 221.346 263.876L221.266 264.338H221.293C221.239 264.679 221.179 264.98 221.132 265.221C221.092 265.429 221.045 265.596 221.045 265.723C221.005 266.004 220.952 266.272 220.865 266.607C220.771 266.861 220.657 267.189 220.403 267.517C220.356 267.577 220.342 267.623 220.302 267.657L220.149 267.811C220.035 267.952 219.982 267.999 219.915 268.052C219.6 268.327 219.072 268.507 218.651 268.507C218.123 268.507 217.829 268.373 217.648 268.299C217.461 268.219 217.327 268.119 217.233 268.059C217.052 267.939 216.939 267.858 216.832 267.778C215.782 267.129 215.006 266.74 214.244 266.486C213.334 266.165 212.451 266.031 211.401 266.024C211.22 266.024 211.04 266.031 210.859 266.038C209.475 266.105 208.505 266.192 207.79 266.413C207.121 266.627 206.445 266.968 205.195 267.992C204.219 268.808 203.503 269.725 203.035 270.816C202.613 271.793 202.399 272.918 202.399 274.156C202.386 275.106 202.486 276.532 202.934 277.803C203.335 279.028 203.957 279.891 204.846 280.506C206.17 281.437 206.84 281.839 207.529 282.113C208.291 282.394 209.201 282.568 210.779 282.695C211.087 282.722 211.388 282.735 211.682 282.735C214.565 282.735 216.33 281.531 216.805 281.163C216.979 281.022 217.193 280.855 217.494 280.714C217.728 280.601 218.109 280.446 218.624 280.446C218.931 280.446 219.232 280.507 219.513 280.614C219.774 280.728 220.035 280.895 220.243 281.109C220.631 281.47 220.797 281.825 220.924 282.16C221.138 282.795 221.165 283.27 221.225 283.866C221.225 284.06 221.226 284.227 221.266 284.515C221.293 284.703 221.32 284.93 221.346 285.191L221.359 285.385C221.406 285.586 221.453 285.827 221.466 286.235C221.466 286.389 221.44 286.603 221.386 286.831L221.299 287.206C221.266 287.313 221.225 287.453 221.152 287.593C221.005 287.915 220.744 288.243 220.476 288.491C219.935 288.952 219.393 289.207 218.624 289.474C217.126 290.056 215.862 290.485 214.618 290.839C213.267 291.161 212.03 291.301 210.746 291.301H210.725ZM298.613 291.001C297.703 291.001 296.318 291 294.827 290.853C292.948 290.652 291.45 290.304 290.119 289.722C288.962 289.214 288.012 288.544 287.263 287.721C285.611 285.881 284.253 284.02 283.19 282.16C281.712 279.51 281.029 277.241 281.003 275.005L281.009 274.664C281.076 272.85 281.411 270.89 281.993 269.016C282.601 267.015 283.397 265.282 284.38 263.917C285.143 262.826 285.972 262.036 286.875 261.461L287.236 261.253V261.239L287.51 261.079C288.721 260.302 289.985 259.513 291.389 258.857C293.329 257.94 295.142 257.492 296.981 257.492C297.285 257.526 301.342 258.034 303.053 258.683C305.066 259.46 306.591 260.43 307.728 261.674C309.494 263.696 311.246 266.366 312.33 268.655C312.758 269.558 313.012 270.261 313.179 270.957L313.299 271.445L313.333 271.438C313.727 272.857 313.701 273.62 312.985 274.865C312.831 275.139 312.404 275.327 312.17 275.427C311.675 275.635 310.664 275.755 310.323 275.796C309.353 275.856 307.728 275.855 306.263 275.855C306.09 275.855 290.528 275.863 290.393 275.889L289.952 275.989L290.025 276.431C290.052 276.552 290.072 276.866 290.086 277.173C290.119 277.548 290.152 277.956 290.172 278.124C291.142 283.544 297.509 283.967 297.77 283.973C297.779 283.975 297.978 284.006 298.292 284.006C299.375 284.006 302.13 283.679 304.07 280.687C304.378 280.199 304.725 279.656 305.207 279.322C305.755 278.947 306.605 278.733 307.514 278.733C308.892 278.733 310.61 279.222 311.339 280.614L311.447 280.801C311.741 281.35 311.888 281.624 311.888 282.36C311.888 283.277 311.741 283.907 311.414 284.348C310.999 284.924 310.523 285.318 310.102 285.632C309.587 286.041 309.066 286.469 308.531 286.931C308.197 287.219 307.855 287.493 307.514 287.774L307.08 288.13C306.812 288.35 306.565 288.558 306.297 288.772C305.97 289.02 305.575 289.307 305.087 289.568L304.993 289.622C303.307 290.518 301.134 290.987 298.672 291.001H298.613ZM352.498 290.492C352.03 290.492 351.555 290.485 351.046 290.445C350.592 290.391 350.043 290.331 349.455 290.084C349.047 289.923 348.672 289.682 348.358 289.401C347.943 289.006 347.589 288.49 347.381 287.915C347.127 287.259 347.02 286.557 347.013 285.587C347.013 285.312 347.027 285.01 347.047 284.729C347.161 283.036 347.328 281.671 347.482 280.406L347.602 279.342C347.803 277.636 347.924 276.197 347.93 274.296V271.921C347.93 270.723 347.883 269.9 347.796 269.291C347.703 268.675 347.582 268.193 347.388 267.818C347.194 267.43 346.967 267.162 346.592 266.875C346.057 266.48 345.655 266.212 345.415 266.078C345.141 265.931 345.02 265.897 344.9 265.871L344.666 265.831C344.512 265.784 344.225 265.737 343.864 265.737L342.867 265.756C342.098 265.756 341.208 265.991 340.425 266.399C339.583 266.847 338.794 267.504 338.246 268.273C337.751 268.929 337.276 270.274 337.015 271.672C336.768 272.904 336.628 274.41 336.628 275.681C336.628 277.328 336.788 281.149 337.002 283.605C337.055 284.395 337.149 285.057 337.189 285.292C337.202 285.399 337.323 286.021 337.323 286.021C337.37 286.316 337.403 286.67 337.417 287.119C337.403 287.346 337.396 287.654 337.302 288.029L337.276 288.13C337.216 288.317 337.102 288.658 336.848 288.979C336.628 289.294 336.299 289.568 335.931 289.775C335.189 290.17 334.44 290.298 333.531 290.351H332.782C332.2 290.351 331.664 290.338 331.022 290.171C330.741 290.117 329.812 289.835 329.143 289.019C328.836 288.658 328.602 288.189 328.455 287.668C328.294 287.105 328.22 286.523 328.207 285.713C328.207 285.091 328.28 284.395 328.347 283.525C328.869 279.369 329.077 275.923 329.077 272.336C329.09 271.211 328.949 269.598 328.648 267.417L328.434 265.937C328.28 264.786 328.126 263.742 328.066 262.866C328.066 262.612 328.046 262.457 328.033 262.23C328.006 262.009 327.986 261.728 327.979 261.346C327.979 261.125 327.979 260.958 327.993 260.744C328.006 260.57 328.046 260.255 328.16 259.921L328.207 259.727L328.281 259.64C328.388 259.413 328.602 259.098 328.882 258.837C329.143 258.589 329.471 258.381 329.859 258.234C330.514 257.98 331.184 257.86 332.34 257.813L332.634 257.806C333.47 257.813 334.193 257.96 334.808 258.275C335.49 258.583 336.072 259.165 336.353 259.821C336.44 260.022 336.493 260.223 336.546 260.417L336.727 261.192L337.323 260.644C338.473 259.62 339.302 258.997 340.192 258.522C341.369 257.853 342.76 257.492 344.205 257.492C344.499 257.492 344.726 257.505 344.947 257.539C346.565 257.606 348.084 257.96 349.462 258.602C350.779 259.231 351.782 259.981 352.524 260.898C353.099 261.641 353.896 262.786 354.578 264.325C355.367 266.078 355.761 267.871 355.761 269.611C355.761 269.772 355.761 269.926 355.748 270.093C355.714 270.722 355.714 271.546 355.714 272.476C355.714 275.387 355.835 279.497 356.015 282.26C356.062 283.137 356.123 283.859 356.17 284.227L356.223 284.703C356.29 285.211 356.37 285.8 356.37 286.469C356.37 286.831 356.356 287.326 356.196 287.895C356.075 288.31 355.835 288.933 355.3 289.455C354.993 289.763 354.605 290.017 354.19 290.177C353.682 290.385 353.126 290.492 352.498 290.492ZM140.635 290.277C140.147 290.27 139.666 290.271 139.137 290.171C138.736 290.117 138.121 289.976 137.539 289.514C137.191 289.267 136.87 288.899 136.689 288.524C136.415 287.995 136.335 287.547 136.282 287.119C136.208 286.557 136.208 285.994 136.208 285.352C136.208 283.987 136.335 282.16 136.468 280.206L136.503 279.657C136.663 277.455 136.81 275.34 136.803 273.928C136.803 272.396 136.756 270.1 136.696 267.925C136.642 265.59 136.576 263.635 136.503 262.725L135.573 262.732L136.503 262.712C136.476 262.384 136.468 262.056 136.468 261.728C136.468 261.333 136.489 260.978 136.589 260.563C136.696 260.061 136.964 259.58 137.285 259.218C137.526 258.977 137.813 258.736 138.134 258.576C138.475 258.395 138.83 258.288 139.278 258.208C139.773 258.127 140.241 258.114 140.783 258.114C141.104 258.114 141.384 258.114 141.725 258.14C142.046 258.187 142.541 258.288 143.049 258.589C143.39 258.79 143.685 259.078 143.92 259.385C144.187 259.753 144.381 260.175 144.488 260.677C144.622 261.199 144.669 261.728 144.669 262.517C144.669 262.899 144.642 263.334 144.622 263.809C144.495 265.609 144.434 267.37 144.434 269.511C144.434 270.421 144.454 271.284 144.461 272.121C144.474 272.944 144.488 273.727 144.488 274.504C144.474 276.699 144.782 280.761 145.083 283.464C145.183 284.321 145.264 285.044 145.331 285.385C145.377 285.646 145.397 285.921 145.397 286.215C145.41 287.052 145.15 287.868 144.695 288.517C144.2 289.213 143.424 289.762 142.502 290.016C141.933 290.177 141.331 290.277 140.635 290.277ZM297.355 270.12C297.917 270.12 298.92 270.074 300.111 270.02L300.886 269.986C301.843 269.966 302.873 269.926 303.943 269.899L304.812 269.892L304.311 269.17C304.05 268.808 303.795 268.447 303.575 268.139C303.093 267.51 302.706 267.028 302.351 266.66C301.983 266.238 301.675 265.984 301.328 265.756C300.478 265.194 299.421 264.907 297.783 264.806H297.435C295.409 264.806 293.723 265.717 292.66 266.46C291.416 267.336 290.594 268.393 290.293 268.808L290.018 269.17L290.727 269.699H290.888L291.109 269.732C291.29 269.772 291.537 269.792 291.804 269.812C292.366 269.879 293.068 269.926 293.77 269.966C295.195 270.053 296.726 270.12 297.355 270.12ZM503.411 291.885C498.301 291.885 494.128 287.749 494.128 282.522C494.129 277.409 498.301 273.233 503.411 273.233L503.947 273.246C508.826 273.496 512.673 277.569 512.673 282.522C512.673 287.749 508.574 291.885 503.411 291.885ZM503.411 290.038C507.35 290.058 510.52 286.759 510.52 282.576C510.52 278.44 507.35 275.074 503.411 275.074H503.371C499.485 275.074 496.341 278.44 496.341 282.576C496.341 286.758 499.485 290.038 503.411 290.038ZM499.605 287.963V277.624C500.421 277.49 501.351 277.309 502.903 277.309C504.715 277.309 505.779 277.623 506.481 278.145L507.39 280.401C507.39 281.626 506.52 282.482 505.39 282.77V282.871C506.32 283.045 506.889 283.861 507.063 285.393C507.277 287.006 507.45 287.629 507.644 287.963H505.35C505.103 287.589 504.962 286.658 504.728 285.259C504.574 284.135 503.912 283.687 502.789 283.687H501.799V287.963H499.605ZM502.829 282.013C504.106 282.013 505.103 281.585 505.103 280.502C505.103 279.645 504.481 278.982 503.003 278.982L501.799 279.022V282.013H502.829Z" fill="white"/>
</g>
</g>
<defs>
<clipPath id="clip0_1_71">
<rect width="580" height="482" fill="white"/>
</clipPath>
</defs>
</svg>
