<svg width="1017" height="288" viewBox="0 0 1017 288" fill="none" xmlns="http://www.w3.org/2000/svg">
<g clip-path="url(#clip0_1_149)">
<path d="M488.55 225.08H456.95C456.75 225.08 456.75 225.08 456.65 224.98L429.45 191.78L402.25 224.98C402.15 225.08 402.05 225.08 401.95 225.08H376.65C376.45 225.08 376.35 224.98 376.25 224.88C376.25 224.78 376.25 224.58 376.35 224.48L416.45 175.28L376.85 126.58C376.75 126.38 376.75 126.28 376.75 126.08C376.85 125.98 376.95 125.88 377.05 125.88H408.65C408.75 125.88 408.85 125.98 408.95 126.08L432.85 155.68L457.15 126.08C457.25 125.98 457.35 125.88 457.45 125.88H483.15C483.25 125.88 483.45 125.98 483.55 126.08C483.65 126.28 483.55 126.38 483.45 126.58L445.95 171.68L488.95 224.48C489.05 224.58 489.05 224.78 489.05 224.88C488.85 225.08 488.75 225.08 488.55 225.08Z" fill="white"/>
<path d="M659.45 143.28C645.45 143.28 635.95 151.78 633.15 166.48H680.75V165.48C680.75 153.78 672.05 143.28 659.45 143.28ZM705.25 181.68C705.15 181.78 705.05 181.88 704.95 181.88H632.65C634.15 198.68 645.05 208.28 662.75 208.28C673.65 208.28 685.25 204.58 701.55 195.88C701.85 195.68 702.15 195.98 702.15 196.28V218.48C702.15 218.68 702.05 218.78 701.95 218.78C686.75 225.18 671.45 229.58 659.45 229.58C628.35 229.58 605.75 206.88 605.75 175.68C605.75 144.48 628.35 121.78 659.45 121.78C687.85 121.78 706.05 140.88 706.05 167.18C706.05 171.48 705.35 181.38 705.25 181.68Z" fill="white"/>
<path d="M852.05 105.28C843.15 105.28 835.95 98.18 835.95 89.48C835.95 80.48 843.15 73.18 852.05 73.18C860.95 73.18 868.15 80.48 868.15 89.48C868.15 98.18 860.95 105.28 852.05 105.28ZM839.05 225.08C838.75 225.08 838.65 224.98 838.65 224.68V126.18C838.65 125.98 838.75 125.78 838.95 125.78H865.05C865.25 125.78 865.35 125.98 865.35 126.18V224.68C865.35 224.98 865.15 225.08 864.95 225.08H839.05Z" fill="white"/>
<path d="M536.35 210.28C531.65 210.28 526.85 209.58 521.25 208.18L521.35 144.98C527.85 142.88 533.45 141.98 539.05 141.98C557.15 141.98 569.25 155.28 569.25 175.18C569.25 196.48 556.35 210.28 536.35 210.28ZM543.45 121.78C536.05 121.78 528.65 123.08 520.85 125.78H494.85C494.65 125.78 494.45 125.98 494.45 126.18V287.68C502.25 286.58 511.85 283.78 521.25 277.18V228.08C527.65 228.98 532.95 229.58 538.05 229.58C573.65 229.58 596.65 208.28 596.65 175.28C596.65 143.78 574.75 121.78 543.45 121.78Z" fill="white"/>
<path d="M791.55 202.08C783.45 206.38 776.15 208.38 769.35 208.38C753.25 208.38 743.55 196.98 743.55 177.88C743.55 155.88 755.85 141.58 774.95 141.58C780.25 141.58 785.35 142.88 791.55 145.68V202.08ZM791.55 73.68V125.18C783.95 122.98 777.25 121.98 770.45 121.98C739.45 121.98 716.15 145.28 716.15 176.28C716.15 207.08 736.75 229.48 765.15 229.48C774.95 229.48 784.15 226.98 794.95 221.48V230.38C802.05 228.98 810.25 226.18 818.35 220.38V63.08C810.45 64.18 801.05 66.88 791.55 73.68Z" fill="white"/>
<path d="M955.85 201.88C947.95 206.38 941.25 208.58 935.25 208.58C917.95 208.58 907.65 197.18 907.65 178.08C907.65 156.38 919.85 141.78 937.95 141.78C942.75 141.78 948.65 143.68 955.85 147.48V201.88ZM982.65 124.58C982.65 123.98 982.15 123.48 981.55 123.48H960.45C959.85 123.48 959.25 123.98 959.25 124.58V128.18H958.75C949.05 123.88 940.65 121.98 932.55 121.98C903.35 121.98 880.45 146.18 880.45 177.18C880.45 208.48 900.95 229.48 931.45 229.48C939.55 229.48 950.05 228.88 959.85 217.68V230.38C966.75 228.88 974.95 225.98 982.65 220.38V124.58Z" fill="white"/>
<path d="M304.45 200.48H369.95C368.95 207.78 366.45 216.38 360.85 225.08H292.75C284.45 225.08 277.55 218.58 276.75 210.48C276.75 210.38 276.65 210.28 276.65 210.08V80.88C276.65 80.78 276.75 80.68 276.75 80.58C277.55 72.38 284.45 65.88 292.75 65.88H369.85C368.85 73.18 366.35 81.98 360.65 90.68H304.45V125.88H360.15C360.35 125.88 360.55 126.08 360.55 126.28V150.68C360.55 150.88 360.35 151.08 360.15 151.08H304.45V200.48Z" fill="white"/>
<path d="M222.45 227.18C215.95 227.18 211.95 222.08 211.95 215.88C211.95 209.28 216.55 204.58 222.45 204.58C228.25 204.58 232.85 209.18 232.85 215.88C232.85 222.58 228.25 227.18 222.45 227.18ZM222.45 203.38C215.85 203.38 210.15 208.38 210.15 215.88C210.15 222.98 215.25 228.38 222.45 228.38C228.95 228.38 234.65 223.38 234.65 215.88C234.65 208.38 229.05 203.38 222.45 203.38Z" fill="white"/>
<path d="M219.55 214.88V210.28H222.65C224.25 210.28 226.05 210.48 226.05 212.38C226.05 214.68 224.35 214.78 222.45 214.78C222.35 214.88 219.55 214.88 219.55 214.88ZM228.25 212.68C228.25 209.68 226.45 208.38 222.85 208.38H217.25V223.18H219.65V216.88H221.95L225.75 223.18H228.55L224.45 216.68C226.65 216.48 228.25 215.38 228.25 212.68Z" fill="white"/>
<path d="M1004.25 142.18C997.75 142.18 993.75 137.08 993.75 130.88C993.75 124.28 998.35 119.58 1004.25 119.58C1010.05 119.58 1014.65 124.18 1014.65 130.88C1014.65 137.58 1010.05 142.18 1004.25 142.18ZM1004.25 118.48C997.65 118.48 991.95 123.48 991.95 130.98C991.95 138.08 997.05 143.48 1004.25 143.48C1010.75 143.48 1016.45 138.48 1016.45 130.98C1016.45 123.38 1010.75 118.48 1004.25 118.48Z" fill="white"/>
<path d="M1001.25 129.88V125.38H1004.35C1005.95 125.38 1007.75 125.58 1007.75 127.48C1007.75 129.78 1006.05 129.88 1004.15 129.88H1001.25ZM1010.05 127.78C1010.05 124.78 1008.25 123.48 1004.65 123.48H999.05V138.28H1001.45V131.98H1003.75L1007.55 138.28H1010.35L1006.25 131.78C1008.35 131.58 1010.05 130.48 1010.05 127.78Z" fill="white"/>
<path d="M137.95 90.58L133.25 77.18L92.85 23.28L100.05 21.48L169.55 81.58L210.45 69.88C215.25 68.68 220.75 68.38 224.85 68.38C212.05 40.68 188.45 17.88 157.45 6.88C96.15 -15.02 28.65 17.08 6.85001 78.48C0.0500112 97.48 -1.44999 117.08 1.35001 135.68L99.25 101.68L137.95 90.58Z" fill="white"/>
<path d="M229.25 78.98C225.65 81.28 220.35 84.38 215.15 86.08L174.15 97.78L146.85 185.58L139.75 187.88L145.55 120.88L142.35 106.98L103.95 117.98L2.34998 141.68C10.45 180.68 38.05 214.78 78.35 229.08C139.75 250.98 207.15 218.88 229.05 157.48C238.45 131.18 237.85 103.58 229.25 78.98Z" fill="white"/>
</g>
<defs>
<clipPath id="clip0_1_149">
<rect width="1016.45" height="287.7" fill="white"/>
</clipPath>
</defs>
</svg>
