<svg width="339" height="80" viewBox="0 0 339 80" fill="none" xmlns="http://www.w3.org/2000/svg">
<g clip-path="url(#clip0_1_164)">
<path d="M114.194 1.145C92.329 1.145 75.363 17.059 75.363 39.843C75.363 63.653 92.328 78.542 114.194 78.541C136.06 78.54 153.06 63.652 153.025 39.843C152.993 18.256 136.06 1.145 114.194 1.145ZM114.194 11.799C129.452 11.799 141.821 23.283 141.821 39.843C141.821 56.71 129.452 67.888 114.194 67.888C98.936 67.888 86.567 56.709 86.567 39.843C86.567 23.282 98.936 11.799 114.194 11.799ZM234.107 2.423V77.262H245.331V2.423H234.107ZM203.122 2.423L161.467 39.842L203.122 77.262H219.824L178.106 39.842L219.824 2.423H203.122ZM296.843 0L290.751 11.252L311.418 49.64H269.971L255.018 77.263H267.366L276.396 60.69H317.291L326.32 77.263H338.667L296.843 0ZM0 0V77.263H11.455V26.203L70.98 79.686V63.667L0 0Z" fill="white"/>
</g>
<defs>
<clipPath id="clip0_1_164">
<rect width="338.68" height="79.7" fill="white"/>
</clipPath>
</defs>
</svg>
