<svg width="399" height="138" viewBox="0 0 399 138" fill="none" xmlns="http://www.w3.org/2000/svg">
<g clip-path="url(#clip0_337_1245)">
<path d="M295.775 124.042L322.841 124.042L331.205 149.784L309.308 165.693L287.41 149.784L295.775 124.042Z" stroke="#6359c4" stroke-width="2"/>
<path d="M309.326 82.4067L336.393 82.4067L344.757 108.149L322.859 124.058L300.962 108.149L309.326 82.4067Z" stroke="#6359c4" stroke-width="2"/>
<path d="M402.114 66.5148L424.011 82.4243L415.647 108.166H388.58L380.216 82.4243L402.114 66.5148Z" fill="#6359c4" stroke="#6359c4" stroke-width="2"/>
<path d="M388.575 108.202L410.472 124.111L402.108 149.853H375.041L366.677 124.111L388.575 108.202Z" fill="#6359c4" stroke="#6359c4" stroke-width="2"/>
<path d="M344.737 108.118L366.634 124.028L358.27 149.77H331.203L322.839 124.028L344.737 108.118Z" fill="#6359c4" stroke="#6359c4" stroke-width="2"/>
<path d="M366.711 40.7495L393.778 40.7495L402.142 66.4915L380.245 82.401L358.347 66.4915L366.711 40.7495Z" stroke="#6359c4" stroke-width="2"/>
<path d="M353.147 82.4018L380.214 82.4018L388.578 108.144L366.681 124.053L344.783 108.144L353.147 82.4018Z" stroke="#6359c4" stroke-width="2"/>
<path d="M251.712 124.042L278.779 124.042L287.143 149.784L265.245 165.693L243.348 149.784L251.712 124.042Z" stroke="#6359c4" stroke-width="2"/>
<path d="M410.781 40.7495L437.847 40.7495L446.212 66.4915L424.314 82.401L402.417 66.4915L410.781 40.7495Z" stroke="#6359c4" stroke-width="2"/>
<path d="M344.707 -26.7806L366.604 -42.6901L388.502 -26.7806L380.137 -1.03853L353.071 -1.03853L344.707 -26.7806Z" stroke="#6359c4" stroke-width="2"/>
<path d="M388.509 -26.7819L415.576 -26.7819L423.94 -1.03988L402.043 14.8696L380.145 -1.03988L388.509 -26.7819Z" fill="#6359c4" stroke="#6359c4" stroke-width="2"/>
<path d="M353.071 -1.03435L380.138 -1.03435L388.502 24.7077L366.604 40.6172L344.707 24.7077L353.071 -1.03435Z" fill="#6359c4" stroke="#6359c4" stroke-width="2"/>
<path d="M309.059 -0.881243L330.957 -16.7907L352.854 -0.881244L344.49 24.8608L317.423 24.8608L309.059 -0.881243Z" stroke="#6359c4" stroke-width="2"/>
</g>
<defs>
<clipPath id="clip0_337_1245">
<rect width="399" height="138" fill="white"/>
</clipPath>
</defs>
</svg>
