<svg width="1281" height="226" viewBox="0 0 1281 226" fill="none" xmlns="http://www.w3.org/2000/svg">
<g clip-path="url(#clip0_1_166)">
<path d="M456.043 225.28C409.63 225.28 366.622 211.456 337.95 185.677C327.697 176.464 319.528 165.17 313.988 152.549C308.447 139.927 305.663 126.269 305.822 112.486C305.79 98.7603 308.632 85.1796 314.166 72.6183C319.699 60.0569 327.801 48.7932 337.95 39.552C364.574 15.36 411.678 0 456.043 0C505.118 0 544.414 12.3648 574.443 39.6032C584.552 48.8413 592.6 60.1071 598.061 72.6655C603.522 85.2239 606.273 98.7927 606.136 112.486C606.067 126.194 603.224 139.745 597.777 152.324C592.33 164.903 584.393 176.248 574.443 185.677C546.462 211.61 502.533 225.28 456.043 225.28V195.635C480.645 195.635 503.48 187.136 519.429 171.264C535.377 155.392 542.622 136.141 542.622 112.384C542.622 89.7024 534.661 68.5056 519.429 53.504C503.685 38.016 480.312 29.2864 456.043 29.2864C431.774 29.2864 408.299 37.9392 392.555 53.504C377.374 68.5312 369.515 89.8048 369.515 112.384C369.287 123.232 371.205 134.019 375.159 144.123C379.113 154.228 385.025 163.451 392.555 171.264C408.299 186.957 431.621 195.635 456.043 195.635V225.28ZM117.15 0C92.3438 0 64.1582 4.6592 40.3502 15.36C18.1294 25.2928 0.030187 41.2416 0.030187 67.6864C-0.00319756 81.5348 5.26356 94.8712 14.7502 104.96C21.1758 110.899 31.5438 120.986 58.6286 126.925C70.7374 129.485 96.619 133.606 122.398 136.32C148.177 139.034 173.163 141.44 183.403 144.179C191.544 146.253 205.24 149.069 205.24 164.429C205.24 179.789 190.827 184.397 188.318 185.395C185.809 186.394 168.504 194.33 137.425 194.33C116.834 193.758 96.4298 190.25 76.8302 183.91C65.2334 179.763 53.0734 174.31 41.7326 160.461C37.1558 153.939 34.6167 146.206 34.4366 138.24H6.27659V217.088H37.5598V206.413C37.5548 205.621 37.7611 204.842 38.1572 204.156C38.5534 203.471 39.1251 202.903 39.8136 202.512C40.5021 202.121 41.2824 201.92 42.0741 201.931C42.8659 201.942 43.6405 202.163 44.3182 202.573C59.0567 208.986 74.3873 213.942 90.091 217.37C106.526 220.8 117.15 223.283 137.579 223.283C159.136 223.693 180.62 220.66 201.221 214.298C214.9 210.548 227.735 204.213 239.032 195.635C245.386 190.755 250.521 184.467 254.035 177.267C257.548 170.066 259.344 162.149 259.281 154.138C259.388 138.917 253.514 124.263 242.923 113.331C237.034 107.616 230.212 102.949 222.75 99.5328C214.729 95.9088 206.402 93.0046 197.867 90.8544C181.637 86.8864 145.182 81.92 127.749 80.1792C109.47 78.2848 77.7518 75.648 65.0798 71.7312C61.2398 70.528 53.4062 66.816 53.4062 57.728C53.4062 51.2512 56.9902 45.7728 64.0558 41.344C75.2942 34.304 97.9758 29.9264 121.63 29.9264C144.526 29.65 167.234 34.0853 188.344 42.9568C194.015 45.4275 199.349 48.6104 204.216 52.4288C212.15 59.2052 217.644 68.3954 219.857 78.592H245.125V9.9584H216.965V17.92C216.965 20.48 214.405 23.8592 209.285 21.0688C196.587 14.464 160.901 0.1792 117.15 0ZM735.365 12.5952L872.99 136.781L871.582 53.1712C871.428 42.1888 869.432 37.6064 857.553 37.6064H831.697V12.5952H949.457V37.6064H924.19C912.107 37.6064 911.39 41.4976 911.185 53.1712L913.31 212.941H872.99L714.449 71.4752V171.853C714.577 182.784 715.089 187.93 726.328 187.93H754.488V212.941H639.057V187.93H666.091C676.177 187.93 675.768 178.304 675.768 171.29V54.1184C675.768 46.4384 674.692 37.632 658.872 37.632H636.958V12.5952H735.365ZM1083.81 187.878C1086.13 187.879 1088.46 187.733 1090.77 187.443C1091.97 187.083 1093.08 186.466 1094.01 185.635C1094.95 184.804 1095.7 183.779 1096.2 182.63C1096.55 180.852 1096.73 179.042 1096.73 177.229V137.677C1096.73 136.346 1096.73 136.32 1095.04 134.221C1093.35 132.122 1022.95 52.3008 1019.75 48.7168C1015.76 44.3648 1008.75 37.632 998.072 37.632H973.624V12.5952H1111.61V37.5808H1094.97C1091.13 37.5808 1088.57 41.2416 1091.84 45.2608C1091.84 45.2608 1138.28 100.813 1138.72 101.402C1139.15 101.99 1139.54 102.118 1140.13 101.581C1140.71 101.043 1187.72 45.7728 1188.07 45.2608C1188.63 44.5317 1188.97 43.6584 1189.04 42.7447C1189.11 41.831 1188.92 40.9153 1188.49 40.1065C1188.06 39.2977 1187.41 38.6297 1186.61 38.182C1185.81 37.7343 1184.89 37.5256 1183.98 37.5808H1166.9V12.5952H1280.03V37.632H1254.76C1245.6 37.632 1241.96 39.3216 1234.97 47.104L1158.81 133.99C1158.07 135.066 1157.74 136.377 1157.89 137.677V177.203C1157.91 179.018 1158.09 180.827 1158.46 182.605C1158.95 183.754 1159.69 184.781 1160.62 185.613C1161.55 186.444 1162.66 187.061 1163.86 187.418C1166.15 187.72 1168.46 187.866 1170.77 187.853H1196.6V212.89H1059.33V187.853L1083.81 187.878Z" fill="white"/>
</g>
<defs>
<clipPath id="clip0_1_166">
<rect width="1280.05" height="225.3" fill="white"/>
</clipPath>
</defs>
</svg>
