<svg xmlns="http://www.w3.org/2000/svg" xmlns:xlink="http://www.w3.org/1999/xlink" viewBox="0 0 1298.67 1281.51"><defs><radialGradient id="radial-gradient" cx="649.34" cy="640.76" fx="301.3460816847988" fy="679.8252255556034" r="645.06" gradientTransform="translate(0 -3203.78) scale(1 6)" gradientUnits="userSpaceOnUse"><stop offset="0" stop-color="#bb2e68"/><stop offset="0.71" stop-color="#e04168"/><stop offset="1" stop-color="#f14968"/></radialGradient></defs><g id="Layer_2" data-name="Layer 2"><g id="Layer_1-2" data-name="Layer 1"><path d="M132.85,1056.7s98.57,104.86,220.2,101.71S772.45,1066,731.57,923.54c-36.7-127.92-153.09-135.26-391.11-202.37s-368-191.88-335.53-360.7S280.7-22.25,550.17,1.87s355.46,395.3,410,453,105.91,151.29,197.13,124.4,114.29-73,123.73-90.85,21-10.48,16.77,8.39,5.25,174.06-119.53,189.79S978,598.49,900.39,449.6,737.69,82.8,548.22,55.3C374.86,30.13,23,316.72,120.27,457.29c151,218.09,375.67,138.34,588.58,272.62C856.78,823.2,901.78,1037.48,738.21,1148c-178.49,120.58-397,202.67-615.14,51.68C0,1114.48,115.05,1039.93,132.85,1056.7Z" style="fill:url(#radial-gradient)"/></g></g></svg>