<svg width="1249" height="454" viewBox="0 0 1249 454" fill="none" xmlns="http://www.w3.org/2000/svg">
<g clip-path="url(#clip0_1_181)">
<path d="M183.53 0.25C186.53 1.65 188.43 4.55001 190.83 6.85001C194.73 10.25 197.631 14.75 201.431 18.25C206.131 22.75 209.131 28.45 213.031 33.55C219.831 43.85 225.831 54.85 228.931 66.85C232.131 75.05 232.631 83.95 232.431 92.75C232.631 100.75 230.431 108.65 226.83 115.85C220.631 126.75 209.431 134.05 197.73 137.95C183.13 141.45 167.03 142.05 152.93 135.85C147.829 133.05 142.03 131.15 137.93 126.75C128.43 118.95 122.93 106.25 124.73 93.95C127.53 72.05 140.63 53.25 154.63 37.05C155.93 39.45 154.829 42.25 155.73 44.75C156.93 50.05 158.83 55.65 162.83 59.45C167.73 54.95 172.931 50.45 177.131 45.25C180.931 39.65 184.03 33.45 185.33 26.85C185.631 18.45 186.431 9.64999 183.23 1.64999L183.53 0.25ZM0.33 100.15C23.73 100.35 47.23 99.95 70.631 100.35C70.631 123.65 70.83 146.95 70.53 170.25C87.131 170.55 103.73 170.35 120.43 170.35C120.63 172.15 120.73 173.95 120.73 175.75C120.53 194.95 120.83 214.05 120.53 233.25C103.83 233.45 87.23 233.25 70.53 233.35C70.83 267.85 70.43 302.25 70.73 336.75C71.33 339.75 71.73 342.75 71.63 345.85C71.329 348.651 73.029 350.951 73.63 353.55C74.93 359.55 78.23 364.95 82.029 369.651C87.63 375.251 94.829 379.151 102.529 380.85C109.529 381.951 116.529 382.55 123.63 382.05C124.029 383.25 124.23 384.45 124.23 385.75C124.13 403.75 124.13 421.75 124.23 439.65C124.23 442.15 123.73 444.65 123.33 447.049C113.23 447.049 103.131 447.749 93.03 447.049C87.03 445.749 80.631 446.349 74.83 443.749C58.73 439.949 43.33 431.949 31.83 419.849C14.93 403.55 5.83 380.55 2.13 357.75C1.13 355.25 1.73 352.35 1.329 349.65C-0.0699991 344.15 0.529001 338.349 0.329001 332.75C0.230001 255.25 0.23 177.65 0.33 100.15ZM341.93 164.95C346.129 163.85 350.629 164.65 354.829 163.75C363.629 162.65 372.329 164.05 381.029 164.35C387.129 164.25 393.029 166.05 399.029 167.25C421.329 172.65 442.429 184.55 457.729 201.95C460.429 206.45 464.529 209.75 467.128 214.35C473.628 224.65 477.929 236.15 481.628 247.75C483.929 256.25 485.128 265.05 486.229 273.75C486.729 293.05 486.429 312.45 486.529 331.75C486.429 370.25 486.629 408.75 486.429 447.25C463.029 446.95 439.729 447.15 416.429 447.05C416.229 446.95 415.729 446.55 415.529 446.35C415.429 392.451 415.529 338.55 415.529 284.75C415.629 278.15 414.429 271.75 413.029 265.45C410.529 259.05 407.329 252.95 402.929 247.75C400.328 244.65 396.729 242.65 393.828 239.95C389.328 236.95 384.028 235.55 378.929 234.15C376.229 233.95 373.529 234.15 371.029 233.25C360.329 232.55 349.429 233.45 339.429 237.55C332.128 241.05 325.328 245.85 320.529 252.55C312.629 261.95 310.029 274.75 310.229 286.75C310.229 340.15 310.329 393.65 310.229 447.05C286.628 447.25 263.029 446.95 239.429 447.25C239.029 395.75 239.429 344.15 239.229 292.65C239.329 286.049 239.129 279.45 239.629 272.849C240.929 269.549 240.028 265.95 241.028 262.749C242.828 250.549 247.428 238.949 252.528 227.849C257.528 218.149 263.528 208.849 271.328 201.149C277.429 194.949 283.728 188.449 291.429 184.149C306.33 173.75 323.93 167.45 341.93 164.95ZM1179.93 164.35C1188.63 164.15 1197.23 162.45 1205.93 163.85C1210.63 164.45 1215.43 164.35 1220.13 164.55C1221.03 173.25 1220.33 182.05 1220.53 190.75V225.75C1220.53 227.95 1220.83 230.25 1219.93 232.35C1217.63 230.651 1214.53 231.25 1211.93 230.55C1201.33 229.651 1190.43 230.151 1180.43 234.151C1168.53 238.251 1158.13 246.951 1152.33 258.251C1150.63 260.351 1150.63 263.351 1148.73 265.351C1145.63 276.551 1145.43 288.251 1145.63 299.751C1145.53 348.951 1145.93 398.051 1145.43 447.251C1122.13 446.951 1098.73 447.251 1075.33 447.051C1075.13 446.851 1074.83 446.451 1074.63 446.251V285.751C1074.33 279.051 1075.83 272.551 1075.73 265.951C1077.33 262.751 1076.93 259.051 1077.93 255.751C1082.93 230.451 1096.23 206.551 1116.43 190.251C1120.33 185.851 1125.93 183.751 1130.53 180.251C1145.43 171.15 1162.73 166.75 1179.93 164.35ZM143.43 170.25C167.03 170.65 190.63 170.15 214.23 170.45C214.23 261.95 214.13 353.349 214.23 444.75C214.23 445.65 214.23 447.45 212.83 447.15H143.631C143.03 432.05 143.53 416.85 143.33 401.75C143.43 324.65 143.33 247.45 143.43 170.25ZM883.93 355.85C889.93 353.55 895.73 350.55 901.829 348.451C910.629 345.051 919.229 340.951 928.029 337.551C946.229 329.152 965.029 322.152 983.429 314.251C987.828 311.851 992.828 310.751 997.128 308.151C1002.03 306.251 1006.93 304.55 1011.73 302.35C1015.93 299.85 1020.73 298.85 1025.03 296.651C1030.73 294.35 1036.23 291.751 1042.03 289.651C1047.93 286.35 1054.53 284.751 1060.43 281.55C1062.03 280.45 1064.63 280.75 1065.63 278.85C1063.93 276.451 1064.83 273.451 1063.93 270.85C1062.63 266.151 1061.33 261.55 1060.23 256.951C1055.73 243.051 1049.23 229.751 1040.43 218.151C1029.73 202.651 1015.03 190.151 998.729 180.951C988.029 174.451 976.029 170.751 964.029 167.551C956.629 166.651 949.529 164.051 942.029 164.151C935.229 163.251 928.229 162.851 921.529 164.051C909.629 164.251 898.229 167.151 886.929 170.451C867.229 177.351 848.529 187.851 833.429 202.351C828.929 206.551 825.229 211.451 820.929 215.751C814.229 224.351 808.128 233.451 803.529 243.251C797.029 257.951 790.829 273.351 790.129 289.651C787.93 297.451 788.629 305.651 788.529 313.651C788.329 318.751 789.129 323.751 790.129 328.651C789.829 333.85 791.829 338.651 792.529 343.651C794.229 354.251 798.929 364.05 803.229 373.85C815.029 398.05 833.628 419.05 856.929 432.75C872.229 442.15 889.229 448.85 907.029 451.35C921.529 453.651 936.429 454.05 951.029 452.151C956.029 452.55 960.829 450.35 965.829 450.05C987.129 445.05 1008.03 436.05 1024.13 420.95C1028.93 417.15 1033.43 412.65 1037.23 407.849C1043.63 401.349 1048.23 393.45 1052.83 385.65C1057.23 377.349 1060.83 368.549 1063.43 359.45C1062.03 358.849 1060.43 359.05 1059.03 359.05C1035.63 359.151 1012.33 358.95 988.931 359.05C986.731 359.05 986.731 362.05 985.33 363.25C981.33 369.05 976.23 373.95 970.83 378.55C963.03 384.151 953.83 387.151 944.73 389.85C942.33 390.151 940.03 390.05 937.83 390.951C932.23 391.35 926.53 391.151 920.83 391.051C914.53 389.851 908.23 388.451 902.13 386.451C892.731 381.651 883.53 376.151 876.431 368.35C874.63 366.151 871.731 364.451 871.13 361.55C872.731 360.85 874.231 359.75 876.03 359.45C878.93 358.95 881.129 356.65 883.93 355.85ZM855.129 305.25C853.73 301.75 855.029 297.65 854.829 293.95C856.43 288.849 856.93 283.45 858.829 278.349C863.629 267.049 869.529 255.95 878.129 247.049C882.129 243.749 885.529 239.749 890.129 237.249C893.529 235.449 896.829 233.449 900.329 231.849C906.829 229.95 913.129 226.95 919.93 226.95C926.129 225.45 932.53 226.25 938.829 226.349C955.329 228.65 971.93 235.749 982.629 248.849C983.73 251.45 980.029 251.65 978.529 252.65C972.029 256.25 964.729 258.049 958.229 261.75C955.329 262.25 952.829 264.05 950.029 264.95C929.329 273.95 908.229 281.849 887.729 291.25C876.73 295.55 865.83 300.15 855.129 305.25ZM780.629 48.05C758.73 47.85 736.829 48.05 714.93 47.95C713.329 48.15 711.43 47.45 710.129 48.65C710.329 95.65 710.129 142.75 710.23 189.75C710.129 191.45 710.53 193.15 709.83 194.75C707.83 194.45 706.83 192.55 705.33 191.45C695.23 182.75 683.931 175.35 671.33 171.05C662.83 167.75 653.931 166.05 644.931 164.45C634.731 164.25 624.431 163.95 614.13 164.55C613.03 164.85 612.03 165.15 610.931 165.25C588.031 168.45 566.63 179.15 549.031 193.85C539.231 203.05 529.431 212.65 522.531 224.25C514.431 235.75 509.231 248.95 504.231 261.95C501.931 270.15 499.63 278.25 498.63 286.65C496.73 299.55 497.53 312.75 497.73 325.75C498.23 329.15 499.33 332.35 499.43 335.75C501.23 346.75 504.43 357.55 508.829 367.85C512.529 377.75 518.529 386.75 524.029 395.75C527.929 400.75 531.729 405.95 536.429 410.35C543.429 417.25 550.328 424.75 559.128 429.55C569.528 437.45 581.828 442.151 593.828 446.75C598.228 447.55 602.328 450.05 606.828 450.15C610.628 450.45 614.128 452.25 617.929 452.049C619.929 451.849 621.729 453.249 623.828 453.049C633.528 453.349 643.328 453.349 653.028 453.049C654.628 453.049 656.228 452.349 657.928 452.249C664.627 452.349 670.827 449.749 677.327 448.849C685.827 445.749 694.928 443.749 702.827 439.15C714.527 433.75 725.127 426.15 734.627 417.549C746.627 407.15 756.327 394.15 763.527 379.949C766.627 373.649 770.127 367.549 772.127 360.749C775.928 351.349 777.627 341.349 778.928 331.449C781.127 322.749 780.428 313.649 780.627 304.649C780.629 219.15 780.629 133.65 780.629 48.05ZM709.53 318.85C708.93 329.451 704.93 339.55 700.23 349.05C692.33 363.95 679.03 375.35 663.93 382.55C661.629 383.75 658.629 383.651 657.03 385.85C654.23 385.85 651.43 385.951 648.73 386.951C640.129 387.151 631.23 387.951 622.83 385.551C619.23 383.851 615.23 383.152 611.63 381.251C607.13 378.751 602.03 377.051 598.33 373.251C591.33 368.351 585.931 361.651 581.03 354.751C577.13 348.051 573.23 341.151 571.43 333.551C569.43 329.551 569.629 325.051 568.53 320.851C568.23 310.152 567.63 299.152 570.13 288.751C571.231 285.451 571.931 281.951 573.13 278.651C576.03 273.35 577.83 267.451 581.63 262.651C583.63 258.451 587.13 255.35 589.931 251.751C597.431 243.151 607.731 237.651 618.13 233.351C622.03 232.452 625.83 230.452 629.931 230.452C638.231 228.351 646.83 230.052 655.031 231.552C665.831 235.452 676.531 240.852 684.931 248.852C688.031 251.752 690.33 255.352 693.431 258.252C706.23 275.45 712.129 297.55 709.53 318.85ZM1179.33 412.05H1205.53C1205.63 414.05 1205.63 416.05 1205.53 418.05C1202.53 418.45 1199.53 417.95 1196.63 418.35C1196.23 427.35 1196.63 436.25 1196.43 445.25C1193.73 445.05 1191.03 445.05 1188.43 445.15C1188.13 438.049 1188.23 430.849 1188.33 423.75C1188.33 421.85 1188.73 419.65 1187.03 418.35C1184.43 417.951 1181.83 418.451 1179.23 418.05C1179.13 416.05 1179.13 414.05 1179.33 412.05ZM1210.33 412.15C1214.03 412.049 1217.73 411.849 1221.43 412.349C1221.23 415.249 1223.63 417.249 1224.33 419.95C1225.33 423.349 1226.83 426.55 1227.83 429.95C1228.63 431.45 1230.03 432.75 1229.53 434.65C1231.53 426.849 1234.63 419.45 1237.73 412.15C1241.23 412.049 1244.83 411.95 1248.43 412.15C1248.63 422.849 1248.43 433.75 1248.43 444.45C1246.03 444.65 1243.63 444.65 1241.13 444.45C1241.23 436.95 1241.13 429.45 1241.33 422.05C1240.43 422.85 1239.53 423.55 1238.83 424.55C1237.53 431.35 1234.03 437.55 1232.33 444.35C1230.33 444.651 1228.43 444.651 1226.43 444.451C1225.83 440.651 1223.13 437.551 1223.13 433.651C1220.43 430.35 1220.33 425.651 1218.23 421.951C1216.83 424.651 1217.93 427.85 1217.63 430.751C1217.23 435.451 1218.13 440.251 1217.23 444.951C1214.83 444.951 1212.13 445.751 1210.23 444.051C1210.53 433.45 1210.23 422.85 1210.33 412.15Z" fill="white" stroke="white" stroke-width="0.094"/>
</g>
<defs>
<clipPath id="clip0_1_181">
<rect width="1248.78" height="453.61" fill="white"/>
</clipPath>
</defs>
</svg>
