<svg width="1880" height="282" viewBox="0 0 1880 282" fill="none" xmlns="http://www.w3.org/2000/svg">
<g clip-path="url(#clip0_325_1576)">
<path fill-rule="evenodd" clip-rule="evenodd" d="M1427.19 -30.6407L1493.43 84.0834H1360.95L1427.19 -30.6407ZM1427.19 -19.9691L1370.2 78.7476H1484.18L1427.19 -19.9691Z" fill="#6359c4"/>
<path d="M1549.81 -25.3049L1611.43 81.4155H1488.2L1549.81 -25.3049Z" fill="#6359c4"/>
<path fill-rule="evenodd" clip-rule="evenodd" d="M1549.81 -30.6407L1616.05 84.0834H1483.58L1549.81 -30.6407ZM1549.81 -19.9691L1492.82 78.7476H1606.81L1549.81 -19.9691Z" fill="#6359c4"/>
<path fill-rule="evenodd" clip-rule="evenodd" d="M1549.81 181.524L1616.05 296.248H1483.58L1549.81 181.524ZM1549.81 192.196L1492.82 290.912H1606.81L1549.81 192.196Z" fill="#6359c4"/>
<path d="M1181.57 186.86L1243.19 293.58H1119.96L1181.57 186.86Z" fill="#6359c4"/>
<path fill-rule="evenodd" clip-rule="evenodd" d="M1181.57 181.524L1247.81 296.248H1115.34L1181.57 181.524ZM1181.57 192.196L1124.58 290.912H1238.57L1181.57 192.196Z" fill="#6359c4"/>
<path fill-rule="evenodd" clip-rule="evenodd" d="M1243.03 75.1313L1309.26 189.855H1176.79L1243.03 75.1313ZM1243.03 85.803L1186.03 184.52H1300.02L1243.03 85.803Z" fill="#6359c4"/>
<path d="M1366.02 80.4669L1427.64 187.187H1304.41L1366.02 80.4669Z" fill="#6359c4"/>
<path fill-rule="evenodd" clip-rule="evenodd" d="M1366.02 75.131L1432.26 189.855H1299.79L1366.02 75.131ZM1366.02 85.8026L1309.03 184.519H1423.02L1366.02 85.8026Z" fill="#6359c4"/>
<path d="M1610.98 80.4672L1672.6 187.188H1549.37L1610.98 80.4672Z" fill="#6359c4"/>
<path fill-rule="evenodd" clip-rule="evenodd" d="M1610.98 75.1313L1677.22 189.855H1544.75L1610.98 75.1313ZM1610.98 85.803L1553.99 184.52H1667.98L1610.98 85.803Z" fill="#6359c4"/>
<path fill-rule="evenodd" clip-rule="evenodd" d="M1304.85 181.524L1371.09 296.248H1238.62L1304.85 181.524ZM1304.85 192.196L1247.86 290.912H1361.85L1304.85 192.196Z" fill="#6359c4"/>
<path fill-rule="evenodd" clip-rule="evenodd" d="M1059.24 181.524L1125.47 296.248H993L1059.24 181.524ZM1059.24 192.196L1002.24 290.912H1116.23L1059.24 192.196Z" fill="#6359c4"/>
<path d="M1794.68 186.86L1856.29 293.58H1733.06L1794.68 186.86Z" fill="#6359c4"/>
<path fill-rule="evenodd" clip-rule="evenodd" d="M1794.68 181.524L1860.91 296.248H1728.44L1794.68 181.524ZM1794.68 192.196L1737.68 290.912H1851.67L1794.68 192.196Z" fill="#6359c4"/>
<path fill-rule="evenodd" clip-rule="evenodd" d="M1856.13 75.1313L1922.37 189.855H1789.9L1856.13 75.1313ZM1856.13 85.803L1799.14 184.52H1913.13L1856.13 85.803Z" fill="#6359c4"/>
<path fill-rule="evenodd" clip-rule="evenodd" d="M1917.96 181.524L1984.19 296.248H1851.72L1917.96 181.524ZM1917.96 192.196L1860.96 290.912H1974.95L1917.96 192.196Z" fill="#6359c4"/>
<path fill-rule="evenodd" clip-rule="evenodd" d="M1672.34 181.524L1738.58 296.248H1606.1L1672.34 181.524ZM1672.34 192.196L1615.35 290.912H1729.33L1672.34 192.196Z" fill="#6359c4"/>
<path d="M1915.57 -30.3356L1977.19 76.3848H1853.96L1915.57 -30.3356Z" fill="#6359c4"/>
<path fill-rule="evenodd" clip-rule="evenodd" d="M1915.57 -35.6715L1981.81 79.0526H1849.34L1915.57 -35.6715ZM1915.57 -24.9999L1858.58 73.7168H1972.57L1915.57 -24.9999Z" fill="#6359c4"/>
<path fill-rule="evenodd" clip-rule="evenodd" d="M1793.24 -35.6715L1859.47 79.0526H1727L1793.24 -35.6715ZM1793.24 -24.9999L1736.24 73.7168H1850.23L1793.24 -24.9999Z" fill="#6359c4"/>
</g>
<defs>
<clipPath id="clip0_325_1576">
<rect width="1880" height="282" fill="white"/>
</clipPath>
</defs>
</svg>
