<svg width="164" height="164" viewBox="0 0 164 164" fill="none" xmlns="http://www.w3.org/2000/svg">
<g clip-path="url(#clip0_1_183)">
<path d="M81.9746 0C127.124 0 163.95 36.8248 163.95 81.9746C163.95 127.125 127.126 163.95 81.9746 163.95C36.8248 163.949 0 127.124 0 81.9746C0.000211572 36.8249 36.8249 0.000211597 81.9746 0ZM124.16 47.1025C123.416 47.4385 122.635 47.4761 121.996 48.041C120.697 49.177 119.558 50.5987 118.516 51.9307C118.039 52.5187 117.563 53.1084 117.086 53.6934C116.844 53.9174 116.397 54.2861 116.037 54.2861C115.943 54.1462 115.764 53.9482 115.764 53.7402C115.618 53.2153 115.641 52.6862 115.34 52.2402C114.367 50.7882 112.348 52.3153 111.803 53.4062C111.317 54.3752 111.153 55.4915 110.774 56.5234L108.514 63.9424C108.389 64.8981 108.264 65.8519 108.135 66.8066C107.848 67.8176 107.457 68.733 107.28 69.8359C107.061 71.1738 106.569 74.5153 107.753 75.4336C108.142 75.7325 108.564 75.823 109.101 75.832C110.986 75.861 111.933 74.3461 112.453 72.8291C113.697 69.1692 114.758 65.4663 116.336 61.9824C117.057 60.3795 117.631 59.2174 118.92 57.8965C119.248 57.5555 119.619 57.12 120.078 56.998C120.871 56.7851 121.205 57.4135 121.195 58.1045C121.179 59.1123 120.89 60.1705 120.72 61.1104C120.482 62.4931 120.245 63.8809 120.005 65.2637C119.8 66.2237 119.39 67.6394 119.439 68.6514C119.465 69.2452 119.675 69.8173 120.015 70.2402C120.408 70.7312 121.29 71.0671 121.247 71.8281C121.173 73.0782 116.737 75.519 115.671 75.9189C113.673 76.6639 111.95 78.0991 110.245 79.4121C109.405 80.0061 108.569 80.6004 107.731 81.1914C106.453 82.0974 105.026 82.8904 103.649 83.6094C102.713 84.2174 101.778 84.8286 100.842 85.4355C100.076 85.8895 99.3129 86.3449 98.5469 86.7969C97.8129 87.3029 97.0758 87.8124 96.3398 88.3184C95.652 88.7783 95.0939 89.4799 94.3711 89.8789C94.2711 89.9299 93.582 90.1346 93.582 89.9326H93.4902C93.4903 88.9148 93.7087 87.9605 93.8057 87.0176L93.8672 84.2041C93.9372 83.2953 94.012 82.3893 94.084 81.4795C94.272 79.3166 94.8223 77.2143 95.2793 75.1934C95.6703 73.4434 95.9838 71.6329 96.3838 69.9219C96.6358 68.8388 97.7939 64.287 95.9434 63.9746C94.7594 63.7726 93.3325 64.5604 92.6895 65.4814C91.6036 67.0183 91.1342 68.8708 90.5312 70.6416C89.6793 73.1325 88.6352 75.7848 87.4473 78.0947C87.1213 78.7246 85.5625 82.0204 84.8184 82.0215C84.2774 81.0955 84.656 79.4416 84.916 78.4756C84.9373 78.3884 85.0657 78.2033 84.9102 78.2031C85.3031 77.2573 85.5059 75.9354 85.8418 74.9385C86.2758 73.6395 86.9694 72.3504 87.6084 71.1475C87.9094 70.5785 88.4067 69.8086 88.8867 69.3506C89.2417 69.0656 89.6001 68.783 89.9551 68.498C90.7868 67.7372 91.3607 66.7359 91.5977 65.6338C91.9476 64.0538 91.522 60.7928 89.6514 60.6104C89.2124 60.5664 88.727 60.7642 88.374 60.9092C85.985 61.8752 85.1284 64.7635 84.1514 66.8145C82.1835 70.9382 80.5023 75.1899 79.5693 79.8506C79.1314 82.0324 79.122 84.3437 78.9131 86.6426C78.6971 88.9965 78.6139 91.9208 80.3086 93.5039C82.1006 95.1779 85.4685 92.0827 86.6035 90.7217C86.8435 90.4317 88.1217 88.477 88.3789 88.4766V88.3867H88.4688V88.5693C88.8126 89.5302 88.5736 90.9067 88.5605 91.9326C88.5375 93.3505 88.233 95.3577 87.5811 96.4258C87.1181 97.1718 86.4249 97.5999 85.7939 98.1729C84.5299 99.3129 83.1479 100.258 81.9609 101.444C80.88 102.518 80.1619 103.855 78.958 104.814C78.0451 105.539 76.8708 105.832 75.8779 106.391C75.2529 106.741 74.8106 107.298 74.2656 107.776C73.9069 108.059 73.5512 108.343 73.1914 108.628C71.8994 109.72 71.5396 111.467 70.1846 112.527L68.7812 113.504C66.8904 114.968 65.0363 116.508 63.1484 117.975C61.6394 119.14 60.1466 120.287 58.7236 121.575C57.5387 122.582 56.3587 123.588 55.1748 124.591C54.8388 124.892 54.5021 125.193 54.1621 125.491C53.2752 126.306 52.3908 127.122 51.5039 127.935C50.4309 128.999 49.4439 130.194 48.2119 131.108C47.276 131.798 46.124 132.424 45.4141 133.411C45.1631 133.758 44.8799 134.13 44.7119 134.513C44.2869 135.477 43.799 138.125 44.5918 139.003C46.5408 141.159 51.666 134.922 53.085 133.715C55.3148 131.809 57.2497 129.543 59.3945 127.54C63.3096 123.864 67.1385 120.097 70.877 116.242C71.675 115.418 72.671 114.982 73.582 114.381C74.5279 113.75 75.2808 112.841 76.0137 111.987C76.3625 111.637 76.7097 111.292 77.0586 110.941C78.3096 109.828 79.5634 108.714 80.8154 107.597C81.4603 107.134 82.1526 106.858 82.7744 106.346C82.9853 106.074 83.1974 105.801 83.4043 105.529C83.9242 104.881 84.7647 103.977 85.5146 103.675C85.6746 103.61 86.0232 103.615 86.1582 103.709C86.4021 103.877 86.4651 104.189 86.4961 104.485C86.4321 105.181 86.3687 105.878 86.3027 106.574C86.1657 108.756 86.0297 110.94 85.8887 113.123C85.9437 115.237 85.7703 117.548 85.7393 119.668L85.7471 122.851C85.7161 124.817 85.8084 126.965 85.9014 128.944C85.9933 130.892 85.9933 132.851 86.1123 134.76C86.1963 135.882 86.2784 137.005 86.3604 138.127L86.2842 141.128C86.2842 143.021 86.5109 147.095 87.7959 148.149C88.2508 148.524 88.7569 148.629 89.3877 148.592C89.9917 148.552 90.5048 148.416 90.9678 148.134C93.9057 146.324 92.0875 140.37 91.8594 137.487L91.0615 131.21L90.4121 123.939C90.2581 122.337 90.2559 120.671 90.2559 119.035C90.2559 114.809 90.5243 110.462 91.1543 106.489C91.4663 104.491 91.8427 102.013 92.6396 100.249C93.3646 98.629 94.8393 97.106 96.2793 96.001C96.9292 95.583 97.5805 95.1661 98.2324 94.7451C99.5033 93.9341 100.738 92.8809 101.834 91.793C102.52 91.107 103.074 90.3141 103.84 89.7041C104.85 88.8922 105.979 88.4312 107.049 87.7793C107.723 87.3673 108.26 86.6462 108.908 86.2002C110.64 84.9982 112.623 84.0856 114.445 83.0566L116.812 81.4541C120.587 79.1767 124.442 77.0339 128.369 75.0293C130.998 73.6823 133.615 72.355 136.455 71.415C137.611 70.932 138.767 70.4479 139.918 69.9619C140.523 69.658 141.203 69.2293 141.887 69.0723C143.033 68.8053 144.352 69.3419 145.325 69.5859C145.77 69.6979 146.404 69.6543 146.897 69.6543L148.047 69.2275C148.576 69.0035 149.072 68.5662 149.449 68.1143C149.826 67.6564 150.088 67.0343 150.303 66.4834C151.102 64.4054 152.164 61.8941 149.848 60.1641C149.393 59.8231 148.811 59.5104 148.172 59.4824C146.307 59.3945 144.686 60.4105 143.217 61.1445C142.66 61.3375 142.108 61.5317 141.551 61.7207C140.817 62.0447 140.188 62.6792 139.463 63.0342C138.717 63.3921 137.891 63.5824 137.168 63.9834C136.27 64.4434 135.371 64.9044 134.473 65.3613C133.287 65.9663 131.707 66.853 130.278 66.9531C129.604 66.9951 128.544 66.6432 128.051 66.2402C127.131 65.4783 126.197 64.4471 125.942 63.2793C125.565 61.5853 126.044 59.611 126.296 58.002L126.556 55.1064C126.644 53.9784 126.87 52.7846 126.91 51.5596C126.943 50.4657 126.976 49.167 126.451 48.2871C125.938 47.4411 125.199 47.1336 124.16 47.1025ZM78.8838 10.6387C78.2878 10.8837 77.6178 11.1441 77.1758 11.6621C76.0119 13.0121 75.2883 14.6234 74.4443 16.1523C72.9354 18.8663 71.2207 21.5623 70.0967 24.4492C69.7967 25.1171 69.4983 25.7842 69.1953 26.4521L68.4453 28.3916C68.0343 29.3545 67.8288 30.4088 67.4209 31.3447C67.0219 32.2507 66.2948 32.9731 65.8408 33.8281L64.0518 37.3906C63.7088 38.1606 63.3703 38.9302 63.0283 39.6982C62.5323 40.6332 61.9469 41.5323 61.5049 42.4893C60.624 44.3901 60.001 46.4468 59.2891 48.4355L57.6885 52.3184L55.917 56.5293C54.251 60.0272 53.0241 63.8005 51.6211 67.4414L50.5879 70.2881L47.9609 77.8389C46.1209 83.1379 45.0094 88.7252 43.2344 94.0352C42.8234 95.2571 42.4329 96.4959 42.1299 97.7549C41.8649 98.8438 41.7543 100.188 41.0264 101.034C40.8755 101.208 40.5753 101.372 40.3594 101.196C39.8774 100.8 39.7143 93.8435 39.6113 92.5664C39.2033 87.5535 39.3574 82.1283 39.4404 77.1084C39.5054 72.8884 39.4264 68.5181 39.3604 64.2871L39.2686 61.1045C39.2686 58.9906 39.3371 52.9741 37.0693 52.5986C34.6285 52.1927 32.9085 57.8771 32.2773 59.4297C31.5893 61.1177 31.3869 63.0815 30.9229 64.8975C30.5369 66.3833 30.0129 67.7812 29.46 69.165C27.697 73.547 24.8756 77.3939 23.2236 81.8379C22.8786 82.7639 22.4912 83.761 22.3252 84.751C22.1062 86.0239 22.1909 88.743 23.3008 89.4541C24.1228 89.9781 25.3207 89.8196 26.0107 89.1826C26.6556 88.5827 27.038 86.9115 27.4629 86.0664C27.8449 85.2644 28.2274 84.466 28.6074 83.665C29.1034 82.6082 29.7788 81.6171 30.2578 80.5312C30.8478 79.1912 31.054 77.6498 31.624 76.3008C31.87 75.8629 32.1154 75.4263 32.3604 74.9854C32.7053 74.2564 33.0496 73.525 33.3945 72.791C33.4465 72.703 33.5692 72.5605 33.7002 72.5605V72.6523C34.0031 73.2573 34.0818 74.0364 34.1738 74.7402C34.3198 75.8622 34.4733 76.9904 34.5303 78.1963C34.7163 82.1881 34.7959 86.266 34.7959 90.3828C34.7959 94.0768 34.9988 97.7751 35.4678 101.289L36.0508 105.113C36.3928 108.191 36.3934 111.369 36.6934 114.479C36.9353 116.812 37.1769 119.149 37.4209 121.481C37.5768 122.899 37.441 125.306 38.2617 126.297C38.8517 127.011 39.7078 126.937 40.6377 126.937C41.2217 126.531 41.6361 126.556 42.1211 125.888C42.9799 124.7 42.783 123.015 42.834 121.39C42.891 119.5 42.9421 117.529 43.1221 115.661C43.4551 112.151 43.9407 108.724 44.6797 105.39C44.9677 104.083 45.4842 102.85 45.7861 101.551C45.9201 100.767 46.0574 99.9831 46.1914 99.1982C46.2284 98.3483 46.1821 97.4361 46.3281 96.6611C46.6201 95.0722 47.3441 93.7112 47.9141 92.2793C48.0971 91.8103 48.0913 91.216 48.1562 90.668C48.2792 90.0911 48.4054 89.5183 48.5273 88.9404C49.1233 86.8144 49.7205 84.6886 50.3135 82.5596C50.3453 82.4187 50.7088 81.4688 50.5869 81.4688C50.9178 80.7778 51.0166 79.9508 51.2656 79.2129L52.9004 73.749L57.0078 60.749C57.6873 58.786 58.3655 56.8225 59.042 54.8584C60.75 51.0504 62.7224 47.2626 64.3994 43.4316C65.1093 41.8008 65.6997 40.0845 66.2246 38.3457C66.5476 37.2658 66.6303 36.2842 67.1152 35.2812C67.5652 34.3403 68.4504 33.723 69.0664 32.877C70.0333 31.5391 71.0596 30.2508 71.8096 28.7959C73.1165 26.253 73.7777 23.0437 76.6016 21.6406C76.9046 21.4876 77.1792 21.2396 77.5352 21.1826C78.5789 21.006 78.9983 23.1455 79.4922 23.7656C79.6832 24.0036 79.9821 24.1752 80.2451 24.2832C80.73 24.482 81.2689 24.2745 81.8047 24.2744C82.2956 23.8885 82.7151 23.5981 82.9551 22.9873C83.925 20.4974 82.9582 13.9474 81.5723 12.0352C80.8963 11.1082 80.0828 10.7157 78.8838 10.6387ZM63.458 76.1104C59.5302 77.9344 59.0168 84.6876 58.0469 88.5576L57.1992 91.8105C56.8743 92.7774 56.5095 93.7949 56.3555 94.8438C56.0045 97.2078 56.0592 101.751 59.0762 101.751L59.8984 101.66C60.7762 100.97 61.2279 100.898 61.6729 99.7314C62.0748 98.6625 62.0226 97.3492 62.1025 96.1133C62.2315 95.0854 62.3603 94.0562 62.4863 93.0273C62.7973 90.9753 63.1906 88.9497 63.5586 86.9287C63.8546 85.2748 64.4487 83.6896 64.7217 82.0156C64.9958 80.3205 66.0198 76.5204 63.458 76.1104ZM75.6904 67.0166C75.1034 67.2096 74.5319 67.2845 74.0439 67.6475C73.3941 68.1275 73.025 68.8804 72.623 69.5264C72.0361 70.4663 71.4626 71.4131 70.9316 72.373C70.7657 72.666 70.5497 73.0206 70.2588 73.2256C69.7569 73.5725 69.1234 73.729 68.7783 74.3057C68.1423 75.3597 67.9479 76.5541 67.7139 77.8301C67.3489 79.808 67.0146 81.8198 66.8496 83.9307C66.7236 85.4927 66.5931 90.365 67.3701 91.415C67.7431 91.924 68.4762 92.0234 69.1191 92.0234C69.4371 91.8954 70.0125 91.9316 70.3965 91.9316C70.9553 91.5878 71.5229 91.3317 71.8848 90.7119C72.212 90.1496 72.4597 89.5446 72.6201 88.9141C73.1221 86.9052 73.2787 84.7403 73.5557 82.6504C73.6607 81.6535 73.7671 80.6552 73.8701 79.6562C73.9471 79.2953 74.1029 78.6673 74.4717 78.4971C74.9677 78.2641 75.7581 78.6562 76.3291 78.6562C76.5651 78.5513 76.8021 78.4459 77.0361 78.3369C77.4381 78.1289 77.7687 77.7235 78.0146 77.3506C78.2256 76.8508 78.4404 76.3543 78.6514 75.8545C79.5383 73.2626 79.3441 70.7302 77.7783 68.5713C76.9944 67.4894 77.293 67.2716 75.6904 67.0166ZM102.893 57.5596C102.43 57.8015 101.981 58.047 101.672 58.5029C100.781 59.8109 100.404 61.5272 99.9883 63.0732C99.5193 64.7951 99.0353 66.5559 98.6523 68.3037C98.1813 70.4347 97.8381 72.5444 97.2441 74.5674C96.8182 76.0025 96.3571 79.315 98.3359 79.792C99.5979 80.094 101.025 79.3518 101.641 78.3438C102.471 76.9718 102.545 75.0437 102.832 73.3877C103.115 71.7488 103.793 70.2139 104.016 68.583C104.168 67.3301 104.323 66.0801 104.473 64.8262C104.791 63.2722 105.965 62.0331 105.676 60.2051C105.422 58.6111 104.67 57.6166 102.893 57.5596ZM63.8242 60.1973C63.4133 60.4302 62.9689 60.6258 62.7119 61.0605C62.358 61.6484 62.2269 62.3527 62.1699 63.1025C62.0239 64.9355 62.287 66.709 64.1318 67.374C65.3017 67.794 66.2569 66.5844 66.708 65.7744C66.748 65.6974 66.9019 65.5606 66.7451 65.5605C67.1589 64.0115 66.8359 61.1032 65.2393 60.3721C64.8563 60.1971 64.3062 60.1973 63.8242 60.1973ZM109.189 40.2832C108.794 40.6492 108.345 40.8711 108.097 41.3711C107.785 41.99 107.827 42.7939 107.816 43.5537C107.8 43.9457 107.787 44.3385 107.769 44.7305C107.921 46.2332 108.9 46.9784 110.46 46.6904C111.55 46.4864 111.681 45.181 111.868 44.29C112.005 43.619 112.3 42.7946 112.151 42.0186C112.065 41.5837 111.823 41.119 111.469 40.8311C110.857 40.3322 110.084 40.2832 109.189 40.2832Z" fill="white"/>
</g>
<defs>
<clipPath id="clip0_1_183">
<rect width="163.95" height="163.95" fill="white"/>
</clipPath>
</defs>
</svg>
