<svg width="399" height="138" viewBox="0 0 399 138" fill="none" xmlns="http://www.w3.org/2000/svg">
<g clip-path="url(#clip0_337_1193)">
<path d="M396.186 27.7436L419.28 67.7451H373.091L396.186 27.7436Z" stroke="#F5AB76" stroke-width="2"/>
<path d="M304.122 107.268L327.217 147.27H281.027L304.122 107.268Z" fill="#F5AB76" stroke="#F5AB76" stroke-width="2"/>
<path d="M327.157 67.3896L350.252 107.391H304.063L327.157 67.3896Z" stroke="#F5AB76" stroke-width="2"/>
<path d="M373.258 67.3895L396.353 107.391H350.163L373.258 67.3895Z" fill="#F5AB76" stroke="#F5AB76" stroke-width="2"/>
<path d="M348.555 26.9673L325.46 -13.0341L371.65 -13.0341L348.555 26.9673Z" fill="#F5AB76" stroke="#F5AB76" stroke-width="2"/>
<path d="M373.258 -12.135L396.353 27.8664H350.163L373.258 -12.135Z" stroke="#F5AB76" stroke-width="2"/>
<path d="M419.221 -12.135L442.316 27.8664H396.126L419.221 -12.135Z" fill="#F5AB76" stroke="#F5AB76" stroke-width="2"/>
<path d="M350.331 107.268L373.426 147.27H327.236L350.331 107.268Z" stroke="#F5AB76" stroke-width="2"/>
<path d="M258.267 107.268L281.362 147.27H235.173L258.267 107.268Z" stroke="#F5AB76" stroke-width="2"/>
</g>
<defs>
<clipPath id="clip0_337_1193">
<rect width="399" height="138" fill="white"/>
</clipPath>
</defs>
</svg>
