<svg xmlns="http://www.w3.org/2000/svg" xmlns:xlink="http://www.w3.org/1999/xlink" viewBox="0 0 610.55 837.6"><defs><linearGradient id="linear-gradient" x1="296.12" y1="218.88" x2="201.6" y2="822.07" gradientUnits="userSpaceOnUse"><stop offset="0" stop-color="#c02e68"/><stop offset="1" stop-color="#842e68"/><stop offset="1" stop-color="#c62e68"/></linearGradient></defs><g id="Layer_2" data-name="Layer 2"><g id="Layer_1-2" data-name="Layer 1"><path d="M290.38,710.24S491.7,592.8,378.46,503.33-63.33,369.11,10.77,191.56s208.31-74.1,316-104.86S465.14-1.37,502.88,0s109,44.73,107.65,85.28-41.94,83.88-37.74,47.53S509.87,32.18,437.17,65.73,317.73,124.11,254,121.66c-109-4.2-200.64,5-181.78,104.85C98.71,366.56,292,395.67,398.82,441.81S501.49,640.33,444.17,727,354.69,833.27,333.72,837.46,272.2,749.38,290.38,710.24Z" style="fill:url(#linear-gradient)"/></g></g></svg>