<svg xmlns="http://www.w3.org/2000/svg" xmlns:xlink="http://www.w3.org/1999/xlink" viewBox="0 0 978.06 761.29"><defs><linearGradient id="linear-gradient" x1="246.93" y1="980.48" x2="555.19" y2="52.27" gradientUnits="userSpaceOnUse"><stop offset="0" stop-color="#bb2e68"/><stop offset="0.71" stop-color="#e04168"/><stop offset="1" stop-color="#f14968"/></linearGradient></defs><g id="Layer_2" data-name="Layer 2"><g id="Layer_1-2" data-name="Layer 1"><path d="M106.89,6.74s32.16,11.18,61.52,169.17,137,524.27,405.43,500.5S1007.24,440.14,887,280.76,531.9,99,492.76,199.67s-.63,223.69,24.15,230.68,47.15-92.56,90.49-88.22,130,35.1,131.41,78.43-16.77,23.77-22.37,7-74.09-4.2-95.06,12.58-78.29,41.94-111.85,33.55-99.26-90.87-72.7-213.9S538.89,79.44,671.71,113s325.74,148.2,304.77,309C955.65,581.68,849.26,723.94,620,756.1S221.53,666.62,147.44,511.44C73,355.44-4.44,141,.2,69.65S83.13-8.64,106.89,6.74Z" style="fill:url(#linear-gradient)"/></g></g></svg>