<svg xmlns="http://www.w3.org/2000/svg" xmlns:xlink="http://www.w3.org/1999/xlink" viewBox="0 0 993.24 822.69"><defs><radialGradient id="radial-gradient" cx="496.62" cy="411.35" fx="439.7156771258193" fy="520.0392417139816" r="679.33" gradientTransform="translate(0 -2056.73) scale(1 6)" gradientUnits="userSpaceOnUse"><stop offset="0" stop-color="#bb2e68"/><stop offset="0.71" stop-color="#e04168"/><stop offset="1" stop-color="#f14968"/></radialGradient></defs><g id="Layer_2" data-name="Layer 2"><g id="Layer_1-2" data-name="Layer 1"><path d="M843.26,163.29s3.15,77.59-44,114.29-114.29,81.79-215-57.15S323.19-63.2,180.58,29.08-89.94,244,84.12,402.36,362.71,552.88,362.71,663,167,759.91,135.5,734.74c-33.66-26.92-22-68.15-22-87,0-16.42-15.73-18.88-17.83,3.14s-9.43,97.52,43,123.73,198.18,79.69,256.89,23.07,25.17-189.79-7.33-221.25S169.43,385.62,133.4,323.72c-40.89-70.26,2.56-127.9,65-174.06,96.46-71.3,162.52-30.41,281,127.92,74.56,99.63,138,204.57,266.33,188.74,142.85-17.62,260-263.19,246.41-295.69S860,105.62,843.26,163.29Z" style="fill:url(#radial-gradient)"/></g></g></svg>