<svg xmlns="http://www.w3.org/2000/svg" xmlns:xlink="http://www.w3.org/1999/xlink" viewBox="0 0 636.8 762.45"><defs><linearGradient id="linear-gradient" x1="314.23" y1="522.9" x2="556.4" y2="18.38" gradientUnits="userSpaceOnUse"><stop offset="0" stop-color="#c02e68"/><stop offset="1" stop-color="#842e68"/><stop offset="1" stop-color="#c62e68"/></linearGradient></defs><g id="Layer_2" data-name="Layer 2"><g id="Layer_1-2" data-name="Layer 1"><path d="M510.66,65S533.46,244.75,452,313.82c-100.66,85.28-366.29-41.95-425,96.46-70.27,165.63-7,341.13,236.27,350.91S596,723.45,589,625.58,429.58,555.68,398.82,585s-36.35,43.34-33.55,57.32,12.58,8.39,25.16-7,93.67-14,92.27,9.79.52,42.55-57.28,67.1c-56,23.77-161.16,38.2-261.47-4.19C64.68,666.13,54.89,496.39,105.23,448c71.3-68.51,277.07,16.13,374.93-30.78,82.29-39.44,128.37-143.09,147.94-212.74s0-198.27,0-198.27C584.76-14.73,521.85,20.22,510.66,65Z" style="fill:url(#linear-gradient)"/></g></g></svg>