<svg width="1880" height="282" viewBox="0 0 1880 282" fill="none" xmlns="http://www.w3.org/2000/svg">
<g clip-path="url(#clip0_325_1394)">
<g clip-path="url(#clip1_325_1394)">
<path fill-rule="evenodd" clip-rule="evenodd" d="M1717.63 208.234L1775.88 241.861V309.116L1717.63 342.743L1659.39 309.116V241.861L1717.63 208.234ZM1717.63 213.816L1664.22 244.652V306.325L1717.63 337.161L1771.04 306.325V244.652L1717.63 213.816Z" fill="#5AD4C0"/>
<path d="M1828.74 211.025L1884.57 243.257V307.72L1828.74 339.952L1772.91 307.72V243.257L1828.74 211.025Z" fill="#5AD4C0"/>
<path fill-rule="evenodd" clip-rule="evenodd" d="M1828.74 208.234L1886.98 241.861V309.116L1828.74 342.743L1770.5 309.116V241.861L1828.74 208.234ZM1828.74 213.816L1775.33 244.652V306.325L1828.74 337.161L1882.15 306.325V244.652L1828.74 213.816Z" fill="#5AD4C0"/>
<path d="M1662.21 114.626L1718.04 146.858V211.322L1662.21 243.554L1606.38 211.322V146.858L1662.21 114.626Z" fill="#5AD4C0"/>
<path fill-rule="evenodd" clip-rule="evenodd" d="M1662.21 111.835L1720.46 145.463V212.717L1662.21 246.345L1603.97 212.717V145.463L1662.21 111.835ZM1662.21 117.418L1608.8 148.254V209.926L1662.21 240.762L1715.62 209.926V148.254L1662.21 117.418Z" fill="#5AD4C0"/>
<path fill-rule="evenodd" clip-rule="evenodd" d="M1606.79 16L1665.03 49.6274V116.882L1606.79 150.51L1548.55 116.882V49.6274L1606.79 16ZM1606.79 21.5825L1553.38 52.4187V114.091L1606.79 144.927L1660.2 114.091V52.4187L1606.79 21.5825Z" fill="#5AD4C0"/>
<path d="M1717.63 18.7912L1773.46 51.023V115.487L1717.63 147.718L1661.81 115.487V51.023L1717.63 18.7912Z" fill="#5AD4C0"/>
<path fill-rule="evenodd" clip-rule="evenodd" d="M1717.63 16L1775.88 49.6274V116.882L1717.63 150.51L1659.39 116.882V49.6274L1717.63 16ZM1717.63 21.5825L1664.22 52.4187V114.091L1717.63 144.927L1771.04 114.091V52.4187L1717.63 21.5825Z" fill="#5AD4C0"/>
<path fill-rule="evenodd" clip-rule="evenodd" d="M1884.16 111.835L1942.41 145.463V212.717L1884.16 246.345L1825.92 212.717V145.463L1884.16 111.835ZM1884.16 117.418L1830.75 148.254V209.926L1884.16 240.762L1937.57 209.926V148.254L1884.16 117.418Z" fill="#5AD4C0"/>
<path fill-rule="evenodd" clip-rule="evenodd" d="M1773.32 111.835L1831.56 145.463V212.717L1773.32 246.345L1715.07 212.717V145.463L1773.32 111.835ZM1773.32 117.418L1719.91 148.254V209.926L1773.32 240.762L1826.73 209.926V148.254L1773.32 117.418Z" fill="#5AD4C0"/>
<path fill-rule="evenodd" clip-rule="evenodd" d="M1382.63 16.2337L1440.88 49.8611V117.116L1382.63 150.743L1324.39 117.116V49.8611L1382.63 16.2337ZM1382.63 21.8162L1329.22 52.6524V114.325L1382.63 145.161L1436.04 114.325V52.6524L1382.63 21.8162Z" fill="#5AD4C0"/>
<path d="M1493.74 19.025L1549.57 51.2568V115.72L1493.74 147.952L1437.91 115.72V51.2568L1493.74 19.025Z" fill="#5AD4C0"/>
<path fill-rule="evenodd" clip-rule="evenodd" d="M1493.74 16.2338L1551.98 49.8612V117.116L1493.74 150.743L1435.5 117.116V49.8612L1493.74 16.2338ZM1493.74 21.8163L1440.33 52.6524V114.325L1493.74 145.161L1547.15 114.325V52.6524L1493.74 21.8163Z" fill="#5AD4C0"/>
<path fill-rule="evenodd" clip-rule="evenodd" d="M1493.74 208.468L1551.98 242.096V309.351L1493.74 342.978L1435.5 309.351V242.096L1493.74 208.468ZM1493.74 214.051L1440.33 244.887V306.559L1493.74 337.395L1547.15 306.559V244.887L1493.74 214.051Z" fill="#5AD4C0"/>
<path d="M1160.09 211.26L1215.92 243.491V307.955L1160.09 340.187L1104.26 307.955V243.491L1160.09 211.26Z" fill="#5AD4C0"/>
<path fill-rule="evenodd" clip-rule="evenodd" d="M1160.09 208.468L1218.33 242.096V309.351L1160.09 342.978L1101.84 309.351V242.096L1160.09 208.468ZM1160.09 214.051L1106.68 244.887V306.559L1160.09 337.395L1213.5 306.559V244.887L1160.09 214.051Z" fill="#5AD4C0"/>
<path fill-rule="evenodd" clip-rule="evenodd" d="M1215.77 112.07L1274.02 145.697V212.952L1215.77 246.58L1157.53 212.952V145.697L1215.77 112.07ZM1215.77 117.652L1162.36 148.489V210.161L1215.77 240.997L1269.18 210.161V148.489L1215.77 117.652Z" fill="#5AD4C0"/>
<path d="M1327.21 114.861L1383.04 147.093V211.556L1327.21 243.788L1271.38 211.556V147.093L1327.21 114.861Z" fill="#5AD4C0"/>
<path fill-rule="evenodd" clip-rule="evenodd" d="M1327.21 112.07L1385.46 145.697V212.952L1327.21 246.579L1268.97 212.952V145.697L1327.21 112.07ZM1327.21 117.652L1273.8 148.488V210.161L1327.21 240.997L1380.62 210.161V148.488L1327.21 117.652Z" fill="#5AD4C0"/>
<path d="M1327.21 -77.3736L1383.04 -45.1418V19.3218L1327.21 51.5536L1271.38 19.3218V-45.1418L1327.21 -77.3736Z" fill="#5AD4C0"/>
<path fill-rule="evenodd" clip-rule="evenodd" d="M1327.21 -80.1649L1385.46 -46.5374V20.7174L1327.21 54.3448L1268.97 20.7174V-46.5374L1327.21 -80.1649ZM1327.21 -74.5823L1273.8 -43.7462V17.9262L1327.21 48.7623L1380.62 17.9262V-43.7462L1327.21 -74.5823Z" fill="#5AD4C0"/>
<path fill-rule="evenodd" clip-rule="evenodd" d="M1549.16 -80.1649L1607.41 -46.5374V20.7174L1549.16 54.3448L1490.92 20.7174V-46.5374L1549.16 -80.1649ZM1549.16 -74.5823L1495.75 -43.7462V17.9262L1549.16 48.7623L1602.57 17.9262V-43.7462L1549.16 -74.5823Z" fill="#5AD4C0"/>
<path d="M1549.16 114.861L1604.99 147.093V211.557L1549.16 243.788L1493.33 211.557V147.093L1549.16 114.861Z" fill="#5AD4C0"/>
<path fill-rule="evenodd" clip-rule="evenodd" d="M1549.16 112.07L1607.41 145.697V212.952L1549.16 246.58L1490.92 212.952V145.697L1549.16 112.07ZM1549.16 117.652L1495.75 148.489V210.161L1549.16 240.997L1602.57 210.161V148.489L1549.16 117.652Z" fill="#5AD4C0"/>
<path fill-rule="evenodd" clip-rule="evenodd" d="M1438.32 -80.1649L1496.56 -46.5374V20.7174L1438.32 54.3448L1380.07 20.7174V-46.5374L1438.32 -80.1649ZM1438.32 -74.5823L1384.91 -43.7462V17.9262L1438.32 48.7623L1491.73 17.9262V-43.7462L1438.32 -74.5823Z" fill="#5AD4C0"/>
<path fill-rule="evenodd" clip-rule="evenodd" d="M1271.79 208.468L1330.03 242.096V309.351L1271.79 342.978L1213.55 309.351V242.096L1271.79 208.468ZM1271.79 214.051L1218.38 244.887V306.559L1271.79 337.395L1325.2 306.559V244.887L1271.79 214.051Z" fill="#5AD4C0"/>
<path fill-rule="evenodd" clip-rule="evenodd" d="M1049.24 208.468L1107.49 242.096V309.351L1049.24 342.978L991 309.351V242.096L1049.24 208.468ZM1049.24 214.051L995.835 244.887V306.559L1049.24 337.395L1102.65 306.559V244.887L1049.24 214.051Z" fill="#5AD4C0"/>
</g>
</g>
<defs>
<clipPath id="clip0_325_1394">
<rect width="1880" height="282" fill="white"/>
</clipPath>
<clipPath id="clip1_325_1394">
<rect width="1880" height="282" fill="white"/>
</clipPath>
</defs>
</svg>
