<svg width="1880" height="282" viewBox="0 0 1880 282" fill="none" xmlns="http://www.w3.org/2000/svg">
<g clip-path="url(#clip0_325_1313)">
<path fill-rule="evenodd" clip-rule="evenodd" d="M1691.21 570.969L1767.1 570.969L1790.55 643.139L1729.15 687.743L1667.76 643.139L1691.21 570.969ZM1674.02 641.107L1729.15 681.165L1784.29 641.107L1763.23 576.291L1695.08 576.291L1674.02 641.107Z" fill="#0C1EC7"/>
<path fill-rule="evenodd" clip-rule="evenodd" d="M1727.27 460.189H1803.15L1826.6 532.359L1765.21 576.963L1703.82 532.359L1727.27 460.189ZM1710.08 530.327L1765.21 570.385L1820.35 530.327L1799.29 465.511H1731.14L1710.08 530.327Z" fill="#0C1EC7"/>
<path d="M1787.44 642.132L1845.7 684.463L1823.45 752.956H1751.43L1729.17 684.463L1787.44 642.132Z" fill="#0C1EC7"/>
<path fill-rule="evenodd" clip-rule="evenodd" d="M1787.44 638.843L1848.83 683.447L1825.38 755.617H1749.49L1726.05 683.447L1787.44 638.843ZM1732.3 685.48L1753.36 750.296H1821.51L1842.57 685.48L1787.44 645.421L1732.3 685.48Z" fill="#0C1EC7"/>
<path d="M1670.88 642.132L1729.15 684.463L1706.89 752.956H1634.88L1612.62 684.463L1670.88 642.132Z" fill="#0C1EC7"/>
<path fill-rule="evenodd" clip-rule="evenodd" d="M1670.88 638.843L1732.28 683.447L1708.83 755.617H1632.94L1609.49 683.447L1670.88 638.843ZM1615.75 685.48L1636.81 750.296H1704.96L1726.02 685.48L1670.88 645.421L1615.75 685.48Z" fill="#0C1EC7"/>
<path d="M1976.09 420.566L2034.35 462.897L2012.1 531.39H1940.08L1917.82 462.897L1976.09 420.566Z" fill="#0C1EC7"/>
<path fill-rule="evenodd" clip-rule="evenodd" d="M1976.09 417.277L2037.48 461.88L2014.03 534.05H1938.14L1914.69 461.88L1976.09 417.277ZM1920.95 463.913L1942.01 528.729H2010.16L2031.22 463.913L1976.09 423.854L1920.95 463.913Z" fill="#0C1EC7"/>
<path d="M1940.06 531.484L1998.33 573.815L1976.07 642.308H1904.05L1881.8 573.815L1940.06 531.484Z" fill="#0C1EC7"/>
<path fill-rule="evenodd" clip-rule="evenodd" d="M1940.06 528.195L2001.45 572.799L1978.01 644.969H1902.12L1878.67 572.799L1940.06 528.195ZM1884.93 574.832L1905.99 639.648H1974.14L1995.2 574.832L1940.06 534.773L1884.93 574.832Z" fill="#0C1EC7"/>
<path d="M1823.42 531.261L1881.69 573.592L1859.43 642.085H1787.41L1765.16 573.592L1823.42 531.261Z" fill="#0C1EC7"/>
<path fill-rule="evenodd" clip-rule="evenodd" d="M1823.42 527.973L1884.81 572.576L1861.36 644.746H1785.48L1762.03 572.576L1823.42 527.973ZM1768.29 574.609L1789.35 639.425H1857.5L1878.56 574.609L1823.42 534.55L1768.29 574.609Z" fill="#0C1EC7"/>
<path fill-rule="evenodd" clip-rule="evenodd" d="M1879.96 349.35H1955.84L1979.29 421.52L1917.9 466.124L1856.51 421.52L1879.96 349.35ZM1862.76 419.487L1917.9 459.546L1973.04 419.487L1951.98 354.671H1883.82L1862.76 419.487Z" fill="#0C1EC7"/>
<path fill-rule="evenodd" clip-rule="evenodd" d="M1843.87 460.176H1919.75L1943.2 532.346L1881.81 576.95L1820.42 532.346L1843.87 460.176ZM1826.67 530.314L1881.81 570.372L1936.94 530.314L1915.88 465.498H1847.73L1826.67 530.314Z" fill="#0C1EC7"/>
<path fill-rule="evenodd" clip-rule="evenodd" d="M1573.97 570.969L1649.86 570.969L1673.31 643.139L1611.91 687.743L1550.52 643.139L1573.97 570.969ZM1556.78 641.107L1611.91 681.165L1667.05 641.107L1645.99 576.291L1577.84 576.291L1556.78 641.107Z" fill="#0C1EC7"/>
<path fill-rule="evenodd" clip-rule="evenodd" d="M1997.21 349.35H2073.1L2096.55 421.52L2035.16 466.124L1973.76 421.52L1997.21 349.35ZM1980.02 419.487L2035.16 459.546L2090.29 419.487L2069.23 354.671H2001.08L1980.02 419.487Z" fill="#0C1EC7"/>
<path fill-rule="evenodd" clip-rule="evenodd" d="M1820.21 171.314L1881.6 126.71L1943 171.314L1919.55 243.484H1843.66L1820.21 171.314ZM1847.53 238.163H1915.68L1936.74 173.347L1881.6 133.288L1826.47 173.347L1847.53 238.163Z" fill="#0C1EC7"/>
<path fill-rule="evenodd" clip-rule="evenodd" d="M1784.27 60.4974L1845.66 15.8938L1907.05 60.4974L1883.6 132.668H1807.72L1784.27 60.4974ZM1811.58 127.346H1879.74L1900.8 62.5301L1845.66 22.4715L1790.52 62.5301L1811.58 127.346Z" fill="#0C1EC7"/>
<path d="M1939.89 172.327H2011.91L2034.16 240.82L1975.9 283.151L1917.63 240.82L1939.89 172.327Z" fill="#0C1EC7"/>
<path fill-rule="evenodd" clip-rule="evenodd" d="M1937.96 169.666H2013.84L2037.29 241.836L1975.9 286.44L1914.51 241.836L1937.96 169.666ZM1920.76 239.803L1975.9 279.862L2031.03 239.803L2009.97 174.987H1941.82L1920.76 239.803Z" fill="#0C1EC7"/>
<path d="M1845.6 240.834H1917.61L1939.87 309.328L1881.6 351.659L1823.34 309.328L1845.6 240.834Z" fill="#0C1EC7"/>
<path fill-rule="evenodd" clip-rule="evenodd" d="M1843.66 238.174L1919.55 238.174L1943 310.344L1881.6 354.947L1820.21 310.344L1843.66 238.174ZM1826.47 308.311L1881.6 348.37L1936.74 308.311L1915.68 243.495L1847.53 243.495L1826.47 308.311Z" fill="#0C1EC7"/>
<path d="M1962.28 -117.81H2034.29L2056.55 -49.3171L1998.29 -6.98607L1940.02 -49.3171L1962.28 -117.81Z" fill="#0C1EC7"/>
<path fill-rule="evenodd" clip-rule="evenodd" d="M1960.34 -120.471L2036.23 -120.471L2059.68 -48.3008L1998.29 -3.69722L1936.89 -48.3008L1960.34 -120.471ZM1943.15 -50.3335L1998.29 -10.2749L2053.42 -50.3335L2032.36 -115.149L1964.21 -115.149L1943.15 -50.3335Z" fill="#0C1EC7"/>
<path d="M1998.33 -6.90126H2070.35L2092.6 61.5918L2034.34 103.923L1976.07 61.5918L1998.33 -6.90126Z" fill="#0C1EC7"/>
<path fill-rule="evenodd" clip-rule="evenodd" d="M1996.4 -9.56203L2072.28 -9.562L2095.73 62.6081L2034.34 107.212L1972.95 62.6081L1996.4 -9.56203ZM1979.2 60.5755L2034.34 100.634L2089.47 60.5755L2068.41 -4.24051L2000.26 -4.24054L1979.2 60.5755Z" fill="#0C1EC7"/>
<path d="M1903.83 61.4787H1975.85L1998.11 129.972L1939.84 172.303L1881.58 129.972L1903.83 61.4787Z" fill="#0C1EC7"/>
<path fill-rule="evenodd" clip-rule="evenodd" d="M1901.9 58.8179H1977.78L2001.23 130.988L1939.84 175.592L1878.45 130.988L1901.9 58.8179ZM1884.71 128.955L1939.84 169.014L1994.98 128.955L1973.92 64.1394H1905.77L1884.71 128.955Z" fill="#0C1EC7"/>
<path fill-rule="evenodd" clip-rule="evenodd" d="M1842.65 -118.922L1904.04 -163.525L1965.43 -118.922L1941.98 -46.7514H1866.1L1842.65 -118.922ZM1869.96 -52.0728H1938.11L1959.17 -116.889L1904.04 -156.947L1848.9 -116.889L1869.96 -52.0728Z" fill="#0C1EC7"/>
<path fill-rule="evenodd" clip-rule="evenodd" d="M1878.59 -8.04745L1939.98 -52.651L2001.37 -8.04745L1977.92 64.1227H1902.04L1878.59 -8.04745ZM1905.91 58.8012H1974.06L1995.12 -6.01482L1939.98 -46.0733L1884.85 -6.01482L1905.91 58.8012Z" fill="#0C1EC7"/>
<path fill-rule="evenodd" clip-rule="evenodd" d="M1725.36 240.226L1786.76 195.622L1848.15 240.226L1824.7 312.396H1748.81L1725.36 240.226ZM1752.68 307.074H1820.83L1841.89 242.258L1786.76 202.2L1731.62 242.258L1752.68 307.074Z" fill="#0C1EC7"/>
<path fill-rule="evenodd" clip-rule="evenodd" d="M1937.51 -187.843L1998.9 -232.447L2060.29 -187.843L2036.84 -115.673H1960.96L1937.51 -187.843ZM1964.83 -120.995H2032.98L2054.04 -185.811L1998.9 -225.869L1943.77 -185.811L1964.83 -120.995Z" fill="#0C1EC7"/>
<path fill-rule="evenodd" clip-rule="evenodd" d="M1348.02 819.632L1423.9 819.632L1447.35 891.802L1385.96 936.405L1324.57 891.802L1348.02 819.632ZM1330.83 889.769L1385.96 929.828L1441.1 889.769L1420.04 824.953L1351.89 824.953L1330.83 889.769Z" fill="#0C1EC7"/>
<path fill-rule="evenodd" clip-rule="evenodd" d="M1384.08 708.851H1459.96L1483.41 781.022L1422.02 825.625L1360.63 781.022L1384.08 708.851ZM1366.88 778.989L1422.02 819.047L1477.15 778.989L1456.09 714.173H1387.94L1366.88 778.989Z" fill="#0C1EC7"/>
<path d="M1444.24 890.794L1502.51 933.126L1480.25 1001.62H1408.24L1385.98 933.126L1444.24 890.794Z" fill="#0C1EC7"/>
<path fill-rule="evenodd" clip-rule="evenodd" d="M1444.24 887.506L1505.64 932.109L1482.19 1004.28H1406.3L1382.85 932.109L1444.24 887.506ZM1389.11 934.142L1410.17 998.958H1478.32L1499.38 934.142L1444.24 894.083L1389.11 934.142Z" fill="#0C1EC7"/>
<path d="M1327.69 890.794L1385.96 933.126L1363.7 1001.62H1291.68L1269.43 933.126L1327.69 890.794Z" fill="#0C1EC7"/>
<path fill-rule="evenodd" clip-rule="evenodd" d="M1327.69 887.506L1389.08 932.109L1365.63 1004.28H1289.75L1266.3 932.109L1327.69 887.506ZM1272.56 934.142L1293.62 998.958H1361.77L1382.83 934.142L1327.69 894.083L1272.56 934.142Z" fill="#0C1EC7"/>
<path d="M1632.89 669.228L1691.16 711.559L1668.9 780.052H1596.89L1574.63 711.559L1632.89 669.228Z" fill="#0C1EC7"/>
<path fill-rule="evenodd" clip-rule="evenodd" d="M1632.89 665.939L1694.29 710.543L1670.84 782.713H1594.95L1571.5 710.543L1632.89 665.939ZM1577.76 712.575L1598.82 777.391H1666.97L1688.03 712.575L1632.89 672.517L1577.76 712.575Z" fill="#0C1EC7"/>
<path d="M1596.87 780.146L1655.14 822.478L1632.88 890.971H1560.86L1538.61 822.478L1596.87 780.146Z" fill="#0C1EC7"/>
<path fill-rule="evenodd" clip-rule="evenodd" d="M1596.87 776.858L1658.26 821.461L1634.81 893.631H1558.93L1535.48 821.461L1596.87 776.858ZM1541.74 823.494L1562.8 888.31H1630.95L1652.01 823.494L1596.87 783.435L1541.74 823.494Z" fill="#0C1EC7"/>
<path d="M1480.23 779.924L1538.49 822.255L1516.24 890.748H1444.22L1421.97 822.255L1480.23 779.924Z" fill="#0C1EC7"/>
<path fill-rule="evenodd" clip-rule="evenodd" d="M1480.23 776.635L1541.62 821.238L1518.17 893.408H1442.29L1418.84 821.238L1480.23 776.635ZM1425.09 823.271L1446.15 888.087H1514.31L1535.37 823.271L1480.23 783.212L1425.09 823.271Z" fill="#0C1EC7"/>
<path fill-rule="evenodd" clip-rule="evenodd" d="M1536.77 598.012H1612.65L1636.1 670.182L1574.71 714.786L1513.32 670.182L1536.77 598.012ZM1519.57 668.15L1574.71 708.208L1629.84 668.15L1608.78 603.334H1540.63L1519.57 668.15Z" fill="#0C1EC7"/>
<path fill-rule="evenodd" clip-rule="evenodd" d="M1500.67 708.838H1576.56L1600.01 781.009L1538.62 825.612L1477.22 781.009L1500.67 708.838ZM1483.48 778.976L1538.62 819.034L1593.75 778.976L1572.69 714.16H1504.54L1483.48 778.976Z" fill="#0C1EC7"/>
<path fill-rule="evenodd" clip-rule="evenodd" d="M1230.78 819.632L1306.66 819.632L1330.11 891.802L1268.72 936.405L1207.33 891.802L1230.78 819.632ZM1213.59 889.769L1268.72 929.828L1323.86 889.769L1302.8 824.953L1234.65 824.953L1213.59 889.769Z" fill="#0C1EC7"/>
<path fill-rule="evenodd" clip-rule="evenodd" d="M1654.02 598.012H1729.91L1753.36 670.182L1691.96 714.786L1630.57 670.182L1654.02 598.012ZM1636.83 668.15L1691.96 708.208L1747.1 668.15L1726.04 603.334H1657.89L1636.83 668.15Z" fill="#0C1EC7"/>
<path fill-rule="evenodd" clip-rule="evenodd" d="M1477.02 419.976L1538.41 375.373L1599.8 419.976L1576.35 492.146H1500.47L1477.02 419.976ZM1504.34 486.825H1572.49L1593.55 422.009L1538.41 381.95L1483.28 422.009L1504.34 486.825Z" fill="#0C1EC7"/>
<path fill-rule="evenodd" clip-rule="evenodd" d="M1441.08 309.16L1502.47 264.556L1563.86 309.16L1540.41 381.33H1464.53L1441.08 309.16ZM1468.39 376.008H1536.54L1557.6 311.192L1502.47 271.134L1447.33 311.192L1468.39 376.008Z" fill="#0C1EC7"/>
<path d="M1596.7 420.989H1668.71L1690.97 489.482L1632.71 531.813L1574.44 489.482L1596.7 420.989Z" fill="#0C1EC7"/>
<path fill-rule="evenodd" clip-rule="evenodd" d="M1594.76 418.328H1670.65L1694.1 490.498L1632.71 535.102L1571.31 490.498L1594.76 418.328ZM1577.57 488.466L1632.71 528.524L1687.84 488.466L1666.78 423.65H1598.63L1577.57 488.466Z" fill="#0C1EC7"/>
<path d="M1502.4 489.497H1574.42L1596.68 557.99L1538.41 600.321L1480.15 557.99L1502.4 489.497Z" fill="#0C1EC7"/>
<path fill-rule="evenodd" clip-rule="evenodd" d="M1500.47 486.836L1576.36 486.836L1599.8 559.006L1538.41 603.61L1477.02 559.006L1500.47 486.836ZM1483.28 556.974L1538.41 597.032L1593.55 556.974L1572.49 492.158L1504.34 492.158L1483.28 556.974Z" fill="#0C1EC7"/>
<path d="M1619.08 130.852H1691.1L1713.36 199.345L1655.09 241.676L1596.83 199.345L1619.08 130.852Z" fill="#0C1EC7"/>
<path fill-rule="evenodd" clip-rule="evenodd" d="M1617.15 128.191L1693.04 128.191L1716.48 200.361L1655.09 244.965L1593.7 200.361L1617.15 128.191ZM1599.96 198.329L1655.09 238.387L1710.23 198.329L1689.17 133.513L1621.02 133.513L1599.96 198.329Z" fill="#0C1EC7"/>
<path d="M1655.14 241.761H1727.16L1749.41 310.254L1691.15 352.585L1632.88 310.254L1655.14 241.761Z" fill="#0C1EC7"/>
<path fill-rule="evenodd" clip-rule="evenodd" d="M1653.2 239.1L1729.09 239.1L1752.54 311.27L1691.15 355.874L1629.75 311.27L1653.2 239.1ZM1636.01 309.238L1691.15 349.296L1746.28 309.238L1725.22 244.422L1657.07 244.422L1636.01 309.238Z" fill="#0C1EC7"/>
<path d="M1560.64 310.141H1632.66L1654.91 378.634L1596.65 420.965L1538.39 378.634L1560.64 310.141Z" fill="#0C1EC7"/>
<path fill-rule="evenodd" clip-rule="evenodd" d="M1558.71 307.48H1634.59L1658.04 379.65L1596.65 424.254L1535.26 379.65L1558.71 307.48ZM1541.51 377.618L1596.65 417.676L1651.79 377.618L1630.73 312.802H1562.57L1541.51 377.618Z" fill="#0C1EC7"/>
<path fill-rule="evenodd" clip-rule="evenodd" d="M1499.45 129.741L1560.85 85.1372L1622.24 129.741L1598.79 201.911H1522.9L1499.45 129.741ZM1526.77 196.589H1594.92L1615.98 131.773L1560.85 91.7149L1505.71 131.773L1526.77 196.589Z" fill="#0C1EC7"/>
<path fill-rule="evenodd" clip-rule="evenodd" d="M1535.4 240.615L1596.79 196.011L1658.18 240.615L1634.73 312.785H1558.85L1535.4 240.615ZM1562.71 307.464H1630.87L1651.93 242.647L1596.79 202.589L1541.65 242.647L1562.71 307.464Z" fill="#0C1EC7"/>
<path fill-rule="evenodd" clip-rule="evenodd" d="M1382.17 488.888L1443.56 444.284L1504.96 488.888L1481.51 561.058H1405.62L1382.17 488.888ZM1409.49 555.736H1477.64L1498.7 490.92L1443.56 450.862L1388.43 490.92L1409.49 555.736Z" fill="#0C1EC7"/>
<path fill-rule="evenodd" clip-rule="evenodd" d="M1594.32 60.8189L1655.71 16.2153L1717.1 60.8189L1693.65 132.989H1617.77L1594.32 60.8189ZM1621.63 127.668H1689.78L1710.84 62.8515L1655.71 22.793L1600.57 62.8515L1621.63 127.668Z" fill="#0C1EC7"/>
<path fill-rule="evenodd" clip-rule="evenodd" d="M1032.88 186.467L1093.49 232.135L1068.78 303.885L992.907 302.561L970.721 229.992L1032.88 186.467ZM976.94 232.134L996.866 297.307L1065.01 298.497L1087.2 234.058L1032.77 193.044L976.94 232.134Z" fill="#0C1EC7"/>
<path fill-rule="evenodd" clip-rule="evenodd" d="M1128.35 119.693L1188.95 165.362L1164.25 237.112L1088.37 235.787L1066.19 163.219L1128.35 119.693ZM1072.41 165.36L1092.33 230.534L1160.47 231.723L1182.66 167.285L1128.23 126.27L1072.41 165.36Z" fill="#0C1EC7"/>
<path d="M1350.91 237.791L1371.96 306.662L1312.97 347.97L1255.45 304.628L1278.9 236.534L1350.91 237.791Z" fill="#0C1EC7"/>
<path fill-rule="evenodd" clip-rule="evenodd" d="M1352.89 235.164L1375.07 307.733L1312.91 351.258L1252.31 305.59L1277.01 233.84L1352.89 235.164ZM1280.79 239.228L1258.6 303.667L1313.03 344.681L1368.85 305.591L1348.93 240.417L1280.79 239.228Z" fill="#0C1EC7"/>
<path d="M1255.39 304.695L1276.44 373.566L1217.45 414.874L1159.93 371.532L1183.38 303.438L1255.39 304.695Z" fill="#0C1EC7"/>
<path fill-rule="evenodd" clip-rule="evenodd" d="M1257.37 302.069L1279.55 374.637L1217.39 418.162L1156.79 372.494L1181.49 300.744L1257.37 302.069ZM1185.27 306.132L1163.08 370.571L1217.51 411.586L1273.33 372.495L1253.41 307.322L1185.27 306.132Z" fill="#0C1EC7"/>
<path d="M1162.37 234.32L1183.42 303.191L1124.43 344.499L1066.91 301.158L1090.36 233.064L1126.36 233.692L1162.37 234.32Z" fill="#0C1EC7"/>
<path fill-rule="evenodd" clip-rule="evenodd" d="M1164.35 231.694L1186.53 304.262L1124.37 347.788L1063.77 302.119L1088.47 230.369L1164.35 231.694ZM1092.25 235.758L1070.06 300.196L1124.49 341.211L1180.31 302.121L1160.39 236.947L1092.25 235.758Z" fill="#0C1EC7"/>
<path fill-rule="evenodd" clip-rule="evenodd" d="M1316.99 123.063L1377.6 168.732L1352.89 240.482L1277.02 239.157L1254.83 166.589L1316.99 123.063ZM1261.05 168.73L1280.98 233.904L1349.12 235.093L1371.31 170.655L1316.88 129.64L1261.05 168.73Z" fill="#0C1EC7"/>
<path fill-rule="evenodd" clip-rule="evenodd" d="M1221.47 189.853L1282.08 235.521L1257.37 307.271L1181.5 305.947L1159.31 233.378L1221.47 189.853ZM1165.53 235.52L1185.46 300.694L1253.6 301.883L1275.79 237.444L1221.36 196.43L1165.53 235.52Z" fill="#0C1EC7"/>
<path fill-rule="evenodd" clip-rule="evenodd" d="M1410.64 193.63L1471.24 239.299L1446.54 311.049L1370.67 309.724L1348.48 237.156L1410.64 193.63ZM1354.7 239.297L1374.62 304.471L1442.77 305.66L1464.95 241.222L1410.52 200.207L1354.7 239.297Z" fill="#0C1EC7"/>
<path fill-rule="evenodd" clip-rule="evenodd" d="M1376.42 -55.0773L1452.3 -53.753L1474.48 18.8154L1412.32 62.3409L1351.72 16.6726L1376.42 -55.0773ZM1358.01 14.7494L1412.44 55.7641L1468.26 16.6739L1448.34 -48.4998L1380.2 -49.6892L1358.01 14.7494Z" fill="#0C1EC7"/>
<path fill-rule="evenodd" clip-rule="evenodd" d="M1414.41 -165.211L1490.28 -163.887L1512.47 -91.3185L1450.31 -47.7931L1389.7 -93.4614L1414.41 -165.211ZM1395.99 -95.3845L1450.42 -54.3698L1506.25 -93.46L1486.32 -158.634L1418.18 -159.823L1395.99 -95.3845Z" fill="#0C1EC7"/>
<path d="M1471.39 17.7541L1528.91 61.0956L1505.46 129.19L1433.46 127.933L1412.4 59.0619L1471.39 17.7541Z" fill="#0C1EC7"/>
<path fill-rule="evenodd" clip-rule="evenodd" d="M1471.45 14.4658L1532.05 60.134L1507.35 131.884L1431.48 130.56L1409.29 57.9911L1471.45 14.4658ZM1415.51 60.1326L1435.43 125.306L1503.58 126.496L1525.76 62.0571L1471.34 21.0425L1415.51 60.1326Z" fill="#0C1EC7"/>
<path d="M1354.86 15.7201L1412.37 59.0615L1388.93 127.156L1316.92 125.899L1295.86 57.0278L1354.86 15.7201Z" fill="#0C1EC7"/>
<path fill-rule="evenodd" clip-rule="evenodd" d="M1354.92 12.4317L1415.52 58.1L1390.81 129.85L1314.94 128.525L1292.75 55.9571L1354.92 12.4317ZM1298.97 58.0986L1318.9 123.272L1387.04 124.462L1409.23 60.0231L1354.8 19.0084L1298.97 58.0986Z" fill="#0C1EC7"/>
<path d="M1663.88 -200.486L1721.4 -157.145L1697.95 -89.0507L1625.94 -90.3076L1604.89 -159.179L1663.88 -200.486Z" fill="#0C1EC7"/>
<path fill-rule="evenodd" clip-rule="evenodd" d="M1663.94 -203.775L1724.54 -158.107L1699.84 -86.3566L1623.96 -87.681L1601.78 -160.249L1663.94 -203.775ZM1608 -158.108L1627.92 -92.9342L1696.06 -91.7448L1718.25 -156.183L1663.82 -197.198L1608 -158.108Z" fill="#0C1EC7"/>
<path d="M1625.93 -90.2134L1683.44 -46.8719L1660 21.2223L1587.99 19.9654L1566.93 -48.9056L1625.93 -90.2134Z" fill="#0C1EC7"/>
<path fill-rule="evenodd" clip-rule="evenodd" d="M1625.98 -93.5018L1686.59 -47.8335L1661.88 23.9164L1586.01 22.592L1563.82 -49.9764L1625.98 -93.5018ZM1570.04 -47.8349L1589.97 17.3388L1658.11 18.5282L1680.3 -45.9104L1625.87 -86.925L1570.04 -47.8349Z" fill="#0C1EC7"/>
<path d="M1509.31 -92.4719L1566.82 -49.1304L1543.38 18.9638L1471.37 17.7069L1450.31 -51.1641L1509.31 -92.4719Z" fill="#0C1EC7"/>
<path fill-rule="evenodd" clip-rule="evenodd" d="M1509.36 -95.7603L1569.97 -50.092L1545.26 21.6579L1469.39 20.3335L1447.2 -52.2349L1509.36 -95.7603ZM1453.42 -50.0934L1473.35 15.0803L1541.49 16.2697L1563.68 -48.1689L1509.25 -89.1835L1453.42 -50.0934Z" fill="#0C1EC7"/>
<path fill-rule="evenodd" clip-rule="evenodd" d="M1569.01 -273.369L1644.88 -272.045L1667.07 -199.476L1604.91 -155.951L1544.3 -201.619L1569.01 -273.369ZM1550.59 -203.542L1605.02 -162.528L1660.85 -201.618L1640.92 -266.791L1572.78 -267.981L1550.59 -203.542Z" fill="#0C1EC7"/>
<path fill-rule="evenodd" clip-rule="evenodd" d="M1530.99 -163.189L1606.86 -161.865L1629.05 -89.2967L1566.89 -45.7713L1506.28 -91.4395L1530.99 -163.189ZM1512.57 -93.3627L1567 -52.348L1622.83 -91.4382L1602.9 -156.612L1534.76 -157.801L1512.57 -93.3627Z" fill="#0C1EC7"/>
<path fill-rule="evenodd" clip-rule="evenodd" d="M1259.2 -57.1234L1335.08 -55.7991L1357.26 16.7693L1295.1 60.2947L1234.5 14.6265L1259.2 -57.1234ZM1240.79 12.7033L1295.22 53.7179L1351.04 14.6278L1331.12 -50.5459L1262.98 -51.7353L1240.79 12.7033Z" fill="#0C1EC7"/>
<path fill-rule="evenodd" clip-rule="evenodd" d="M1686.25 -271.323L1762.12 -269.998L1784.31 -197.43L1722.15 -153.904L1661.54 -199.573L1686.25 -271.323ZM1667.83 -201.496L1722.26 -160.481L1778.09 -199.571L1758.16 -264.745L1690.02 -265.934L1667.83 -201.496Z" fill="#0C1EC7"/>
</g>
<defs>
<clipPath id="clip0_325_1313">
<rect width="1880" height="282" fill="white"/>
</clipPath>
</defs>
</svg>
