<svg xmlns="http://www.w3.org/2000/svg" xmlns:xlink="http://www.w3.org/1999/xlink" viewBox="0 0 1251.48 876.3"><defs><linearGradient id="linear-gradient" x1="448.71" y1="760.46" x2="1092.88" y2="-312.5" gradientUnits="userSpaceOnUse"><stop offset="0.06" stop-color="#bb2e68"/><stop offset="0.14" stop-color="#cd3768"/><stop offset="0.26" stop-color="#e14168"/><stop offset="0.38" stop-color="#ed4768"/><stop offset="0.5" stop-color="#f14968"/></linearGradient></defs><g id="Layer_2" data-name="Layer 2"><g id="Layer_1-2" data-name="Layer 1"><path d="M98.71,245.24S198.6,361.33,247.19,341.7c116.39-47,97.51-225.3,273.67-299.88C692.16-30.7,942.37-29.61,843.81,214.7,739.92,472.22,580.63,595.45,775.66,762.17s425.7-51.38,440.38-170.91-84.93-196.08-166.72-174.06-35.65,141.55-25.16,152,1,29.36-13.63,15.73-142.6-175.11-36.7-224.39,218.1,8.39,252.7,92.27,52.43,205.51-79.69,324S818.65,900.58,718,831.37,529.25,659.54,599.5,437.71s217-344.51,36.7-317.25S472.63,394.13,309.05,447.61,10.22,376.31.78,319.69,69.76,230.56,98.71,245.24Z" style="fill:url(#linear-gradient)"/></g></g></svg>