<svg xmlns="http://www.w3.org/2000/svg" xmlns:xlink="http://www.w3.org/1999/xlink" viewBox="0 0 940.35 1074.89"><defs><linearGradient id="linear-gradient" x1="441.47" y1="654.85" x2="214.84" y2="1043.64" gradientUnits="userSpaceOnUse"><stop offset="0" stop-color="#c02e68"/><stop offset="0.64" stop-color="#9b2e68"/><stop offset="1" stop-color="#842e68"/><stop offset="1" stop-color="#c62e68"/></linearGradient></defs><g id="Layer_2" data-name="Layer 2"><g id="Layer_1-2" data-name="Layer 1"><path d="M72.73,784.66c50,7.49,208.2,264.16,380.78,158.61C630.55,835,632,720.61,580.22,577.88s-183.3-393,52.35-530S960.5,103.81,936.73,179.3,843.06,287,808.11,270.17s-62.92-85.28-44.74-131.41,15.38-4.2,18.17,9.78,42,48.94,60.12,35S913,126.17,886.4,84.23,787.14-1,703.25,45.09,536.45,192.86,542.48,263.18c12.58,146.8,137.07,332.6,138.4,440.39,1.4,113.24-30.75,254.45-165,329.94S183.18,1079.65,88.11,958,1.43,854.56,0,829.4,44.77,780.46,72.73,784.66Z" style="fill:url(#linear-gradient)"/></g></g></svg>