<svg width="399" height="138" viewBox="0 0 399 138" fill="none" xmlns="http://www.w3.org/2000/svg">
<g clip-path="url(#clip0_309_524)">
<g clip-path="url(#clip1_309_524)">
<path d="M379.245 47.5243L402.34 60.8581V87.5257L379.245 100.86L356.15 87.5257V60.8581L379.245 47.5243Z" stroke="#5AD4C0" stroke-width="2"/>
<path d="M287.181 127.049L310.276 140.383V167.05L287.181 180.384L264.086 167.05V140.383L287.181 127.049Z" fill="#5AD4C0" stroke="#5AD4C0" stroke-width="2"/>
<path d="M310.217 87.1703L333.312 100.504V127.172L310.217 140.506L287.122 127.172V100.504L310.217 87.1703Z" stroke="#5AD4C0" stroke-width="2"/>
<path d="M356.318 87.1702L379.413 100.504V127.172L356.318 140.505L333.223 127.172V100.504L356.318 87.1702Z" fill="#5AD4C0" stroke="#5AD4C0" stroke-width="2"/>
<path d="M356.318 7.6456L379.413 20.9794V47.6471L356.318 60.9809L333.223 47.6471V20.9794L356.318 7.6456Z" fill="#5AD4C0" stroke="#5AD4C0" stroke-width="2"/>
<path d="M333.391 -32L356.485 -18.6662V8.00146L333.391 21.3353L310.296 8.00146V-18.6662L333.391 -32Z" stroke="#5AD4C0" stroke-width="2"/>
<path d="M379.245 -32L402.34 -18.6662V8.00146L379.245 21.3353L356.15 8.00146V-18.6662L379.245 -32Z" fill="#5AD4C0" stroke="#5AD4C0" stroke-width="2"/>
<path d="M402.281 7.6456L425.376 20.9794V47.6471L402.281 60.9809L379.186 47.6471V20.9794L402.281 7.6456Z" stroke="#5AD4C0" stroke-width="2"/>
<path d="M333.391 127.049L356.485 140.383V167.05L333.391 180.384L310.296 167.05V140.383L333.391 127.049Z" stroke="#5AD4C0" stroke-width="2"/>
<path d="M241.327 127.049L264.422 140.383V167.05L241.327 180.384L218.232 167.05V140.383L241.327 127.049Z" stroke="#5AD4C0" stroke-width="2"/>
</g>
</g>
<defs>
<clipPath id="clip0_309_524">
<rect width="399" height="138" fill="white"/>
</clipPath>
<clipPath id="clip1_309_524">
<rect width="399" height="138" fill="white"/>
</clipPath>
</defs>
</svg>
